<svg id="kv-impact"
	xmlns="http://www.w3.org/2000/svg" viewBox="0 0 248 180">
	<circle cx="123.58" cy="78.896" r="68.844" fill="#2A2A2A"/>
	<rect width="59.961" height="59.961" x="8.101" y="72.234" fill="#3F3F3F" rx="2"/>
	<path fill="#707070" d="M26.978 95.552h-4.442v24.378h4.442z"/>
	<path fill="#2A2A2A" d="M26.978 103.325h-4.442v16.605h4.442z"/>
	<path fill="#707070" d="M35.86 99.993h-4.44v19.987h4.442z"/>
	<path fill="#2A2A2A" d="M35.86 114.428h-4.44v5.552h4.442z"/>
	<path fill="#707070" d="M44.744 94.441h-4.441v25.539h4.441z"/>
	<path fill="#2A2A2A" d="M44.744 106.656h-4.441v13.324h4.441z"/>
	<path fill="#707070" d="M53.627 84.448h-4.442v35.532h4.442z"/>
	<path fill="#2A2A2A" d="M53.627 103.325h-4.442v16.655h4.442z"/>
	<rect width="44.416" height="43.305" x="91.379" y="132.195" fill="#8358FE" rx="2"/>
	<path fill="#E5E5E5" d="M105.815 138.857h-7.773v6.663h7.773zm0 7.773h-7.773v6.662h7.773zm0 7.773h-7.773v6.662h7.773zm0 7.772h-7.773v6.663h7.773zm23.318-23.318h-22.208v6.663h22.208zm0 7.773h-22.208v6.662h22.208zm0 7.773h-22.208v6.662h22.208zm0 7.772h-22.208v6.663h22.208z"/>
	<rect width="45.526" height="45.526" x="108.035" y="72.234" fill="#3F3F3F" rx="2"/>
	<path fill="#E5E5E5" d="M146.899 78.896h-15.545v15.546h15.545zm-16.656 0h-15.546v15.546h15.546z"/>
	<path fill="#BEBEBE" d="M130.243 86.669h-15.546v7.773h15.546zm16.656 0h-15.545v7.773h15.545z"/>
	<path fill="#E5E5E5" d="M146.899 95.552h-15.545v15.545h15.545zm-16.656 0h-15.546v15.545h15.546z"/>
	<path fill="#BEBEBE" d="M130.243 103.325h-15.546v7.772h15.546zm16.656 0h-15.545v7.772h15.545z"/>
	<rect width="53.299" height="53.299" x="41.412" y="4.5" fill="#8358FE" rx="2"/>
	<path fill="#714ED3" d="M85.827 31.15a17.766 17.766 0 1 1-17.766-17.767V31.15z"/>
	<path fill="#E5E5E5" d="M85.827 31.15a17.767 17.767 0 0 1-26.502 15.47l8.736-15.47z"/>
	<circle cx="68.061" cy="31.149" r="7.773" fill="#8358FE"/>
	<path fill="#E5E5E5" d="M199.368 52.792A6.3 6.3 0 0 0 195.655 54c-1.543-3.642-5.141-6.194-9.337-6.194-5.286 0-9.619 4.048-10.095 9.216a5.23 5.23 0 0 0-4.088-1.973 5.256 5.256 0 0 0-5.249 5.261 5.256 5.256 0 0 0 5.249 5.262h27.24c3.519 0 6.374-2.862 6.374-6.39 0-3.526-2.855-6.389-6.374-6.389zm19.277-15.196a4 4 0 0 1 2.334.754 6.38 6.38 0 0 1 5.868-3.87c3.32 0 6.047 2.533 6.346 5.762a3.31 3.31 0 0 1 2.57-1.23 3.293 3.293 0 0 1 3.298 3.286 3.293 3.293 0 0 1-3.298 3.286h-17.125a3.996 3.996 0 0 1-4.005-3.99 3.996 3.996 0 0 1 4.005-3.99zm-63.914-9.509a3.33 3.33 0 0 0-1.913.604c-.796-1.82-2.644-3.094-4.805-3.094-2.717 0-4.944 2.027-5.192 4.61a2.74 2.74 0 0 0-2.103-.99c-1.49 0-2.702 1.181-2.702 2.632 0 1.45 1.212 2.631 2.702 2.631h14.006c1.811 0 3.279-1.429 3.279-3.193s-1.468-3.193-3.279-3.193z"/>
</svg>
