<svg id="kv-disagree" viewBox="0 0 40 40"
	xmlns="http://www.w3.org/2000/svg">
	<g>
		<path d="M20 40C31.0457 40 40 31.0457 40 20C40 8.9543 31.0457 0 20 0C8.9543 0 0 8.9543 0 20C0 31.0457 8.9543 40 20 40Z" fill="#3F3F3F"/>
		<path fill-rule="evenodd" d="M31.8078 19.9996C31.8078 26.52 26.522 31.8059 20.0016 31.8059C13.4812 31.8059 8.19531 26.52 8.19531 19.9996C8.19531 13.4792 13.4812 8.19336 20.0016 8.19336C26.522 8.19336 31.8078 13.4792 31.8078 19.9996ZM23.3625 16.5975H25.5102L25.5094 16.5928C25.918 16.5928 26.2484 16.924 26.2484 17.3318C26.2484 17.7404 25.9172 18.0709 25.5094 18.0709H22.082H22.0727L22.032 18.0686L22.0211 18.068C22.0138 18.0676 22.0065 18.0673 21.9992 18.0662L21.9872 18.0644L21.9816 18.0635C21.9782 18.0629 21.9748 18.0623 21.9713 18.0618C21.9689 18.0614 21.9665 18.0611 21.9641 18.0608C21.9508 18.0592 21.9383 18.0568 21.9258 18.0545L21.9258 18.0545L21.8992 18.0475C21.8844 18.0436 21.8695 18.0397 21.8547 18.035C21.8477 18.0326 21.8414 18.0303 21.8352 18.0279L21.8245 18.0239C21.8114 18.019 21.798 18.0139 21.7852 18.0084C21.782 18.0075 21.7792 18.0061 21.7762 18.0046C21.7741 18.0035 21.7719 18.0024 21.7695 18.0014C21.7523 17.9936 21.7352 17.985 21.7187 17.9756L21.7141 17.9733C21.7121 17.9721 21.7102 17.9707 21.7082 17.9693L21.7058 17.9677L21.7023 17.9654C21.6867 17.9561 21.6719 17.9467 21.6578 17.9365C21.6508 17.9319 21.6438 17.9264 21.6368 17.921L21.6368 17.921L21.6367 17.9209C21.625 17.9123 21.6133 17.9029 21.6023 17.8936L21.5943 17.8866L21.5861 17.8791L21.5781 17.8717C21.5688 17.8631 21.5594 17.8545 21.5508 17.8451L21.5273 17.8193L21.5039 17.7912C21.4969 17.7826 21.4898 17.774 21.4836 17.7647C21.4801 17.7592 21.4764 17.7537 21.4727 17.7483C21.4702 17.7446 21.4677 17.7409 21.4652 17.7372C21.464 17.7354 21.4629 17.7336 21.4617 17.7318C21.4562 17.724 21.4508 17.7154 21.4461 17.7068L21.4401 17.6964C21.4348 17.6873 21.4295 17.6781 21.425 17.6686L21.4195 17.6572L21.4141 17.6459C21.407 17.6311 21.4008 17.617 21.3953 17.6022C21.3922 17.5952 21.3899 17.5882 21.3875 17.5812L21.3875 17.5811C21.382 17.5662 21.3773 17.5506 21.3727 17.535C21.3703 17.5279 21.368 17.5201 21.3664 17.5123C21.3625 17.4975 21.3594 17.4826 21.3562 17.467C21.3547 17.4609 21.3539 17.4544 21.353 17.4481L21.3516 17.4381L21.3499 17.4253C21.3487 17.416 21.3474 17.4065 21.3469 17.3975C21.3461 17.385 21.3453 17.3725 21.3453 17.36C21.3445 17.3514 21.3438 17.3436 21.3438 17.335V17.3256L21.3461 17.2842L21.3467 17.2736C21.347 17.2665 21.3474 17.2595 21.3484 17.2522C21.3492 17.2397 21.3516 17.2272 21.3539 17.2147C21.3551 17.2088 21.3561 17.2029 21.357 17.1971L21.357 17.197C21.358 17.1912 21.359 17.1853 21.3602 17.1795L21.3617 17.1734L21.3641 17.1643C21.3654 17.1592 21.3668 17.1541 21.368 17.149L21.3714 17.1361L21.3714 17.1361C21.3739 17.1264 21.3764 17.1168 21.3797 17.1076C21.382 17.099 21.3852 17.0912 21.3883 17.0834C21.3937 17.0678 21.4 17.053 21.4062 17.0381L21.4062 17.0381C21.4078 17.0346 21.4096 17.0313 21.4113 17.0279C21.4131 17.0246 21.4148 17.0213 21.4164 17.0178L21.425 17.0008L21.425 17.0008L21.425 17.0008C21.4297 16.9913 21.4345 16.9817 21.4398 16.9725L21.4413 16.9693L21.443 16.9662L23.1562 13.9983C23.3602 13.6451 23.8125 13.524 24.1656 13.7279C24.5187 13.9318 24.6398 14.3842 24.4359 14.7373L23.3625 16.5975ZM18.4688 17.7686C18.4765 17.7576 18.4836 17.7467 18.4906 17.7358L18.4906 17.7358L18.4967 17.7259C18.4998 17.7207 18.5029 17.7156 18.5062 17.7108C18.5133 17.6983 18.5203 17.6858 18.5273 17.6725L18.5328 17.6611L18.5383 17.6498C18.5453 17.6358 18.5516 17.6209 18.557 17.6061C18.5602 17.599 18.5625 17.592 18.5648 17.585C18.5703 17.5693 18.575 17.5545 18.5797 17.5389C18.5809 17.535 18.5818 17.5311 18.5828 17.5272C18.5838 17.5233 18.5848 17.5193 18.5859 17.5154C18.5898 17.5006 18.593 17.4858 18.5961 17.4701L18.6008 17.4412L18.6024 17.4285C18.6037 17.4194 18.6049 17.4102 18.6055 17.4006C18.6062 17.3881 18.607 17.3756 18.607 17.3631C18.607 17.3588 18.6074 17.3547 18.6078 17.3506C18.6082 17.3465 18.6086 17.3424 18.6086 17.3381V17.3287C18.6086 17.3147 18.6078 17.3006 18.6062 17.2873C18.6062 17.2801 18.6056 17.2733 18.6049 17.2663L18.6039 17.2553C18.6031 17.249 18.6021 17.2428 18.6012 17.2365C18.6002 17.2303 18.5992 17.224 18.5984 17.2178C18.5973 17.2119 18.5963 17.2061 18.5953 17.2002C18.5943 17.1943 18.5934 17.1885 18.5922 17.1826C18.591 17.1776 18.5897 17.1725 18.5883 17.1674L18.5883 17.1674L18.5883 17.1673C18.5869 17.1623 18.5855 17.1572 18.5844 17.1522L18.5814 17.141C18.5787 17.131 18.5761 17.1213 18.5727 17.1115C18.5715 17.1076 18.5699 17.1035 18.5684 17.0994L18.5684 17.0994C18.5668 17.0953 18.5652 17.0912 18.5641 17.0873C18.5586 17.0717 18.5531 17.0568 18.5461 17.042L18.5461 17.042C18.543 17.035 18.5398 17.0279 18.5359 17.0217C18.5289 17.0061 18.5211 16.9912 18.5125 16.9764C18.5114 16.9747 18.5107 16.9731 18.5101 16.9717L18.5094 16.9701L16.7961 14.0022C16.5922 13.649 16.1398 13.5279 15.7867 13.7318C15.4336 13.9358 15.3125 14.3881 15.5164 14.7412L16.5898 16.6014H14.4422C14.0344 16.6014 13.7031 16.9318 13.7031 17.3404C13.7031 17.7483 14.0336 18.0795 14.4422 18.0795H17.8695H17.8789C17.8922 18.0795 17.9062 18.0787 17.9195 18.0772C17.9268 18.0772 17.9341 18.0765 17.9414 18.0758L17.9523 18.0748C17.9641 18.0733 17.9758 18.0717 17.9875 18.0693C17.9937 18.0682 18.0002 18.0672 18.0066 18.0662C18.0131 18.0652 18.0195 18.0643 18.0258 18.0631C18.0312 18.0617 18.0364 18.0604 18.0414 18.059C18.0451 18.058 18.0487 18.057 18.0523 18.0561L18.0589 18.0543L18.0589 18.0543C18.0717 18.051 18.0849 18.0476 18.0969 18.0436C18.1031 18.0412 18.1094 18.0389 18.1164 18.0365C18.1336 18.0303 18.15 18.024 18.1664 18.017L18.1742 18.0135L18.182 18.01C18.1992 18.0022 18.2164 17.9936 18.2328 17.9842L18.2375 17.9818C18.2395 17.9807 18.2414 17.9793 18.2434 17.9779C18.2453 17.9766 18.2473 17.9752 18.2492 17.974L18.2493 17.974C18.2641 17.9646 18.2789 17.9553 18.2937 17.9451C18.3008 17.9397 18.3078 17.9342 18.3148 17.9295C18.3266 17.9209 18.3383 17.9115 18.3492 17.9022C18.3549 17.8975 18.3602 17.8925 18.3654 17.8877C18.3681 17.8852 18.3708 17.8827 18.3734 17.8803C18.3828 17.8717 18.3922 17.8631 18.4008 17.8537L18.4242 17.8279L18.4322 17.8186L18.4322 17.8185C18.4376 17.8123 18.443 17.8061 18.4477 17.7998C18.4512 17.7955 18.4545 17.791 18.4578 17.7865C18.4611 17.782 18.4645 17.7775 18.468 17.7733L18.4688 17.7686ZM14.1004 25.7141C14.8262 23.1383 17.1918 21.25 19.9997 21.25H19.9989C22.8067 21.25 25.1723 23.1383 25.8981 25.7141C25.8997 25.7187 25.9004 25.7234 25.902 25.7281C26.1051 26.4539 25.5465 27.1703 24.7934 27.1703H24.7176H15.2809H15.2051C14.452 27.1703 13.8942 26.4539 14.0965 25.7281C14.0973 25.7259 14.0978 25.7236 14.0984 25.7214C14.099 25.719 14.0996 25.7165 14.1004 25.7141ZM24.177 25.1797C23.3848 23.6805 21.809 22.6562 19.9989 22.6562C18.1887 22.6562 16.6129 23.6805 15.8207 25.1797C15.6926 25.4227 15.8715 25.7148 16.1457 25.7148H23.852C24.1262 25.7148 24.3051 25.4227 24.177 25.1797Z" fill="#E11900"/>
	</g>
</svg>
