<svg id="kv-color-circle-night"
	xmlns="http://www.w3.org/2000/svg" viewBox="0 0 198.02 198.02">
	<g opacity="0.5">
		<path fill="transparent" d="M96.23 195.14a2.89 2.89 0 012.89-2.88 2.89 2.89 0 012.88 2.88 2.89 2.89 0 01-2.88 2.86 2.89 2.89 0 01-2.89-2.86zM86.53 197.2A2.86 2.86 0 0184 194a2.86 2.86 0 013.22-2.48 2.87 2.87 0 012.5 3.21 2.88 2.88 0 01-2.86 2.51zM108.8 194.69a2.87 2.87 0 012.49-3.22 2.87 2.87 0 013.22 2.47 2.88 2.88 0 01-2.48 3.24h-.38a2.88 2.88 0 01-2.85-2.49z"></path>
		<path fill="#285ba7" d="M73.5 194.71a2.88 2.88 0 01-2-3.52 2.89 2.89 0 013.5-2.05 2.9 2.9 0 012 3.53 2.9 2.9 0 01-2.79 2.14 2.74 2.74 0 01-.71-.1z"></path>
		<path fill="#dd3d26" d="M121.21 192.62a2.87 2.87 0 012-3.53 2.88 2.88 0 013.53 2 2.88 2.88 0 01-2 3.53 2.76 2.76 0 01-.75.1 2.87 2.87 0 01-2.78-2.1z"></path>
		<path fill="#285ba7" d="M61.22 190.56a2.86 2.86 0 01-1.56-3.76 2.87 2.87 0 013.76-1.55A2.85 2.85 0 0165 189a2.88 2.88 0 01-2.66 1.79 2.68 2.68 0 01-1.12-.23z"></path>
		<path fill="#dd3926" d="M133.22 189.39a2.89 2.89 0 011.56-3.76 2.88 2.88 0 013.77 1.55 2.88 2.88 0 01-1.55 3.76 2.87 2.87 0 01-1.11.23 2.89 2.89 0 01-2.67-1.78z"></path>
		<path d="M49.6 184.86a2.89 2.89 0 01-1.06-3.94 2.88 2.88 0 013.94-1 2.87 2.87 0 011.05 3.93 2.88 2.88 0 01-2.5 1.44 2.94 2.94 0 01-1.43-.43z" fill="#285da7"></path>
		<path fill="#dd3926" d="M144.65 183.7a2.87 2.87 0 011-3.93 2.88 2.88 0 013.94 1 2.87 2.87 0 01-1 3.93 2.79 2.79 0 01-1.44.39 2.87 2.87 0 01-2.5-1.39z"></path>
		<path d="M38.83 177.68a2.88 2.88 0 01-.54-4 2.88 2.88 0 014-.54 2.89 2.89 0 01.54 4 2.89 2.89 0 01-2.3 1.12 2.87 2.87 0 01-1.7-.58z" fill="#285fa6"></path>
		<path fill="#dd3926" d="M155.3 177a2.88 2.88 0 01.52-4 2.9 2.9 0 014.05.51 2.87 2.87 0 01-.53 4 2.84 2.84 0 01-1.75.61 2.93 2.93 0 01-2.29-1.12z"></path>
		<path d="M29.09 169.16a2.86 2.86 0 010-4.07 2.87 2.87 0 014.07 0 2.86 2.86 0 010 4.07 2.88 2.88 0 01-2 .84 2.87 2.87 0 01-2.07-.84z" fill="#2862a5"></path>
		<path fill="#dd3d26" d="M165 169a2.88 2.88 0 010-4.07 2.89 2.89 0 014.09 0 2.87 2.87 0 010 4.06 2.88 2.88 0 01-2 .85A2.88 2.88 0 01165 169z"></path>
		<path d="M20.53 159.46a2.88 2.88 0 01.52-4 2.89 2.89 0 014.05.53 2.88 2.88 0 01-.52 4 2.89 2.89 0 01-1.76.59 2.88 2.88 0 01-2.29-1.12z" fill="#2865a5"></path>
		<path d="M173.56 159.84a2.88 2.88 0 01-.53-4 2.87 2.87 0 014-.53 2.86 2.86 0 01.54 4 2.89 2.89 0 01-2.3 1.14 2.85 2.85 0 01-1.71-.61z" fill="#e05026"></path>
		<path d="M13.48 148.73a2.89 2.89 0 011-3.94 2.9 2.9 0 013.95 1 2.89 2.89 0 01-1 3.94 2.79 2.79 0 01-1.44.39 2.91 2.91 0 01-2.51-1.39z" fill="#286ea2"></path>
		<path d="M180.86 149.61a2.88 2.88 0 01-1.06-3.93 2.91 2.91 0 013.94-1.06 2.88 2.88 0 011 3.94 2.88 2.88 0 01-2.5 1.44 2.85 2.85 0 01-1.38-.39z" fill="#e35f25"></path>
		<path d="M7.56 137.16a2.88 2.88 0 011.56-3.76 2.87 2.87 0 013.77 1.6 2.86 2.86 0 01-1.55 3.76 2.72 2.72 0 01-1.11.22 2.89 2.89 0 01-2.67-1.82z" fill="#2a7d9e"></path>
		<path d="M186.76 138.52a2.87 2.87 0 01-1.56-3.76 2.86 2.86 0 013.76-1.55 2.87 2.87 0 011.57 3.76 2.9 2.9 0 01-2.67 1.77 2.67 2.67 0 01-1.1-.22z" fill="#e56d24"></path>
		<path d="M3.39 124.93a2.88 2.88 0 012-3.54 2.89 2.89 0 013.54 2H9a2.89 2.89 0 01-2 3.53 2.76 2.76 0 01-.75.1 2.88 2.88 0 01-2.86-2.09z" fill="#2b8b98"></path>
		<path d="M191.16 126.75a2.88 2.88 0 01-2-3.52 2.89 2.89 0 013.53-2 2.89 2.89 0 012 3.53 2.87 2.87 0 01-2.78 2.14 2.74 2.74 0 01-.75-.15z" fill="#e87823"></path>
		<path d="M.86 112.25A2.87 2.87 0 013.34 109a2.89 2.89 0 013.23 2.47 2.88 2.88 0 01-2.48 3.24 2.42 2.42 0 01-.38 0 2.88 2.88 0 01-2.85-2.46z" fill="#2d9792"></path>
		<path d="M194 114.51a2.87 2.87 0 01-2.48-3.22 2.87 2.87 0 013.23-2.48 2.88 2.88 0 012.49 3.22 2.88 2.88 0 01-2.85 2.5z" fill="#eb8323"></path>
		<path d="M0 99.36a2.87 2.87 0 012.87-2.88 2.89 2.89 0 012.9 2.87 2.88 2.88 0 01-2.89 2.88A2.87 2.87 0 010 99.36z" fill="#2fa18c"></path>
		<path d="M192.25 99.14a2.88 2.88 0 012.88-2.88 2.89 2.89 0 012.87 2.87 2.88 2.88 0 01-2.88 2.88 2.87 2.87 0 01-2.87-2.87z" fill="#ed8c22"></path>
		<path d="M3.48 89.68A2.87 2.87 0 011 86.47 2.89 2.89 0 014.21 84a2.89 2.89 0 012.49 3.2 2.87 2.87 0 01-2.85 2.51 2.31 2.31 0 01-.37-.03z" fill="#32a986"></path>
		<path d="M191.36 87a2.88 2.88 0 012.49-3.23 2.89 2.89 0 013.23 2.49 2.88 2.88 0 01-2.48 3.23 2.61 2.61 0 01-.39 0 2.88 2.88 0 01-2.85-2.49z" fill="#ef9520"></path>
		<path d="M5.34 77.31a2.89 2.89 0 01-2-3.53 2.88 2.88 0 013.52-2 2.86 2.86 0 012 3.52 2.87 2.87 0 01-2.77 2.1 3.2 3.2 0 01-.75-.09z" fill="#34ae82"></path>
		<path d="M189.39 75.05a2.88 2.88 0 012.05-3.53 2.88 2.88 0 013.52 2 2.88 2.88 0 01-2 3.53 2.76 2.76 0 01-.75.1 2.89 2.89 0 01-2.82-2.1z" fill="#f29d1f"></path>
		<path d="M9 65.28a2.88 2.88 0 01-1.57-3.76A2.89 2.89 0 0111.21 60a2.89 2.89 0 011.57 3.76 2.91 2.91 0 01-2.68 1.74 2.83 2.83 0 01-1.1-.22z" fill="#35b27f"></path>
		<path d="M185.16 63.54a2.88 2.88 0 011.56-3.77 2.88 2.88 0 013.76 1.55 2.86 2.86 0 01-1.55 3.77 2.85 2.85 0 01-1.11.22 2.9 2.9 0 01-2.66-1.77z" fill="#f4a41d"></path>
		<path fill="var(--illustration-success-color)" d="M14.22 53.86a2.89 2.89 0 01-1.06-3.94 2.88 2.88 0 013.94-1.05 2.85 2.85 0 011.06 3.92 2.87 2.87 0 01-2.5 1.45 3 3 0 01-1.44-.38z"></path>
		<path d="M179.76 52.63a2.88 2.88 0 011.05-3.94 2.89 2.89 0 013.94 1.06 2.87 2.87 0 01-1.05 3.93 2.9 2.9 0 01-1.45.39 2.88 2.88 0 01-2.49-1.44z" fill="#f6ab1b"></path>
		<path fill="var(--illustration-success-color)" d="M20.89 43.2a2.86 2.86 0 01-.54-4 2.87 2.87 0 014-.54 2.87 2.87 0 01.54 4 2.88 2.88 0 01-2.29 1.12 2.84 2.84 0 01-1.71-.58z"></path>
		<path d="M173 42.52a2.87 2.87 0 01.53-4 2.9 2.9 0 014 .53 2.88 2.88 0 01-.53 4 2.81 2.81 0 01-1.75.6 2.88 2.88 0 01-2.25-1.13z" fill="#f8b119"></path>
		<path fill="var(--illustration-success-color)" d="M28.88 33.51a2.87 2.87 0 010-4.07 2.88 2.88 0 014.07 0 2.86 2.86 0 010 4.07 2.89 2.89 0 01-2 .85 2.85 2.85 0 01-2.07-.85z"></path>
		<path d="M164.93 33.37a2.89 2.89 0 010-4.07 2.9 2.9 0 014.08 0 2.89 2.89 0 010 4.07 2.86 2.86 0 01-2 .85 2.85 2.85 0 01-2.08-.85z" fill="#fab617"></path>
		<path d="M38.07 24.93a2.87 2.87 0 01.51-4 2.89 2.89 0 014.05.52 2.87 2.87 0 01-.53 4 2.87 2.87 0 01-1.76.59 2.83 2.83 0 01-2.27-1.11z" fill="#39b37d"></path>
		<path d="M155.76 25.34a2.87 2.87 0 01-.53-4 2.89 2.89 0 014.05-.53 2.87 2.87 0 01.53 4 2.88 2.88 0 01-2.29 1.13 2.92 2.92 0 01-1.76-.6z" fill="#fbbb14"></path>
		<path d="M48.28 17.63a2.89 2.89 0 011-3.94 2.88 2.88 0 013.94 1 2.86 2.86 0 01-1 3.93 2.88 2.88 0 01-1.46.39 2.86 2.86 0 01-2.48-1.38z" fill="#44b37c"></path>
		<path d="M145.63 18.23a2.87 2.87 0 01-1.05-3.92 2.88 2.88 0 013.94-1.06 2.87 2.87 0 011.05 3.93 2.86 2.86 0 01-2.49 1.44 2.79 2.79 0 01-1.45-.39z" fill="#fcbe12"></path>
		<path d="M59.37 11.71a2.87 2.87 0 011.54-3.77 2.88 2.88 0 013.77 1.55 2.87 2.87 0 01-1.54 3.77 3.13 3.13 0 01-1.11.22 2.89 2.89 0 01-2.66-1.77z" fill="#59b577"></path>
		<path d="M134.69 13.18a2.88 2.88 0 01-1.56-3.77 2.89 2.89 0 013.77-1.55 2.88 2.88 0 011.56 3.76 2.89 2.89 0 01-2.66 1.78 2.85 2.85 0 01-1.11-.22z" fill="#fdc110"></path>
		<path d="M71.14 7.29a2.87 2.87 0 012-3.53 2.9 2.9 0 013.54 2 2.89 2.89 0 01-2 3.53 3.2 3.2 0 01-.75.09 2.87 2.87 0 01-2.79-2.09z" fill="#7bb86d"></path>
		<path d="M123.14 9.27a2.88 2.88 0 01-2-3.52 2.88 2.88 0 013.53-2 2.89 2.89 0 012 3.53 2.88 2.88 0 01-2.78 2.13 2.75 2.75 0 01-.75-.14z" fill="#fec30e"></path>
		<path d="M83.39 4.46a2.87 2.87 0 012.48-3.23 2.88 2.88 0 013.24 2.47 2.88 2.88 0 01-2.48 3.24 2.61 2.61 0 01-.39 0 2.88 2.88 0 01-2.85-2.48z" fill="#b0bd55"></path>
		<path d="M111.18 6.91a2.89 2.89 0 01-2.49-3.23 2.87 2.87 0 013.23-2.48 2.87 2.87 0 012.49 3.22 2.89 2.89 0 01-2.86 2.52 2.31 2.31 0 01-.37-.03z" fill="#ffc40d"></path>
		<path d="M98.89 5.76h-.09a2.88 2.88 0 01-2.89-2.87A2.87 2.87 0 0198.78 0H99a2.88 2.88 0 012.88 2.88A2.88 2.88 0 0199 5.76h-.12z" fill="#ffc50d"></path>
	</g>
</svg>
