<svg xmlns="http://www.w3.org/2000/svg" fill="none" viewBox="0 0 100 86">
	<circle cx="56" cy="43" r="40" fill="var(--illustrations-background-default, #262626)"/>
	<path fill="var(--illustrations-shape-secondary, #404040)" d="M66.975 41.914C62.307 33.874 56 23 56 23v39.984c.227 0 .463 0 .69-.016 7.135-.354 12.81-6.181 12.81-13.312 0-2.89-1.161-5.417-2.517-7.75z"/>
	<path fill="var(--illustrations-shape-primary, #595959)" fill-rule="evenodd" d="M45.016 41.921C49.692 33.881 56 23.008 56 23.008V63c-.235 0-.462-.008-.69-.016-7.135-.355-12.81-6.174-12.81-13.312 0-2.89 1.16-5.425 2.516-7.75" clip-rule="evenodd"/>
	<rect width="40.582" height="6.087" x="4" y="78.696" fill="var(--illustrations-accent-primary, #7c4dff)" rx="3" transform="rotate(-45 4 78.696)"/>
	<path fill="var(--illustrations-accent-secondary, #6933ff)" d="m6.152 80.848 28.696-28.696.03.031a3 3 0 0 1 0 4.243L10.427 80.879a3 3 0 0 1-4.243 0z"/>
	<rect width="40.582" height="6.087" fill="var(--illustrations-icon-primary, #e5e5e5)" rx="3" transform="rotate(-135 34.8 31.685)scale(1 -1)"/>
	<path fill="var(--illustrations-icon-secondary, #bfbfbf)" d="M34.85 80.848 6.154 52.152l-.03.031a3 3 0 0 0 0 4.243l24.452 24.453a3 3 0 0 0 4.243 0z"/>
</svg>
