<svg id="kv-no-data-available" xmlns="http://www.w3.org/2000/svg" fill="none" viewBox="0 0 100 87">
  <circle cx="56" cy="43.63" r="40" fill="#2A2A2A"/>
  <path fill="#3F3F3F" d="M66.975 42.543C62.307 34.503 56 23.63 56 23.63v39.984c.227 0 .463 0 .69-.016 7.135-.354 12.81-6.181 12.81-13.312 0-2.89-1.161-5.417-2.517-7.75l-.008.007Z"/>
  <path fill="#707070" fill-rule="evenodd" d="M45.016 42.551C49.692 34.511 56 23.638 56 23.638V63.63c-.235 0-.462-.008-.69-.017C48.175 63.26 42.5 57.442 42.5 50.303c0-2.89 1.16-5.425 2.516-7.75Z" clip-rule="evenodd"/>
  <rect width="40.582" height="6.087" x="4" y="79.326" fill="#8358FE" rx="3" transform="rotate(-45 4 79.326)"/>
  <path fill="#714ED3" d="m6.152 81.478 28.696-28.696.03.031a3 3 0 0 1 0 4.243L10.427 81.509a3 3 0 0 1-4.243 0l-.03-.031Z"/>
  <rect width="40.582" height="6.087" fill="#DDD" rx="3" transform="scale(-1 1) rotate(-45 77.254 84.328)"/>
  <path fill="#BEBEBE" d="M34.85 81.478 6.154 52.782l-.03.03a3 3 0 0 0 0 4.243l24.452 24.453a3 3 0 0 0 4.243 0l.03-.03Z"/>
</svg>
