<svg id="kv-no-results-found-light" fill="none" viewBox="0 0 100 87">
  <mask id="a" width="100" height="83" x="0" y="2" maskUnits="userSpaceOnUse" style="mask-type:alpha">
    <path fill="#D9D9D9" d="M0 2.62988h100v82H0z"/>
  </mask>
  <g mask="url(#a)">
    <circle cx="58.7683" cy="42.6299" r="40" fill="#3F3F3F"/>
    <mask id="b" width="81" height="81" x="18" y="2" maskUnits="userSpaceOnUse" style="mask-type:alpha">
      <circle cx="58.7683" cy="42.6299" r="40" fill="#202020"/>
    </mask>
    <g mask="url(#b)">
      <path fill="#202020" d="M85.3962 86.6862h3.6631L77.788 34.981h-4.3441L62.1726 86.6862h3.6632l1.5263-6.8925h16.5077l1.5264 6.8925ZM80.371 64.0825h-9.5336l1.8316-8.2849h5.847l1.8316 8.2849h.0234Zm-2.6534-11.998h-4.2033l2.0899-9.4452 2.0899 9.4452h.0235ZM68.184 76.1038l1.8315-8.2849h11.1774l1.8316 8.2849h-14.864.0235Z"/>
      <path stroke="#202020" stroke-width="4" d="m53.3816 22.3086 51.9614 30"/>
      <path fill="#2A2A2A" d="M75.6726 38.6299c1.9297 0 3.5-1.5704 3.5-3.5 0-1.9297-1.5703-3.5-3.5-3.5s-3.5 1.5703-3.5 3.5c0 1.9296 1.5703 3.5 3.5 3.5ZM49.1726 58.6299h-1c-.5523 0-1 .4477-1 1v5c0 .5523.4477 1 1 1h1c.5523 0 1-.4477 1-1v-5c0-.5523-.4477-1-1-1Z"/>
      <path fill="#2A2A2A" d="M49.1726 34.6299h-1v28h1v-28Z"/>
      <rect width="24" height="6" x="45.1726" y="34.4146" fill="#707070" rx="3" transform="rotate(-60 45.1726 34.4146)"/>
    </g>
    <path fill="#BEBEBE" d="m27.4629 66.6875 1.2950692-1.5434034 6.9453036 5.8278018-1.2950692 1.5434033z"/>
    <rect width="20.1477" height="6.0443" x="44.6875" y="83.7715" fill="#8358FE" rx="3" transform="rotate(-140 44.6875 83.7715)"/>
    <path fill="#714ED3" d="m46.6309 81.4565-15.434-12.9506c1.065-1.2693 2.9715-1.4518 4.2407-.3868l10.8377 9.094c1.2692 1.065 1.4206 2.9742.3556 4.2434Z"/>
    <path fill="#BEBEBE" fill-rule="evenodd" d="M27.9953 65.8294c4.9591-5.91 4.1882-14.721-1.7218-19.6801-5.9099-4.959-14.721-4.1881-19.68 1.7218-4.95904 5.91-4.18817 14.721 1.72178 19.6801 5.90992 4.959 14.72102 4.1881 19.68002-1.7218Zm1.6463 1.3814c5.722-6.8192 4.8325-16.9858-1.9866-22.7078-6.8192-5.7219-16.9858-4.8325-22.70779 1.9867C-.774759 53.3089.114703 63.4755 6.93388 69.1975 13.7531 74.9194 23.9197 74.03 29.6416 67.2108Z" clip-rule="evenodd"/>
    <path fill="#E5E5E5" fill-rule="evenodd" d="M26.3489 64.4487c4.1961-5.0007 3.5439-12.4562-1.4569-16.6523-5.0007-4.1962-12.4562-3.5439-16.65232 1.4568-4.19611 5.0008-3.54383 12.4563 1.45689 16.6524 5.00073 4.1961 12.45623 3.5438 16.65233-1.4569Zm1.6463 1.3814c4.9591-5.9099 4.1882-14.721-1.7218-19.68-5.9099-4.9591-14.721-4.1882-19.68001 1.7217-4.95904 5.91-4.18817 14.721 1.72178 19.6801 5.90993 4.959 14.72103 4.1882 19.68003-1.7218Z" clip-rule="evenodd"/>
  </g>
</svg>
