<svg xmlns="http://www.w3.org/2000/svg" fill="none" viewBox="0 0 220 160">
	<circle cx="109.858" cy="70.305" r="57.857" fill="var(--illustrations-background-default, #262626)"/>
	<path fill="var(--illustrations-shape-primary, #595959)" d="M106.556 56.144v25.22l-5.527-5.528c-1.382-1.382-3.685-1.382-5.067 0s-1.382 3.685 0 5.067l11.631 11.63c1.382 1.382 3.685 1.382 5.067 0l11.63-11.63c1.382-1.382 1.382-3.685 0-5.067s-3.685-1.382-5.066 0l-5.528 5.527V56.144a3.59 3.59 0 0 0-3.57-3.57 3.59 3.59 0 0 0-3.57 3.57M69.728 100.96v21.219c0 2.79-2.26 5.049-5.045 5.049H37.45a5.047 5.047 0 0 1-5.046-5.049V94.951c0-2.79 2.26-5.05 5.046-5.05h21.22l8.345 8.345z"/>
	<path fill="var(--illustrations-shape-secondary, #404040)" d="M69.588 100.96h-6.394a4.66 4.66 0 0 1-4.661-4.661V89.9l11.057 11.06zM50.13 112.158v21.219a5.046 5.046 0 0 1-5.045 5.049H17.853a5.047 5.047 0 0 1-5.046-5.049v-27.228c0-2.79 2.26-5.05 5.046-5.05h21.22l8.344 8.345z"/>
	<path fill="var(--illustrations-shape-tertiary, #1a1a1a)" d="M50.131 112.158h-6.394a4.66 4.66 0 0 1-4.66-4.661v-6.398l11.058 11.059z"/>
	<path fill="var(--illustrations-icon-primary, var(--illustrations-shape-strong, #e5e5e5))" d="M40.802 114.164H22.137a1.867 1.867 0 0 0 0 3.733H40.8a1.867 1.867 0 0 0 0-3.733"/>
	<path fill="var(--illustrations-icon-secondary, #bfbfbf)" d="M42.668 116.03H20.272c0 1.031.835 1.867 1.866 1.867h18.663a1.867 1.867 0 0 0 1.867-1.867"/>
	<path fill="var(--illustrations-icon-primary, var(--illustrations-shape-strong, #e5e5e5))" d="M41.268 121.629H21.671a1.4 1.4 0 0 0 0 2.8h19.597a1.4 1.4 0 0 0 0-2.8m0 6.533H21.671a1.4 1.4 0 1 0 0 2.799h19.597a1.4 1.4 0 1 0 0-2.799"/>
	<rect width="67.189" height="7.465" x="76.264" y="144.025" fill="var(--illustrations-icon-secondary, #bfbfbf)" rx="3.733"/>
	<rect width="39.193" height="7.465" x="76.264" y="144.025" fill="var(--illustrations-accent-primary, #7c4dff)" rx="3.733"/>
	<path fill="var(--illustrations-accent-secondary, #6933ff)" d="M76.264 147.758h39.193a3.733 3.733 0 0 1-3.733 3.733H79.996a3.733 3.733 0 0 1-3.732-3.733"/>
	<rect width="44.792" height="44.792" x="25.87" y="7.782" fill="var(--illustrations-accent-primary, #7c4dff)" rx="2.364"/>
	<g fill="var(--illustrations-accent-secondary, #6933ff)">
		<path d="m49.984 35.505 2.109 2.119c1.473-1.49 2.304-3.375 2.432-5.267a7.1 7.1 0 0 0-.364-2.803 6.4 6.4 0 0 0-1.524-2.448l-3.377-3.395-2.34-2.352-2.506-2.518a6.4 6.4 0 0 0-2.435-1.531c-1.344-.47-2.804-.497-4.2-.137a8.4 8.4 0 0 0-3.847 2.23c-1.482 1.492-2.319 3.384-2.446 5.284a7.1 7.1 0 0 0 .363 2.802 6.45 6.45 0 0 0 1.525 2.448l8.224 8.265a6.4 6.4 0 0 0 2.435 1.53c1.344.47 2.803.498 4.198.139q.706-.184 1.383-.5l-2.341-2.352a5 5 0 0 1-.65.09 4.1 4.1 0 0 1-1.61-.205 3.44 3.44 0 0 1-1.307-.82l-8.224-8.267a3.4 3.4 0 0 1-.816-1.314c-.257-.74-.29-1.61-.065-2.488a5.5 5.5 0 0 1 1.441-2.492c.982-.989 2.205-1.513 3.347-1.589a4.05 4.05 0 0 1 1.608.207c.493.173.93.443 1.309.819l2.134 2.146 2.11 2.12 3.979 4c.376.378.643.818.815 1.314.257.74.29 1.609.065 2.487a5.5 5.5 0 0 1-1.425 2.477"/>
		<path d="m46.549 25.226-2.11-2.12c-1.471 1.49-2.304 3.376-2.43 5.268a7.1 7.1 0 0 0 .364 2.803c.31.898.82 1.742 1.523 2.448l3.378 3.394 2.34 2.353 2.506 2.518a6.4 6.4 0 0 0 2.436 1.53c1.343.47 2.802.498 4.197.137a8.4 8.4 0 0 0 3.847-2.23c1.483-1.49 2.32-3.384 2.446-5.283a7.1 7.1 0 0 0-.364-2.803 6.45 6.45 0 0 0-1.523-2.447l-8.223-8.265a6.4 6.4 0 0 0-2.435-1.532c-1.344-.468-2.804-.497-4.199-.138a8 8 0 0 0-1.382.5l2.34 2.353q.329-.069.651-.09a4.1 4.1 0 0 1 1.61.206c.491.173.93.442 1.307.82l8.223 8.265c.376.379.644.819.816 1.314.257.74.289 1.61.063 2.488a5.5 5.5 0 0 1-1.438 2.493c-.983.988-2.206 1.512-3.347 1.587a4.05 4.05 0 0 1-1.609-.205 3.4 3.4 0 0 1-1.308-.82l-2.136-2.146-2.108-2.119-3.98-4a3.4 3.4 0 0 1-.814-1.314c-.258-.74-.29-1.61-.065-2.488a5.46 5.46 0 0 1 1.424-2.476z"/>
	</g>
	<path fill="var(--illustrations-shape-strong, #e5e5e5)" d="M173.551 48.367a5.3 5.3 0 0 0-3.121 1.014 8.52 8.52 0 0 0-7.847-5.205c-4.442 0-8.084 3.401-8.484 7.744a4.4 4.4 0 0 0-3.436-1.658 4.417 4.417 0 0 0-4.411 4.422 4.417 4.417 0 0 0 4.411 4.422h22.894c2.957 0 5.356-2.405 5.356-5.37 0-2.963-2.399-5.369-5.356-5.369zm16.199-12.771c.732 0 1.41.24 1.962.634a5.36 5.36 0 0 1 4.931-3.252 5.353 5.353 0 0 1 5.334 4.842 2.78 2.78 0 0 1 2.159-1.034 2.77 2.77 0 0 1 2.772 2.762 2.77 2.77 0 0 1-2.772 2.761h-14.392c-1.86 0-3.366-1.5-3.366-3.353a3.36 3.36 0 0 1 3.366-3.354zm-53.713-7.992c-.602 0-1.154.192-1.608.508-.669-1.53-2.222-2.6-4.039-2.6-2.283 0-4.154 1.704-4.363 3.874a2.3 2.3 0 0 0-1.768-.831c-1.251 0-2.27.992-2.27 2.211 0 1.22 1.019 2.212 2.27 2.212h11.771c1.522 0 2.756-1.202 2.756-2.684s-1.234-2.684-2.756-2.684z"/>
</svg>
