<svg id="kv-es-error-503-night"
	xmlns="http://www.w3.org/2000/svg" viewBox="0 0 1080 445">
	<g transform="translate(168 45)">
		<path fill="var(--illustration-color-light-90)" fill-rule="nonzero" d="M217.373 60.36h327.82c1.107 0 2.005.899 2.005 2.006v9.138h-331.83v-9.138c0-1.107.898-2.005 2.005-2.005z"/>
		<path fill="#CCD1D9" fill-rule="nonzero" d="M547.449 71.754H215.118v-9.388a2.259 2.259 0 0 1 2.255-2.256h327.82a2.259 2.259 0 0 1 2.256 2.256v9.388zm-331.83-.5h331.328v-8.888c0-.969-.785-1.754-1.754-1.754h-327.82c-.968 0-1.754.785-1.754 1.754v8.887z"/>
		<path fill="#FFF" fill-rule="nonzero" d="M215.368 71.504h331.83v237.594h-331.83z"/>
		<path fill="#CCD1D9" fill-rule="nonzero" d="M547.449 309.348H215.118V71.253h332.33v238.095zm-331.83-.5h331.328V71.753H215.62v237.093z"/>
		<path fill="#CCD1D9" fill-rule="nonzero" d="M272.677 80.301h23.128v6.341h-23.128z"/>
		<path fill="#FFF" fill-rule="nonzero" d="M273.514 114.256h265.559v8.135H273.514z"/>
		<path fill="#CCD1D9" fill-rule="nonzero" d="M539.348 122.642H273.263v-8.637h266.085v8.637zm-265.559-.502h265.058v-7.634H273.764l.025 7.634zM272.677 108.266h17.499v2.095h-17.499z"/>
		<path fill="#CCD1D9" fill-rule="nonzero" d="M481.233 117.278h17.499v2.095h-17.499zM418.576 117.278h17.499v2.095h-17.499zM360.932 117.278h17.499v2.095h-17.499zM276.221 117.278h17.499v2.095h-17.499zM273.549 265.163l-.441-14.035h.25l265.665-8.306.44 14.035h-.25l-265.664 8.306zm.075-13.534l.411 13.033 264.927-8.281-.41-13.033-264.928 8.281z"/>
		<path fill="#CCD1D9" fill-rule="nonzero" d="M275.993 255.192l40.747-1.222.087 2.902-40.746 1.223zM276.134 259.88l9.413-.283.066 2.196-9.414.282zM483.293 250.25l15.34-.48.069 2.194-15.34.48zM418.415 252.912l11.288-.339.066 2.196-11.288.338zM360.77 254.645l11.288-.338.066 2.195-11.288.339zM539.348 230.952H273.263v-14.035h266.085v14.035zm-265.559-.5h265.058v-13.033H273.764l.025 13.032z"/>
		<path fill="#CCD1D9" fill-rule="nonzero" d="M276.221 220.576h40.747v2.902h-40.747zM276.221 225.263h9.414v2.195h-9.414zM483.378 222.576h15.348v2.195h-15.348zM418.576 222.576h11.288v2.195h-11.288zM360.932 222.576h11.288v2.195h-11.288zM539.348 217.419H273.263v-14.036h266.085v14.036zm-265.559-.502h265.058v-13.032H273.764l.025 13.032z"/>
		<path fill="#CCD1D9" fill-rule="nonzero" d="M276.221 207.043h40.747v2.902h-40.747zM276.221 211.729h9.414v2.195h-9.414zM483.378 209.043h15.348v2.195h-15.348zM418.576 209.043h11.288v2.195h-11.288zM360.932 209.043h11.288v2.195h-11.288zM539.348 203.885H273.263V189.85h266.085v14.035zm-265.559-.502h265.058v-13.032H273.764l.025 13.032z"/>
		<path fill="#CCD1D9" fill-rule="nonzero" d="M276.221 193.509h40.747v2.902h-40.747zM276.221 198.195h9.414v2.195h-9.414zM483.378 195.509h15.348v2.195h-15.348zM418.576 195.509h11.288v2.195h-11.288zM360.932 195.509h11.288v2.195h-11.288zM539.348 190.35H273.263v-14.034h266.085v14.035zm-265.559-.5h265.058v-13.033H273.764l.025 13.033z"/>
		<path fill="#CCD1D9" fill-rule="nonzero" d="M276.221 179.975h40.747v2.902h-40.747zM276.221 184.662h9.414v2.195h-9.414zM483.378 181.975h15.348v2.195h-15.348zM418.576 181.975h11.288v2.195h-11.288zM360.932 181.975h11.288v2.195h-11.288zM539.348 176.817H273.263v-14.035h266.085v14.035zm-265.559-.501h265.058v-13.033H273.764l.025 13.033z"/>
		<path fill="#CCD1D9" fill-rule="nonzero" d="M276.221 166.441h40.747v2.902h-40.747zM276.221 171.128h9.414v2.195h-9.414zM483.378 168.441h15.348v2.195h-15.348zM418.576 168.441h11.288v2.195h-11.288zM360.932 168.441h11.288v2.195h-11.288zM539.348 163.283H273.263v-14.035h266.085v14.035zm-265.559-.501h265.058v-13.033H273.764l.025 13.033z"/>
		<path fill="#CCD1D9" fill-rule="nonzero" d="M276.221 152.907h40.747v2.902h-40.747zM276.221 157.594h9.414v2.195h-9.414zM483.378 154.907h15.348v2.195h-15.348zM418.576 154.907h11.288v2.195h-11.288zM360.932 154.907h11.288v2.195h-11.288zM539.348 149.75H273.263v-14.036h266.085v14.035zm-265.559-.502h265.058v-13.032H273.764l.025 13.032z"/>
		<path fill="#CCD1D9" fill-rule="nonzero" d="M276.221 139.373h40.747v2.902h-40.747zM276.221 144.06h9.414v2.195h-9.414zM483.378 141.373h15.348v2.195h-15.348zM418.576 141.373h11.288v2.195h-11.288zM360.932 141.373h11.288v2.195h-11.288zM539.348 136.216H273.263V122.18h266.085v14.036zm-265.559-.502h265.058v-13.032H273.764l.025 13.032z"/>
		<path fill="#CCD1D9" fill-rule="nonzero" d="M276.221 125.84h40.747v2.902h-40.747zM536.762 132.752h-6.937v-6.968h6.962l-.025 6.968zm-6.461-.501h5.96v-5.965h-5.935l-.025 5.965zM276.221 130.526h9.414v2.195h-9.414zM483.378 127.84h15.348v2.195h-15.348zM418.576 127.84h11.288v2.195h-11.288zM360.932 127.84h11.288v2.195h-11.288zM273.857 95.753l55.594 9.713-1.494 8.552-55.594-9.713zM273.519 294.416h15.208v2.902h-15.208zM306.391 299.158h-15.358v-6.426h15.358v6.426zm-14.857-.501h14.356v-5.424h-14.356v5.424zM321.85 299.158h-6.441v-6.426h6.44v6.426zm-5.94-.501h5.438v-5.424h-5.438v5.424zM314.33 299.158h-6.44v-6.426h6.44v6.426zm-5.939-.501h5.439v-5.424h-5.439v5.424z"/>
		<path fill="#CCD1D9" fill-rule="nonzero" d="M299.514 292.967h1v5.649h-1zM293.053 294.767h4.336v2.241h-4.336z"/>
		<path fill="#FFF" fill-rule="nonzero" d="M158.935 73.087l52.706-2.817 12.684 237.255-52.707 2.817z"/>
		<path fill="#CCD1D9" fill-rule="nonzero" d="M171.388 310.602v-.251L158.672 72.847h.25l52.958-2.832v.25l12.716 237.504h-.25l-52.958 2.833zM159.203 73.323l12.662 236.752 52.195-2.807L211.41 70.531l-52.206 2.792z"/>
		<path fill="#CCD1D9" fill-rule="nonzero" d="M168.798 150.728l38.041-2.034.16 3.003-38.04 2.034zM168.31 141.469l38.04-2.034.161 3.003-38.04 2.034zM167.811 132.215l38.041-2.033.16 3.003-38.04 2.033zM167.318 122.952l38.04-2.034.161 3.003-38.04 2.034zM166.819 113.693l38.04-2.034.161 3.004-38.04 2.033zM166.325 104.43l38.041-2.034.16 3.003-38.04 2.034zM165.832 95.17l38.04-2.033.161 3.003-38.04 2.034z"/>
		<circle cx="169.113" cy="83.574" r="4.01" fill="#CCD1D9" fill-rule="nonzero"/>
		<path fill="#CCD1D9" fill-rule="nonzero" d="M179.819 296.835l.21-.011a3.318 3.318 0 0 1 .354 6.627l-.21.011a3.318 3.318 0 0 1-.354-6.627zM186.166 298.31l20.196-1.08.161 3.004-20.197 1.08z"/>
		<path fill="#F6D3A8" fill-rule="nonzero" d="M278.195 238.266a1.504 1.504 0 0 0-.135-.146.24.24 0 0 0-.18-.08h-3.51a.24.24 0 0 0-.18.08.236.236 0 0 0-.07.186c.075 1.333.18 3.373.186 4.235a2.762 2.762 0 0 0-.792-.105c-1.068 0-2.346.426-2.747 1.63a.912.912 0 0 0 .035.756c.24.411.822.531 1.504.672 1.092.22 2.326.476 2.4 1.95.141 2.862-.33 3.223-3.413 5.569-1.077.822-1.564 1.604-1.443 2.325.15.918 1.223 1.369 1.468 1.459h.186l.47-.11 6.061-1.504h.05a.25.25 0 0 0 .156-.11.256.256 0 0 0 .03-.19l-.04-.161-1.093-4.371c.526-.436 2.656-2.23 4.43-4.01 2.046-2.005-2.495-7.138-3.373-8.075z"/>
		<path fill="var(--illustration-color-dark-55)" fill-rule="nonzero" d="M275.293 277.744c-.23-.396-1.453-2.792.867-5.348 2.697-2.977 3.925-7.519.597-11.028-2.391-2.506-4.07-4.045-4.772-4.666l-.471.11h-.186c-.245-.09-1.318-.541-1.468-1.459-.12-.721.366-1.503 1.443-2.325 3.083-2.346 3.554-2.707 3.414-5.57-.075-1.473-1.308-1.729-2.401-1.95-.682-.14-1.263-.26-1.504-.67a.912.912 0 0 1-.035-.758c.4-1.203 1.68-1.629 2.747-1.629.268-.003.534.032.792.105 0-.862-.11-2.902-.186-4.235a.236.236 0 0 1 .07-.186.24.24 0 0 1 .181-.08h3.509c.07 0 .137.03.185.08l.13.146c.326-.502 1.214-2.12.697-3.334-.29-.681-.962-1.112-2.005-1.278-7.017-1.123-12.03.391-14.872 4.511-4.802 6.933-3.007 11.87-2.952 12.076a.21.21 0 0 0 .05.085c.08.09 1.975 2.24-1.469 6.1a44.356 44.356 0 0 1-4.2 3.975c-2.477 2.14-5.013 4.356-7.093 7.91-3.454 5.97-2.29 13.103 2.892 17.794v8.667c0 .075 1.093 6.987 11.228 7.383h.923a28.822 28.822 0 0 0 3.037-.165c13.77-1.469 16.14-11.94 16.16-12.03.02-.09 1.605-8.516-5.308-12.23z"/>
		<path fill="#F6D3A8" fill-rule="nonzero" d="M331.278 260.226c-.882-.567-2.165-.03-2.215 0a.205.205 0 0 0-.055.035l-4.04 3.183-1.865.185s-.106 1.65-.08 3.509l.5.24 3.084 1.47.15.07a.25.25 0 0 1 .135.285v.075c.592-.536 5.243-4.852 5.173-7.383a1.92 1.92 0 0 0-.787-1.67z"/>
		<path fill="var(--illustration-color-light-80)" fill-rule="nonzero" d="M326.757 268.927l-.15-.07-3.083-1.469-.501-.24-.557-.266a.246.246 0 0 0-.22 0 .276.276 0 0 0-.136.17c-.636 3.008-4.772 8.096-9.524 8.878-2.867.471-4.19-1.003-7.077-4.236a79.489 79.489 0 0 0-7.263-7.313c-8.331-7.333-18.592-9.384-20-9.634l.04.16a.256.256 0 0 1-.03.19.25.25 0 0 1-.156.111h-.05l-6.591 1.604a47.233 47.233 0 0 1 5.303 4.546c3.328 3.484 2.1 8.02-.597 11.028-2.32 2.556-1.097 4.952-.867 5.348 6.887 3.715 5.349 12.146 5.329 12.23-.02.086-2.391 10.582-16.16 12.031a28.822 28.822 0 0 1-3.038.165h-.923l.471 5.429a.25.25 0 0 0 .251.226h36.857a.246.246 0 0 0 .19-.086.246.246 0 0 0 .06-.2l-4.861-31.67c2.476 2.206 12.942 11.088 20.616 10.808 3.61-.126 6.973-3.193 9.73-8.883a47.118 47.118 0 0 0 3.067-8.496v-.075a.25.25 0 0 0-.13-.286z"/>
		<path fill="#F6D3A8" fill-rule="nonzero" d="M287.845 394.175h-3.423l.71 2.873.492-.106 2.22-.476.502-.105v-2.186zM246.13 378.837l-1.614-1.79-.336-.375-2.39 2.41.31.397 1.384 1.744.31.396 2.672-2.406z"/>
		<path fill="#E6E9ED" fill-rule="nonzero" d="M298.32 307.529a.246.246 0 0 1-.06.2.246.246 0 0 1-.19.086h-35.72c-.06 2.19-.5 18.045-2.55 26.952-2.241 9.88-12.757 33.75-18.346 38.476a.254.254 0 0 0-.09.175.254.254 0 0 0 .065.186l2.751 3.058.336.376 1.614 1.794.336.371 1.544 1.714c.087.095.231.11.336.035.135-.095 13.464-9.904 22.471-28.35l9.795-28.196c1.348 2.05 7.142 11.529 7.268 23.288.15 13.725-1.79 38.04-5.68 46.116a.24.24 0 0 0 0 .245.25.25 0 0 0 .211.115h8.481a.25.25 0 0 0 .226-.135c.07-.135 7.218-14.035 9.824-36.657 2.607-22.621-2.561-49.558-2.621-49.85z"/>
		<path fill="#05070A" fill-rule="nonzero" d="M249.514 388.887a.256.256 0 0 0-.045-.09l-5.675-7.178-.31-.39-1.379-1.75-.31-.396-.417-.502a.25.25 0 0 0-.345-.045l-1.705 1.269a.25.25 0 0 0-.05.355l8.521 11.028a.26.26 0 0 0 .186.095h.135c.442.025.87-.16 1.153-.501.557-.697.25-1.85.24-1.895zM298.115 395.68c-.37-.803-1.539-1.038-1.584-1.048a.22.22 0 0 0-.1 0l-8.085 1.724v.17h-.501v-.035l-2.22.476.07.286-.502.12-.075-.3-1.469.31a.26.26 0 0 0-.195.291l.386 2.09c.01.068.048.128.105.166a.23.23 0 0 0 .14.04h.05l13.654-2.772a.25.25 0 0 0 .17-.12c.29-.409.349-.937.156-1.399z"/>
		<path fill="#1600D0" fill-rule="nonzero" d="M287.845 396.531h.5v-.17l-.5.105zM285.694 397.228l-.07-.286-.491.106.075.3zM527.74 298.952v-.17l-.502-.196v.366zM558.27 309.464a.591.591 0 0 1-.1.085v.135l.502-.065-.076-.451-.325.296z"/>
		<path fill="#05070A" fill-rule="nonzero" d="M552.612 240.672c-1.148-2.607-4.677-3.71-7.795-4.682a21.895 21.895 0 0 1-3.343-1.228 6.426 6.426 0 0 1-.752-.461 5.048 5.048 0 0 0-6.877.827 5.233 5.233 0 0 0 .44 7.103l.723.691c.1-.06.2-.125.305-.175l.16-.075h.036l.12.18c0 .025 1.93 2.767 4.045 2.767H540.06l-.105.33c-.557 1.82-1.87 6.853-1.243 8.307.065.195 1.453 4.3 6.611 4.035h.266v.456c1.629-.456 2.506-2.356 2.506-2.446l2.602-6.396c.18-.28 3.529-5.55 1.915-9.233z"/>
		<path fill="#1600D0" fill-rule="nonzero" d="M545.363 258.26h-.035l.096.502.205-.055v-.456z"/>
		<path fill="#F6D3A8" fill-rule="nonzero" d="M545.404 258.757l-.096-.501c-5.158.265-6.546-3.84-6.611-4.035-.627-1.454.686-6.487 1.243-8.306l.105-.331H539.66c-2.115 0-4.01-2.742-4.045-2.767l-.12-.18h-.035l-.16.075c-.106.05-.206.115-.307.175-1.132.687-1.884 1.97-2.225 3.835-.717 3.935.606 9.218 1.584 10.25 1.173 1.234 3.073.817 3.744.617l1.133 3.143h.085l.436-.035 5.344-.421.501-.04v-1.574l-.19.095zM515.9 334.246h-1.775l.13 1.303c.161-.06.321-.115.502-.16.344-.103.7-.16 1.058-.171h.24c.088.008.175.021.26.04l.101-1.002-.516-.01z"/>
		<path fill="var(--illustration-color-light-90)" fill-rule="nonzero" d="M560.401 319.89l-1.71-10.271-.5.065v-.135c-.918.777-7.96 6.541-14.752 6.842-6.16.27-14.572-2.972-15.74-7.404-1.002-3.83.045-9.93.06-9.99l.035-.2h-.035v.17h-.5v-.365l-12.03-4.667c-.031 0-3.304-1.233-5.68 2.33-2.3 3.45-1.003 7.986-.968 8.146l4.366 29.634.03.216h4.672v-.251c0-5.188.14-18.446.772-21.258 1.594 2.005 9.238 11.469 12.28 14.536 3.214 3.263 7.52 6.547 17.7 4.22.536-.125 1.048-.26 1.539-.405l.571-.17a23.624 23.624 0 0 0 3.118-1.239l.451-.225a17.278 17.278 0 0 0 4.351-3.148 7.434 7.434 0 0 0 1.97-6.431z"/>
		<path fill="#05070A" fill-rule="nonzero" d="M517.73 336.035a2.105 2.105 0 0 0-1.43-.777 2.005 2.005 0 0 0-.26-.04h-.25c-.359.011-.714.068-1.058.17-.166.046-.326.1-.501.16a12.29 12.29 0 0 0-3.444 2.241.707.707 0 0 0 .446 1.234l6.692.19a.246.246 0 0 0 .245-.2c.05-.076.406-1.87-.44-2.978z"/>
		<path fill="#F6D3A8" fill-rule="nonzero" d="M554.16 331.138l-.5.22-.973.416-.476.206.44.546c.116-.122.242-.234.377-.336.25-.183.535-.316.837-.39.09-.019.18-.032.27-.04.32-.03.643.016.943.135l-.918-.757z"/>
		<path fill="var(--illustration-color-light-80)" fill-rule="nonzero" d="M554.075 329.474l-.45.225c-1.01.486-2.051.9-3.119 1.238l-.571.17 1.443 1.224.828-.356.476-.206.972-.416.501-.22.732-.306-.812-1.353z"/>
		<path fill="#05070A" fill-rule="nonzero" d="M557.363 334.07c-.05-.085-1.002-1.684-2.3-2.175a2.055 2.055 0 0 0-.943-.136c-.09.009-.18.022-.27.04a2.391 2.391 0 0 0-.837.391c-.135.102-.26.214-.376.336a6.627 6.627 0 0 0-1.048 1.76 7.318 7.318 0 0 1-.862 1.534 3.9 3.9 0 0 1-1.88 1.162 1.89 1.89 0 0 0-1.338 1.805v.06c0 .139.112.25.25.25h6.331a.256.256 0 0 0 .21-.11l3.058-4.656a.266.266 0 0 0 .005-.26z"/>
		<path fill="#F6D3A8" fill-rule="nonzero" d="M498.747 257.73a.932.932 0 0 0-.812.09l-.321.195a.677.677 0 0 1-.887-.145 13.033 13.033 0 0 0-2.156-1.905c-1.002-.762-1.854-1.003-2.506-.717-.882.391-1.002 1.604-1.002 1.654v.06a6.406 6.406 0 0 0 5.539 5.79c.07-.163.156-.32.255-.466.214-.346.51-.634.862-.837a1.9 1.9 0 0 1 .466-.19c.164-.047.332-.073.502-.076l-.11-.672a.687.687 0 0 1 .225-.621l.256-.22a.947.947 0 0 0 .315-.708v-.35a.937.937 0 0 0-.626-.883z"/>
		<path fill="var(--illustration-color)" fill-rule="nonzero" d="M557.118 300.18a35.328 35.328 0 0 0-.647-2.005 29.323 29.323 0 0 1-1.77-7.985c-.35-4.761 1.715-10.31 1.735-10.36.075-.2 1.825-4.908-.501-11.97-2.326-7.063-10.025-7.59-10.156-7.594h-.165l-.501.04-5.344.42-.436.036h-.085a19.253 19.253 0 0 0-10.276 2.41 14.035 14.035 0 0 0-3.538 2.728c-.066.095-6.602 9.82-9.168 10.446-2.507.606-3.945-1.549-4.035-1.674l-12.386-13.243-.046-.046h-.055a2.927 2.927 0 0 0-1.067-.185c-.17.003-.338.029-.502.075a1.9 1.9 0 0 0-.466.19 2.471 2.471 0 0 0-.862.838c-.1.147-.185.303-.256.466a4.01 4.01 0 0 0-.24.692v.1l.055.085c.501.757 11.845 18.617 15.098 21.875 3.363 3.363 9.418.536 9.699.4l6.055-3.764v16.447l.501.195h.035l-.035.2c0 .06-1.072 6.16-.06 9.99 1.168 4.432 9.58 7.675 15.74 7.404 6.792-.3 13.834-6.065 14.751-6.842a.591.591 0 0 0 .1-.085l.342-.296.075.451c-.06-.32-.953-7.158-1.59-9.439z"/>
		<path fill="#1600D0" fill-rule="nonzero" d="M38.18 276.391l-.5-.085v.045c.1.302.22.598.355.887l.145-.847zM54.075 285.98c0 .07 0 .14-.035.21l.501.12c0-.084.035-.175.045-.26l-.51-.07zM42.461 261.213s.03-.08.09-.216l-.215-.1-.18-.09-.126.16v.036l.431.21z"/>
		<path fill="var(--illustration-color)" fill-rule="nonzero" d="M103.529 319.714l-8.321-27.604-.025-.05c-.401-.702-9.865-16.917-17.474-18.015-.1 0-.2-.04-.3-.05h-.201c-9.895-1.028-32.24-11.8-34.657-12.977-.06.135-.09.21-.09.215l-.466-.185v-.035c-.391.516-5.86 7.744-4.637 14.175.081.4.189.796.321 1.183v-.045l.501.085-.145.847a9.754 9.754 0 0 0 4.07 4.236 46.732 46.732 0 0 0 11.935 4.722c0-.07 0-.14.035-.211l.501.07c0 .085-.03.176-.045.26a73.183 73.183 0 0 0 13.439 2.006c.556.18 8.486 2.817 12.256 9.022 3.94 6.492 16.04 24.903 16.175 25.063l.05.055c.783.592 1.723.94 2.702 1.003l-.045-.156.501-.135.085.306a5.549 5.549 0 0 0 2.567-.807l-.116-.256.457-.205.08.18a2.506 2.506 0 0 0 .847-2.697z"/>
		<path fill="#F6D3A8" fill-rule="nonzero" d="M174.045 249.875c-.626-.857-2.12-1.58-3.72-1.8a4.772 4.772 0 0 0-3.628.737 21.158 21.158 0 0 0-3.414 3.549l.196.581.5 1.55.247.736c.12-.446.947-3.007 4.4-2.922 1.176.013 2.348.112 3.51.296.454.093.923.093 1.378 0 .436-.089.8-.39.967-.803.18-.37.226-1.017-.436-1.924z"/>
		<path fill="var(--illustration-color-light-80)" fill-rule="nonzero" d="M164.24 255.233l-.245-.737-.501-1.549-.196-.581-.245-.742-.21.035c-15.825 2.612-29.86-5.203-29.99-5.283-.131-.08-6.016-3.69-9.98-8.35-.116-.136-.231-.272-.342-.412a18.155 18.155 0 0 1-1.935-2.857 17.383 17.383 0 0 0-1.96-2.922c-.135-.166-.275-.331-.415-.502a23.323 23.323 0 0 0-4.928-4.18 24.561 24.561 0 0 0-2.17-1.248 14.787 14.787 0 0 0-1.359-.632c-.3-.18-7.553-4.286-33.508 5.72-13.534 5.228-22.136 13.107-26.953 18.796-5.012 5.92-7.102 10.767-7.278 11.198l.125-.16.18.09.216.1c2.416 1.178 24.762 11.95 34.657 12.978h.2c.1 0 .201.035.301.05 1.324-3.804 15.58-10.752 15.72-10.822.55-.25 13.483-6.12 15.97-7.674 2.13-1.328 3.568-4.552 4.01-5.68 4.616 5.013 12.686 7.189 18.701 8.141 4.08.636 8.207.923 12.336.857l20.15-2.536-.35-1.098z"/>
		<path fill="#F6D3A8" fill-rule="nonzero" d="M166.01 211.028v-4.296l-.22-.025a1.89 1.89 0 0 0-1.965.927c-1.163 1.86-.542 6.015.24 7.193.416.627.396.922.351 1.048a.32.32 0 0 1-.23.18l-.767.28v2.317a5.85 5.85 0 0 1 1.503.075c.12.015.24.024.361.025a2.06 2.06 0 0 0 2.035-1.76v-4.756l-1.308-1.208z"/>
		<path fill="var(--illustration-color-light-90)" fill-rule="nonzero" d="M163.409 218.632v-.502-1.278-.536c0-.361 0-.702.03-1.003v-.336l-30.737 7.81c-.04.185-.085.366-.13.551a44.762 44.762 0 0 1-2.006 5.855s-.967 2.662-3.383 2.662h-.22c-2.006-.126-6.783-.04-8.367 0 .751.905 1.408 1.884 1.96 2.922a18.155 18.155 0 0 0 1.935 2.857c.11.14.226.276.341.411l12.782-4.34 12.757-7.018c15.238-6.2 15.113-6.737 15.038-7.018a6.967 6.967 0 0 1 0-1.037z"/>
		<path fill="#F6D3A8" fill-rule="nonzero" d="M9.188 318.446a3.398 3.398 0 0 1-1.168-1.75 4.662 4.662 0 0 1-.21-1.187 4.511 4.511 0 0 1 0-.501c-.477.135-1.59.466-2.838.922l.17.501 1.134 3.153.165.471c1.77-.687 3.008-1.123 3.313-1.233a2.887 2.887 0 0 1-.566-.376z"/>
		<path fill="var(--illustration-color-dark-55)" fill-rule="nonzero" d="M54.04 286.216a46.732 46.732 0 0 1-11.935-4.722 9.754 9.754 0 0 1-4.065-4.256 8.401 8.401 0 0 1-.356-.887l-2.742 15.83c0 .03-.07 3.082-4.42 6.08-3.51 2.43-15.249 9.523-20.126 12.476a5.348 5.348 0 0 0-2.586 4.25c-.01.167-.01.335 0 .502.018.403.089.802.21 1.188a3.398 3.398 0 0 0 1.168 1.75c.176.13.366.241.566.33.332.142.684.228 1.043.256h.165c4.457 0 30.577-11.56 31.68-12.056l.08-.06c.105-.115 10.32-11.273 11.804-20.611l-.486-.07z"/>
		<path fill="#05070A" fill-rule="nonzero" d="M10.431 325.278c-1.002-.907-3.604-.812-4.23-.777-.502-.671-1.594-2.33-1.324-3.373.114-.394.417-.704.807-.827l.29-.116.467-.18-.165-.471-1.133-3.153-.17-.501-.472.175c-2.07.797-4.306 1.9-4.48 3.008-.201 1.293 1.162 4.541 2.34 7.017.471 1.003 1.464 2.166 2.697 2.166H8.47c.817-.03 2.361-.502 2.361-2.136-.015-.32-.16-.62-.4-.832z"/>
		<path fill="#1600D0" fill-rule="nonzero" d="M99.67 323.484l-.086-.306-.501.135.045.156c.097.005.194.005.29 0l.251.015z"/>
		<path fill="#F6D3A8" fill-rule="nonzero" d="M102.657 322.396c-.06.045-.11.09-.176.13l-.245.15a5.549 5.549 0 0 1-2.567.808h-.23a2.737 2.737 0 0 1-.291 0l.957 3.358v-.16l.396-.286 2.572-1.86.26-.19.12.035.11.03-.906-2.015z"/>
		<path fill="#1600D0" fill-rule="nonzero" d="M102.12 322.421l.116.256.245-.15c.065-.04.115-.086.176-.131l-.08-.18-.457.205z"/>
		<path fill="#05070A" fill-rule="nonzero" d="M113.343 328.627c-.3-1.73-7.985-.537-9.78-4.231l-.08-.175-.41.3-2.572 1.86-.43.31.034.136v3.258a1.283 1.283 0 0 0 1.278 1.278l9.314-.14h.08c.135-.055 2.832-1.043 2.566-2.596z"/>
		<path d="M130.531 215.539v-.436l.847.27c.474-.642.79-1.388.923-2.175A2.03 2.03 0 0 0 132 211.9a4.055 4.055 0 0 1-.401-2.852 2.612 2.612 0 0 0-.501-2.216c-.732-.812-2.005-.887-2.682-.857-1.444.06-1.66 1.033-2.135 4.095l-.13.847c-.191 1.208-.667 2.065-1.414 2.537a2.922 2.922 0 0 1-2.186.325l-.11-.035-.05-.11a1.754 1.754 0 0 0-1.103-.902c-.802-.206-1.8.13-2.972 1.002-2.276 1.695-2.005 3.203-1.674 4.807a7.86 7.86 0 0 1 .215 2.04c-.065.953-.3 1.504-.727 1.655-.376.08-.768-.041-1.032-.321l-.045-.065a1.8 1.8 0 0 0-1.183-.878 1.87 1.87 0 0 0-.236 0c-.621 0-1.323.376-2.09 1.118a2.276 2.276 0 0 0-.802 1.875c.13 1.373 1.619 2.561 2.095 2.912l5.489-4.32c-.22-.457-.697-1.63-.396-2.617a1.855 1.855 0 0 1 1.002-1.133c1.81-.907 3.51.832 3.895 1.293l.802-.06c.29-.762 1.63-4.01 3.439-4.15a9.524 9.524 0 0 1 3.624.235h-.05l-.11-.586z"/>
		<path fill="#00BFF8" fill-rule="nonzero" d="M131.378 215.373l-.847-.27v.436l.1.541h.05l.121.035c.205-.236.398-.484.576-.742z"/>
		<path fill="#F6D3A8" fill-rule="nonzero" d="M133.113 219.138a3.248 3.248 0 0 0-1.77-2.767l-.661-.27a9.524 9.524 0 0 0-3.624-.236c-1.81.15-3.148 3.388-3.439 4.15l-.802.06c-.401-.461-2.085-2.2-3.895-1.293-.48.218-.844.63-1.002 1.133-.301 1.002.175 2.16.396 2.616l-5.409 4.271-.085.075.446.28a23.323 23.323 0 0 1 4.927 4.181c.14.16.281.326.417.502 1.583-.035 6.375-.12 8.365 0h.221c2.416 0 3.378-2.647 3.383-2.662a44.762 44.762 0 0 0 2.005-5.855c.046-.185.09-.366.13-.551a12.34 12.34 0 0 0 .397-3.634z"/>
		<path fill="#05070A" fill-rule="nonzero" d="M132.446 211.67c-.28-.542-.566-1.104-.35-2.552a3.073 3.073 0 0 0-.622-2.622c-.647-.717-1.745-1.077-3.073-1.002-1.925.08-2.165 1.659-2.607 4.511l-.135.847c-.165 1.058-.566 1.795-1.178 2.186-.507.3-1.106.403-1.684.29a2.276 2.276 0 0 0-1.368-1.067c-.953-.251-2.1.11-3.404 1.082-2.531 1.885-2.195 3.624-1.87 5.309.15.625.218 1.267.206 1.91-.07 1.002-.326 1.187-.401 1.217-.075.03-.371-.09-.501-.185a2.31 2.31 0 0 0-1.504-1.103c-.847-.135-1.775.28-2.757 1.233a2.752 2.752 0 0 0-.957 2.286c.1.705.4 1.368.862 1.91.43.215.942.501 1.504.837l.215.13.085-.075 5.419-4.256c-.22-.456-.697-1.629-.396-2.616a1.855 1.855 0 0 1 1.002-1.133c1.81-.907 3.51.832 3.895 1.293l.802-.06c.29-.762 1.63-4.01 3.439-4.15a9.283 9.283 0 0 1 3.744.27l-.12-.035.661.271-.055-.03c.209-.265.403-.541.582-.827.478-.679.792-1.46.917-2.28a2.536 2.536 0 0 0-.35-1.59z"/>
		<path fill="#DE350B" fill-rule="nonzero" d="M398.662 9.023a20.767 20.767 0 0 1-.702-2.211C397.038 3.509 396.085.06 388.972 0h-.245c-7.72 0-10.08 2.977-10.486 3.594-1.504.26-5.228.637-6.251-.501-1.424-1.564-8.16-4.692-13.394-.502-4.761 3.815-5.087 7.158-5.102 7.8l-1.815 2.065c-1.143.336-12.972 3.98-14.591 10.32-1.92 7.52 1.74 11.029 5.148 12.648a9.609 9.609 0 0 0 4.115.792 23.87 23.87 0 0 0 7.268-1.329.236.236 0 0 0 .135-.115v-.03c.166-.29 2.507-4.547 3.51-6.862 1.002-2.316 8.07-9.153 8.52-9.574l5.068-3.043 5.64.065 2.927 1.379v-.16a.246.246 0 0 1 .235-.251h.06l7.584-.502a.802.802 0 0 0 .607-.335c.215-.336.15-.923-.18-1.695-.437-1.002-.502-1.81-.231-2.37.144-.302.407-.53.727-.627a.25.25 0 0 1 .26.095l1.865 2.506 2.451-3.007a.246.246 0 0 1 .16-.09c.056 0 1.359-.166 2.16.536.334.322.53.76.547 1.223v.23c0 .08 0 .126-.055.271.612.04 2.256.055 3.008-.912.48-.632.496-1.504.045-2.596z"/>
		<path fill="#F6D3A8" fill-rule="nonzero" d="M395.664 12.03a1.79 1.79 0 0 0-.576-1.223c-.802-.702-2.106-.541-2.16-.536a.246.246 0 0 0-.161.09l-2.451 3.007-1.865-2.506a.25.25 0 0 0-.26-.095c-.318.099-.58.326-.722.626-.281.562-.206 1.364.23 2.371.331.772.396 1.359.18 1.695a.802.802 0 0 1-.606.335l-7.584.502h-.06a.246.246 0 0 0-.236.25v.16c.046 2.056.622 3.51 1.72 4.387a4.055 4.055 0 0 0 2.506.792 5.078 5.078 0 0 0 1.028-.106.26.26 0 0 0 .15-.11l.105-.155 1.409-2.18c.772.105 4.01.5 5.945-.03 2.005-.567 3.132-5.55 3.378-6.793.03-.145.05-.24.055-.27.005-.03-.02-.15-.025-.21z"/>
		<path fill="#1600D0" fill-rule="nonzero" d="M350.922 56.852v.005-.005z"/>
		<path fill="var(--illustration-color-dark-55)" fill-rule="nonzero" d="M405.835 58.416c-.13-.16-3.409-4.04-19.093-7.048a7.123 7.123 0 0 1-3.078-1.584c-1.544-1.258-3.654-3.769-4.952-8.601a.371.371 0 0 1 0-.07c-.075-.28-.15-.567-.22-.847a79.83 79.83 0 0 1-2.342-17.248c0-.146-.5-3.56-2.666-5.153a4.105 4.105 0 0 0-3.203-.737c-.096 0-2.707.501-2.742 4.09-.04 4.226 1.002 20.882 4.867 26.33l.26.377c1.86 2.641 3.103 4.406 5.073 5.544.206.12.421.23.647.336 1.91.902 4.511 1.328 8.772 1.448 9.428.27 15.037 3.509 15.078 3.539.03.004.06.004.09 0h3.333a.25.25 0 0 0 .196-.411l-.02.035z"/>
		<path fill="#1600D0" fill-rule="nonzero" d="M391.564 108.075l-.07-.035z"/>
		<path fill="#F6D3A8" fill-rule="nonzero" d="M392.12 105.764l-1.784-1.137-.441-.281-.572 2.06.461.226 1.845.912.461.23.476-1.729zM385.133 125.148c-.16.07-.321.13-.501.19-.614.241-1.253.41-1.905.502-.176 0-.346.035-.501.04l.957 3.273.461-.206 1.504-.676.471-.21-.486-2.913z"/>
		<path fill="#05070A" fill-rule="nonzero" d="M410.947 66.476c-2.396-4.887-5.323-6.862-7.062-7.649h-1.58a.306.306 0 0 1-.09 0c-.055-.035-5.649-3.268-15.077-3.539-4.26-.12-6.862-.546-8.772-1.448-10.421 3.052-17.343 3.8-21.614 3.8a22.14 22.14 0 0 1-4.958-.457 5.835 5.835 0 0 1-.766-.216.256.256 0 0 1-.106-.075l16.657 21.013c.08.1 8.431 10.145 9.794 15.398l.822 29.77a.25.25 0 0 0 0 .06 3.945 3.945 0 0 0 2.216 2.481c.52.207 1.075.31 1.634.306h.186c.165 0 .335 0 .5-.04a8.441 8.441 0 0 0 1.906-.502c.155-.06.315-.12.5-.19a17.043 17.043 0 0 0 1.916-1.003.256.256 0 0 0 .12-.22l-.206-29.875c0-.085 1.188-8.676-2.506-15.81a43.173 43.173 0 0 1-4.326-12.16c1.945-.21 14.411-1.298 17.479 4.837 3.328 6.657-2.13 15.324-2.185 15.409a.466.466 0 0 0-.025.05l-6.316 17.168a.25.25 0 0 0 .1.296l.732.466.44.28 1.785 1.138.446.281 1.128.717a.246.246 0 0 0 .346-.075l12.501-19.51a48.797 48.797 0 0 0 3.56-7.518c2.05-5.674 2.335-10.1.821-13.183zM395.68 128.902c-.271-.075-6.693-1.794-9.645-1.002l-.38.17-.472.21-1.504.677-.461.206-.867.386a.24.24 0 0 0-.135.145.236.236 0 0 0 0 .2l.957 1.855a.26.26 0 0 0 .225.136h.05l12.221-2.476a.25.25 0 1 0 0-.502l.01-.005z"/>
		<path fill="#05070A" fill-rule="nonzero" d="M400.105 114.496a10.401 10.401 0 0 0-4.366-4.797 109.459 109.459 0 0 0-3.649-1.925l-.46-.23-1.846-.912-.46-.226-.878-.421a.246.246 0 0 0-.346.145l-.631 1.915a.25.25 0 0 0 .12.296l12.165 6.446c.038.02.079.03.12.03a.23.23 0 0 0 .166-.065.24.24 0 0 0 .065-.256zm-8.626-6.44l.07.034-.07-.035z"/>
		<path fill="var(--illustration-color-dark-55)" fill-rule="nonzero" d="M418.21 59.82l-33.313-38.301-.105.155a.26.26 0 0 1-.15.11c-.14.031-.28.055-.421.07l-2.742 8.778.716.666L413.63 59.82h4.582z"/>
		<path fill="var(--illustration-color)" fill-rule="nonzero" d="M384.22 21.855a5.078 5.078 0 0 1-.606.035 4.055 4.055 0 0 1-2.506-.792c-1.098-.852-1.674-2.331-1.72-4.386l-2.927-1.379-5.639-.065-5.068 3.043c-.436.42-7.518 7.308-8.52 9.574-1.003 2.265-3.334 6.571-3.51 6.862v.03a.236.236 0 0 1-.135.115c-.035 0-.19.07-.441.15-.622 2.467-3.509 14.567-2.29 21.7a.22.22 0 0 0 .05.11c.027.034.064.06.105.075.25.09.506.162.766.216 1.63.338 3.293.49 4.958.456 4.27 0 11.193-.747 21.614-3.8a7.838 7.838 0 0 1-.647-.335c-1.97-1.138-3.213-2.903-5.072-5.544l-.261-.376c-3.845-5.449-4.907-22.105-4.867-26.331.035-3.604 2.646-4.075 2.742-4.09a4.105 4.105 0 0 1 3.203.737c2.15 1.594 2.646 5.012 2.666 5.153a79.83 79.83 0 0 0 2.341 17.248c.07.28.146.566.22.847a.37.37 0 0 0 0 .07l2.702-8.662.472-1.503.31.28-.716-.666 2.777-8.772z"/>
		<path fill="#FFF" fill-rule="nonzero" d="M402.421 51.404h27.554v8.682h-27.554z"/>
		<path fill="#CCD1D9" fill-rule="nonzero" d="M430.226 60.336h-28.07v-9.183h28.07v9.183zm-27.57-.501h27.068v-8.18h-27.067v8.18z"/>
		<path fill="#CCD1D9" fill-rule="nonzero" d="M405.95 54.276h20.491v2.867H405.95z"/>
	</g>
</svg>
