<svg xmlns="http://www.w3.org/2000/svg" fill="none" viewBox="0 0 100 86">
	<circle cx="57.422" cy="43" r="40" fill="var(--illustrations-background, var(--color-gray-800, #262626))"/>
	<mask id="a" width="81" height="80" x="17" y="3" maskUnits="userSpaceOnUse" style="mask-type:alpha">
		<circle cx="57.422" cy="43" r="40" fill="var(--illustrations-background, var(--color-gray-800, #262626))"/>
	</mask>
	<g mask="url(#a)">
		<path fill="var(--illustrations-shape-secondary, #404040)" d="M111.422 43h-103v13h103z"/>
		<path fill="var(--illustrations-shape-secondary, #404040)" d="M77.422 42h-23v15h23z"/>
		<rect width="3" height="17" x="53.422" y="41" fill="var(--illustrations-shape-tertiary, #1a1a1a)" rx="1.5"/>
		<rect width="3" height="17" x="75.422" y="41" fill="var(--illustrations-shape-tertiary, #1a1a1a)" rx="1.5"/>
		<path fill="var(--illustrations-shape-tertiary, #1a1a1a)" d="M67.319 40.504 76.823 31l-1.415-1.414-9.503 9.503z"/>
		<path fill="var(--illustrations-shape-tertiary, #1a1a1a)" d="M64.525 40.504 55.022 31l1.414-1.414 9.503 9.503z"/>
		<path fill="var(--illustrations-shape-tertiary, #1a1a1a)" d="M67.422 40v-9h-3v9z"/>
		<path fill="var(--illustrations-shape-tertiary, #1a1a1a)" d="M70.422 39h-9v3h9z"/>
		<rect width="29" height="4" x="51.422" y="29" fill="var(--illustrations-shape-primary, #595959)" rx="2"/>
	</g>
	<rect width="14" height="6" x="15.59" y="77" fill="var(--illustrations-icon-primary, #e5e5e5)" rx="3"/>
	<path fill="var(--illustrations-icon-secondary, #bfbfbf)" d="M15.59 80h14a3 3 0 0 1-3 3h-8a3 3 0 0 1-3-3"/>
	<rect width="28" height="6" x="8.59" y="65" fill="var(--illustrations-accent-primary, #7c4dff)" rx="3"/>
	<path fill="var(--illustrations-accent-secondary, #6933ff)" d="M8.59 68h28a3 3 0 0 1-3 3h-22a3 3 0 0 1-3-3"/>
	<rect width="40" height="6" x="2.59" y="53" fill="var(--illustrations-icon-primary, #e5e5e5)" rx="3"/>
	<path fill="var(--illustrations-icon-secondary, #bfbfbf)" d="M2.59 56h40a3 3 0 0 1-3 3h-34a3 3 0 0 1-3-3"/>
</svg>
