<svg width="0" height="0"
	xmlns="http://www.w3.org/2000/svg"
	xmlns:xlink="http://www.w3.org/1999/xlink">
	<symbol id="kv-datalabel" viewBox="0 0 24 24"
		xmlns="http://www.w3.org/2000/svg">
		<path
			d="M21.41 11.58l-9-9C12.05 2.22 11.55 2 11 2H4c-1.1 0-2 .9-2 2v7c0 .55.22 1.05.59 1.42l9 9c.36.36.86.58 1.41.58.55 0 1.05-.22 1.41-.59l7-7c.37-.36.59-.86.59-1.41 0-.55-.23-1.06-.59-1.42zM5.5 7C4.67 7 4 6.33 4 5.5S4.67 4 5.5 4 7 4.67 7 5.5 6.33 7 5.5 7z" />
	</symbol>

	<symbol id="kv-add"
		xmlns="http://www.w3.org/2000/svg" viewBox="0 0 24 24">
		<path d="M19 13h-6v6h-2v-6H5v-2h6V5h2v6h6z" />
	</symbol>

	<symbol id="kv-minus"
		xmlns="http://www.w3.org/2000/svg" viewBox="0 0 24 24">
		<path d="M19 13H5v-2h14z" />
	</symbol>

	<symbol id="kv-eye"
		xmlns="http://www.w3.org/2000/svg" viewBox="0 0 24 24">
		<path
			d="M12 5C7 5 2.73 8.11 1 12.5 2.73 16.89 7 20 12 20s9.27-3.11 11-7.5C21.27 8.11 17 5 12 5zm0 12.5c-2.76 0-5-2.24-5-5s2.24-5 5-5 5 2.24 5 5-2.24 5-5 5zm0-8c-1.66 0-3 1.34-3 3s1.34 3 3 3 3-1.34 3-3-1.34-3-3-3z" />
	</symbol>

	<symbol id="kv-eye-closed"
		xmlns="http://www.w3.org/2000/svg" viewBox="0 0 24 24">
		<path
			d="M12.005 7.5a5.003 5.003 0 015.002 5c0 .65-.13 1.26-.36 1.83l2.921 2.92A11.803 11.803 0 0023 12.5C21.27 8.11 16.997 5 11.995 5c-1.4 0-2.741.25-3.982.7l2.161 2.16c.57-.23 1.18-.36 1.831-.36zM2 4.77l2.281 2.28.46.46A11.83 11.83 0 001 12.5C2.73 16.89 7.003 20 12.005 20c1.55 0 3.031-.3 4.382-.84l.42.42 2.932 2.92 1.27-1.27L3.271 3.5l-1.27 1.27zm5.533 5.53l1.55 1.55c-.05.21-.08.43-.08.65 0 1.66 1.341 3 3.002 3 .22 0 .44-.03.65-.08l1.551 1.55c-.67.33-1.41.53-2.201.53a5.003 5.003 0 01-5.002-5c0-.79.2-1.53.53-2.2zm4.312-.78l3.151 3.15.02-.16c0-1.66-1.34-3-3.001-3l-.17.01z" />
	</symbol>

	<symbol id="kv-asset"
		xmlns="http://www.w3.org/2000/svg" viewBox="0 0 24 24">
		<path
			d="M4 14.473v4.392A1.16 1.16 0 0 0 5.176 20h13.648A1.16 1.16 0 0 0 20 18.865v-4.392H4zM19.264 6.4h-2.072V5.154A1.168 1.168 0 0 0 16 4h-1.6a1.168 1.168 0 0 0-1.192 1.152V6.4h-2.4V5.153A1.168 1.168 0 0 0 9.6 4H8a1.168 1.168 0 0 0-1.192 1.152V6.4H4.736c-.427.16-.717.56-.736 1.016v4.456h16V7.417a1.136 1.136 0 0 0-.736-1.016z" />
	</symbol>

	<symbol id="kv-alert" viewBox="0 0 24 24"
		xmlns="http://www.w3.org/2000/svg">
		<path
			d="M8.317 5.4L7.125 4.208a8.685 8.685 0 00-3.433 6.542h1.666A7.039 7.039 0 018.317 5.4zm10.325 5.35h1.666a8.74 8.74 0 00-3.433-6.542L15.692 5.4a7.08 7.08 0 012.95 5.35zM17 11.167c0-2.559-1.367-4.7-3.75-5.267v-.567c0-.691-.558-1.25-1.25-1.25s-1.25.559-1.25 1.25V5.9C8.358 6.467 7 8.6 7 11.167v4.166L5.333 17v.833h13.334V17L17 15.333v-4.166zm-5 9.166c.117 0 .225-.008.333-.033a1.69 1.69 0 001.2-.983c.084-.2.125-.417.125-.65h-3.333c.008.916.75 1.666 1.675 1.666z" />
	</symbol>

	<symbol id="kv-datastreams"
		xmlns="http://www.w3.org/2000/svg" viewBox="0 0 20 20">
		<path
			d="M15.833 2.5H4.167C3.25 2.5 2.5 3.25 2.5 4.167v11.666c0 .917.75 1.667 1.667 1.667h11.666c.917 0 1.667-.75 1.667-1.667V4.167c0-.917-.75-1.667-1.667-1.667zM7.5 14.167H5.833V8.333H7.5v5.834zm3.333 0H9.167V5.833h1.666v8.334zm3.334 0H12.5v-3.334h1.667v3.334z" />
	</symbol>

	<symbol id="kv-arrow-drop-down"
		xmlns="http://www.w3.org/2000/svg" viewBox="0 0 24 24">
		<path d="M7 10l5 5 5-5z" />
	</symbol>

	<symbol id="kv-arrow-drop-up"
		xmlns="http://www.w3.org/2000/svg" viewBox="0 0 24 24">
		<path d="M7 14l5-5 5 5z" />
	</symbol>

	<symbol id="kv-close"
		xmlns="http://www.w3.org/2000/svg" viewBox="0 0 24 24">
		<path
			d="M19 6.41L17.59 5 12 10.59 6.41 5 5 6.41 10.59 12 5 17.59 6.41 19 12 13.41 17.59 19 19 17.59 13.41 12z" />
	</symbol>

	<symbol id="kv-delete"
		xmlns="http://www.w3.org/2000/svg" viewBox="0 0 24 24">
		<path
			d="M7 21C6.45 21 5.97933 20.8043 5.588 20.413C5.196 20.021 5 19.55 5 19V6H4V4H9V3H15V4H20V6H19V19C19 19.55 18.8043 20.021 18.413 20.413C18.021 20.8043 17.55 21 17 21H7ZM9 17H11V8H9V17ZM13 17H15V8H13V17Z" />
	</symbol>

	<symbol id="kv-done-all"
		xmlns="http://www.w3.org/2000/svg" viewBox="0 0 24 24">
		<path d="M9 16.17 4.83 12l-1.42 1.41L9 19 21 7l-1.41-1.41z" />
	</symbol>

	<symbol id="kv-edit"
		xmlns="http://www.w3.org/2000/svg" viewBox="0 0 24 24">
		<path
			d="M3 17.253v3.75h3.75l11.06-11.06-3.75-3.75L3 17.253zm17.71-10.21a.996.996 0 0 0 0-1.41l-2.34-2.34a.996.996 0 0 0-1.41 0l-1.83 1.83 3.75 3.75 1.83-1.83z" />
	</symbol>

	<symbol id="kv-layer"
		xmlns="http://www.w3.org/2000/svg" viewBox="0 0 24 24">
		<path
			d="M11.99,18.54 L4.62,12.81 L3,14.07 L12,21.07 L21,14.07 L19.37,12.8 L11.99,18.54 Z M12,16 L19.36,10.27 L21,9 L12,2 L3,9 L4.63,10.27 L12,16 Z" />
	</symbol>

	<symbol id="kv-logo-kelvin"
		xmlns="http://www.w3.org/2000/svg" viewBox="0 0 40 40">
		<path
			d="M20 0.519478C9.25714 0.519478 0.519478 9.25844 0.519478 20C0.519478 30.7416 9.25714 39.4805 20 39.4805C30.7429 39.4805 39.4805 30.7416 39.4805 20C39.4805 9.25844 30.7429 0.519478 20 0.519478ZM20 38.1377C10 38.1377 1.86233 30 1.86233 20C1.86233 10 10 1.86233 20 1.86233C30 1.86233 38.1364 10 38.1364 20C38.1364 30 30 38.1377 20 38.1377ZM28.9506 10.8442L19.7857 20L28.9506 29.1545H27.1701L18.1169 20.2805V29.1545H16.7026V10.8442H18.1169V19.7156L26.9961 10.8442H28.9506ZM12.7662 11.4935C12.7659 11.7723 12.6549 12.0395 12.4577 12.2365C12.2604 12.4335 11.9931 12.5442 11.7143 12.5442C11.5729 12.5491 11.432 12.5256 11.3 12.4749C11.168 12.4242 11.0475 12.3475 10.9457 12.2493C10.844 12.151 10.7631 12.0333 10.7078 11.9031C10.6525 11.773 10.6241 11.633 10.6241 11.4916C10.6241 11.3501 10.6525 11.2101 10.7078 11.08C10.7631 10.9498 10.844 10.8321 10.9457 10.7338C11.0475 10.6356 11.168 10.5589 11.3 10.5082C11.432 10.4575 11.5729 10.434 11.7143 10.439C11.853 10.4393 11.9903 10.467 12.1182 10.5205C12.2462 10.5739 12.3624 10.6521 12.4601 10.7506C12.5578 10.849 12.6352 10.9658 12.6877 11.0941C12.7402 11.2225 12.7669 11.36 12.7662 11.4987V11.4935ZM36.6026 2.25324V0.909088H37.0857V0.519478H35.6701V0.909088H36.1558V2.25324H36.6026ZM37.9597 2.25324V1.08441L38.3961 2.25324H38.5948L39.0338 1.08441V2.25324H39.4805V0.519478H38.8597L38.4961 1.5013L38.1338 0.519478H37.513V2.25324H37.9597Z" />
	</symbol>

	<symbol id="kv-more"
		xmlns="http://www.w3.org/2000/svg" viewBox="0 0 24 24">
		<path
			d="M6 10c-1.1 0-2 .9-2 2s.9 2 2 2 2-.9 2-2-.9-2-2-2zm12 0c-1.1 0-2 .9-2 2s.9 2 2 2 2-.9 2-2-.9-2-2-2zm-6 0c-1.1 0-2 .9-2 2s.9 2 2 2 2-.9 2-2-.9-2-2-2z" />
	</symbol>

	<symbol id="kv-save"
		xmlns="http://www.w3.org/2000/svg" viewBox="0 0 24 24">
		<path
			d="M17 3H5a2 2 0 0 0-2 2v14a2 2 0 0 0 2 2h14c1.1 0 2-.9 2-2V7l-4-4zm-5 16c-1.66 0-3-1.34-3-3s1.34-3 3-3 3 1.34 3 3-1.34 3-3 3zm3-10H5V5h10v4z" />
	</symbol>

	<symbol id="kv-search"
		xmlns="http://www.w3.org/2000/svg" viewBox="0 0 24 24">
		<path
			d="M15.5 14h-.79l-.28-.27A6.471 6.471 0 0 0 16 9.5 6.5 6.5 0 1 0 9.5 16c1.61 0 3.09-.59 4.23-1.57l.27.28v.79l5 4.99L20.49 19l-4.99-5zm-6 0C7.01 14 5 11.99 5 9.5S7.01 5 9.5 5 14 7.01 14 9.5 11.99 14 9.5 14z" />
	</symbol>

	<symbol id="kv-application"
		xmlns="http://www.w3.org/2000/svg" viewBox="0 0 24 24">
		<path
			d="M7.04 15.96a1 1 0 0 1 1 1V20a1 1 0 0 1-1 1H4a1 1 0 0 1-1-1v-3.04a1 1 0 0 1 1-1h3.04zm12.96 0a1 1 0 0 1 1 1V20a1 1 0 0 1-1 1h-3.04a1 1 0 0 1-1-1v-3.04a1 1 0 0 1 1-1H20zm-6.48 0a1 1 0 0 1 1 1V20a1 1 0 0 1-1 1h-3.04a1 1 0 0 1-1-1v-3.04a1 1 0 0 1 1-1h3.04zM7.04 9.48a1 1 0 0 1 1 1v3.04a1 1 0 0 1-1 1H4a1 1 0 0 1-1-1v-3.04a1 1 0 0 1 1-1h3.04zm12.96 0a1 1 0 0 1 1 1v3.04a1 1 0 0 1-1 1h-3.04a1 1 0 0 1-1-1v-3.04a1 1 0 0 1 1-1H20zm-6.48 0a1 1 0 0 1 1 1v3.04a1 1 0 0 1-1 1h-3.04a1 1 0 0 1-1-1v-3.04a1 1 0 0 1 1-1h3.04zM7.04 3a1 1 0 0 1 1 1v3.04a1 1 0 0 1-1 1H4a1 1 0 0 1-1-1V4a1 1 0 0 1 1-1h3.04zM20 3a1 1 0 0 1 1 1v3.04a1 1 0 0 1-1 1h-3.04a1 1 0 0 1-1-1V4a1 1 0 0 1 1-1H20zm-6.48 0a1 1 0 0 1 1 1v3.04a1 1 0 0 1-1 1h-3.04a1 1 0 0 1-1-1V4a1 1 0 0 1 1-1h3.04z" />
	</symbol>

	<symbol id="kv-align-bottom"
		xmlns="http://www.w3.org/2000/svg" viewBox="0 0 24 24">
		<path d="M4 21v-2h16v2H4Zm8-4-5-5 1.4-1.4 2.6 2.6V3h2v10.2l2.6-2.6L17 12l-5 5Z" />
	</symbol>

	<symbol id="kv-align-top"
		xmlns="http://www.w3.org/2000/svg" viewBox="0 0 24 24">
		<path d="M11 21V10.8l-2.6 2.6L7 12l5-5 5 5-1.4 1.4-2.6-2.6V21h-2ZM4 5V3h16v2H4Z" />
	</symbol>

	<symbol id="kv-move-left"
		xmlns="http://www.w3.org/2000/svg" viewBox="0 0 24 24">
		<path
			d="M0 19.5v-15h14.398v15ZM16.8 7V4.5h2.4V7Zm0 12.5V17h2.4v2.5ZM21.603 7V4.5H24V7Zm0 6.25v-2.5H24v2.5Zm0 6.25V17H24v2.5Zm0 0" />
	</symbol>

	<symbol id="kv-move-right"
		xmlns="http://www.w3.org/2000/svg" viewBox="0 0 24 24">
		<path
			d="M9.602 19.5v-15H24v15Zm-4.801 0V17h2.398v2.5ZM4.8 7V4.5h2.398V7ZM0 19.5V17h2.398v2.5Zm0-6.25v-2.5h2.398v2.5ZM0 7V4.5h2.398V7Zm0 0" />
	</symbol>

	<symbol id="kv-move-none"
		xmlns="http://www.w3.org/2000/svg" viewBox="0 0 24 24">
		<path
			d="M20.82 16.953 7.047 3.18H19q.751.001 1.285.535c.356.36.535.785.535 1.285ZM19.727 21l-1.454-1.453h-12q-.751-.001-1.285-.535c-.347-.336-.539-.801-.535-1.285v-12L3 4.273 4.273 3 21 19.727Zm0 0" />
	</symbol>

	<symbol id="kv-error"
		xmlns="http://www.w3.org/2000/svg" viewBox="0 0 24 24">
		<circle cx="12" cy="12" r="9" fill="var(--icon-background-color, none)" />
		<path
			d="M12 2C6.48 2 2 6.48 2 12s4.48 10 10 10 10-4.48 10-10S17.52 2 12 2zm1 15h-2v-2h2v2zm0-4h-2V7h2v6z" />
	</symbol>

	<symbol id="kv-info"
		xmlns="http://www.w3.org/2000/svg" viewBox="0 0 24 24">
		<circle cx="12" cy="12" r="9" fill="var(--icon-background-color, none)" />
		<path
			d="M12 22c5.52 0 10-4.48 10-10S17.52 2 12 2 2 6.48 2 12s4.48 10 10 10zM11 7h2v2h-2V7zm0 4h2v6h-2v-6z" />
	</symbol>

	<symbol id="kv-warning"
		xmlns="http://www.w3.org/2000/svg" viewBox="0 0 24 24">
		<path
			d="M12 3l10 17.273H2L12 3zm.88 12.347h-1.733v1.733h1.733v-1.733zm0-5.787h-1.733v4.053h1.733V9.56z" />
	</symbol>

	<symbol id="kv-success"
		xmlns="http://www.w3.org/2000/svg" viewBox="0 0 24 24">
		<circle cx="12" cy="12" r="9" fill="var(--icon-background-color, none)" />
		<path
			d="M12 2c5.52 0 10 4.466 10 9.968s-4.48 9.968-10 9.968S2 17.47 2 11.968 6.48 2 12 2zm4.435 6.366l-5.884 5.883-2.979-2.98-1.225 1.226 4.205 4.205 7.108-7.108-1.225-1.226z" />
	</symbol>

	<symbol id="kv-success-star"
		xmlns="http://www.w3.org/2000/svg" viewBox="0 0 24 24">
		<circle cx="12" cy="12" r="9" fill="var(--icon-background-color, none)" />
		<path
			d="m8.6 22.5-1.9-3.2-3.6-.8.35-3.7L1 12l2.45-2.8-.35-3.7 3.6-.8 1.9-3.2L12 2.95l3.4-1.45 1.9 3.2 3.6.8-.35 3.7L23 12l-2.45 2.8.35 3.7-3.6.8-1.9 3.2-3.4-1.45zm2.35-6.95L16.6 9.9l-1.4-1.45-4.25 4.25-2.15-2.1L7.4 12z" />
	</symbol>

	<symbol id="kv-pause"
		xmlns="http://www.w3.org/2000/svg" viewBox="0 0 24 24">
		<path d="M7 7h10v10H7z" />
	</symbol>

	<symbol id="kv-play"
		xmlns="http://www.w3.org/2000/svg" viewBox="0 0 24 24">
		<path d="M8 6v12l9.429-6z" />
	</symbol>

	<symbol id="kv-card"
		xmlns="http://www.w3.org/2000/svg" viewBox="0 0 24 24">
		<path
			d="M20 12.889V20h-7.143v-7.111H20zm-8.857-.036v7.111H4v-7.11h7.143zM20 4.036v7.11h-7.143v-7.11H20zM11.143 4v7.111H4V4h7.143z" />
	</symbol>

	<symbol id="kv-copy"
		xmlns="http://www.w3.org/2000/svg" viewBox="0 0 24 24">
		<path
			d="M15.727 2H4.818C3.818 2 3 2.818 3 3.818v12.727h1.818V3.818h10.91V2zm-.909 3.636l5.455 5.455v9.09c0 1-.818 1.819-1.818 1.819H8.445c-1 0-1.809-.818-1.809-1.818l.01-12.727c0-1 .809-1.819 1.809-1.819h6.363zM13.91 12h5l-5-5v5z" />
	</symbol>

	<symbol id="kv-docs"
		xmlns="http://www.w3.org/2000/svg" viewBox="0 0 24 24">
		<path
			d="M6.75 3c-.963 0-1.741.788-1.741 1.75L5 18.75c0 .962.779 1.75 1.741 1.75H17.25c.962 0 1.75-.788 1.75-1.75V8.25L13.75 3h-7zm6.125 6.125V4.312l4.813 4.813h-4.813z" />
	</symbol>

	<symbol id="kv-external-link"
		xmlns="http://www.w3.org/2000/svg" viewBox="0 0 24 24">
		<path
			d="M18.222 18.222H5.778V5.778H12V4H5.778C4.79 4 4 4.8 4 5.778v12.444C4 19.2 4.791 20 5.778 20h12.444C19.2 20 20 19.2 20 18.222V12h-1.778v6.222zM13.778 4v1.778h3.19l-8.737 8.738 1.253 1.253 8.738-8.738v3.191H20V4h-6.222z" />
	</symbol>

	<symbol id="kv-link"
		xmlns="http://www.w3.org/2000/svg" viewBox="0 0 24 24">
		<path
			d="M3.9 12c0-1.71 1.39-3.1 3.1-3.1h4V7H7c-2.76 0-5 2.24-5 5s2.24 5 5 5h4v-1.9H7c-1.71 0-3.1-1.39-3.1-3.1zM8 13h8v-2H8v2zm9-6h-4v1.9h4c1.71 0 3.1 1.39 3.1 3.1 0 1.71-1.39 3.1-3.1 3.1h-4V17h4c2.76 0 5-2.24 5-5s-2.24-5-5-5z" />
	</symbol>

	<symbol id="kv-list"
		xmlns="http://www.w3.org/2000/svg" viewBox="0 0 24 24">
		<path d="M3 8h18V4H3zm0 6h18v-4H3zm0 6h18v-4H3zM4 7V5h2v2zm0 6v-2h2v2zm0 6v-2h2v2z" />
	</symbol>

	<symbol id="kv-table"
		xmlns="http://www.w3.org/2000/svg" viewBox="0 0 24 24">
		<path
			d="M21 14.286h-5.143V9.714H21zm-6.429 0H9.43V9.714h5.142zm0 5.714H9.43v-4.571h5.142zm-6.428-5.714H3V9.714h5.143zM3 7.556h18V4H3zm12.857 7.873V20H21v-4.571zm-7.714 0H3V20h5.143z" />
	</symbol>

	<symbol id="kv-supervised-user"
		xmlns="http://www.w3.org/2000/svg" viewBox="0 0 24 24">
		<path
			d="M12 2C6.48 2 2 6.48 2 12s4.48 10 10 10 10-4.48 10-10S17.52 2 12 2zm0 3c1.66 0 3 1.34 3 3s-1.34 3-3 3-3-1.34-3-3 1.34-3 3-3zm0 14.2a7.2 7.2 0 0 1-6-3.22c.03-1.99 4-3.08 6-3.08 1.99 0 5.97 1.09 6 3.08a7.2 7.2 0 0 1-6 3.22z" />
	</symbol>

	<symbol id="kv-collapse"
		xmlns="http://www.w3.org/2000/svg" viewBox="0 0 24 24">
		<path d="M16.59 16L12 11.42 7.41 16 6 14.59l6-6 6 6z" />
	</symbol>

	<symbol id="kv-expand"
		xmlns="http://www.w3.org/2000/svg" viewBox="0 0 24 24">
		<path d="M7.41 8.59L12 13.17l4.59-4.58L18 10l-6 6-6-6z" />
	</symbol>

	<symbol id="kv-exit"
		xmlns="http://www.w3.org/2000/svg" viewBox="0 0 24 24">
		<path
			d="M7.387 10.735h6.62V6.189l6.804 6.803-6.803 6.819v-4.546h-6.62v-4.53zm-4.576-.016h3.05v4.546h-3.05V10.72z" />
	</symbol>

	<symbol id="kv-status"
		xmlns="http://www.w3.org/2000/svg" viewBox="0 0 24 24">
		<circle cx="12" cy="12" r="6" />
	</symbol>

	<symbol id="kv-status-mixed"
		xmlns="http://www.w3.org/2000/svg" viewBox="0 0 24 24">
		<path
			d="M12 22a9.7 9.7 0 0 1-3.898-.79 10 10 0 0 1-3.176-2.136 10 10 0 0 1-2.137-3.176A9.7 9.7 0 0 1 2 12q-.001-2.076.79-3.898a10 10 0 0 1 2.136-3.176 10 10 0 0 1 3.176-2.137A9.7 9.7 0 0 1 12 2q2.076-.001 3.898.79a10 10 0 0 1 3.176 2.136 10 10 0 0 1 2.137 3.176A9.7 9.7 0 0 1 22 12a9.7 9.7 0 0 1-.79 3.898 10 10 0 0 1-2.136 3.176 10 10 0 0 1-3.176 2.137A9.7 9.7 0 0 1 12 22M7.352 11.227 8.75 9.8l1.398 1.426 1.079-1.079L9.8 8.75l1.426-1.398-1.079-1.079L8.75 7.7 7.352 6.273 6.273 7.352 7.7 8.75l-1.426 1.398ZM12 20q3.324.001 5.664-2.336C19.223 16.105 20 14.214 20 12a7.7 7.7 0 0 0-.625-3.102 8.1 8.1 0 0 0-1.727-2.546L6.352 17.648a8.1 8.1 0 0 0 2.546 1.727c.97.418 2 .625 3.102.625m2.05-2.398-2.402-2.403 1.051-1.074 1.352 1.352L16.55 13l1.05 1.05Zm0 0" />
	</symbol>

	<symbol id="kv-calendar"
		xmlns="http://www.w3.org/2000/svg" viewBox="0 0 24 24">
		<path
			d="M18.727 4.636h-.818V3h-1.636v1.636H8.09V3H6.455v1.636h-.819c-.9 0-1.636.737-1.636 1.637v13.09c0 .9.736 1.637 1.636 1.637h13.091c.9 0 1.637-.736 1.637-1.636V6.273c0-.9-.737-1.637-1.637-1.637zm0 14.728H5.637V8.727h13.09v10.637z" />
	</symbol>

	<symbol id="kv-calendar-today"
		xmlns="http://www.w3.org/2000/svg" viewBox="0 0 24 24">
		<path
			d="M9 16.5q-1.051 0-1.773-.727C6.742 15.293 6.5 14.7 6.5 14q0-1.051.727-1.773C7.707 11.742 8.3 11.5 9 11.5q1.051 0 1.773.727c.485.48.727 1.074.727 1.773q0 1.051-.727 1.773c-.48.485-1.074.727-1.773.727M5 22q-.824 0-1.414-.586A1.94 1.94 0 0 1 3 20V6q0-.824.586-1.414Q4.176 4 5 4h1V2h2v2h8V2h2v2h1q.824 0 1.414.586Q21 5.176 21 6v14q0 .824-.586 1.414Q19.824 22 19 22Zm0-2h14V10H5Zm0 0" />
	</symbol>

	<symbol id="kv-calendar-range"
		xmlns="http://www.w3.org/2000/svg" viewBox="0 0 24 24">
		<path
			d="M8 14a1 1 0 0 1-.715-.285A1 1 0 0 1 7 13c0-.285.098-.523.285-.71A.99.99 0 0 1 8 12q.428.001.71.29A.97.97 0 0 1 9 13a.985.985 0 0 1-1 1m4 0a.985.985 0 0 1-1-1c0-.285.094-.523.29-.71A.97.97 0 0 1 12 12a.97.97 0 0 1 .71.29.96.96 0 0 1 .29.71.985.985 0 0 1-1 1m4 0a.985.985 0 0 1-1-1q.001-.429.29-.71A.97.97 0 0 1 16 12a.98.98 0 0 1 1 1 1 1 0 0 1-.285.715A1 1 0 0 1 16 14M5 22a1.92 1.92 0 0 1-1.41-.586A1.92 1.92 0 0 1 3 20V6q-.001-.824.59-1.414Q4.175 4 5 4h1V2h2v2h8V2h2v2h1q.825 0 1.41.586.591.59.59 1.414v14q.001.824-.59 1.414A1.91 1.91 0 0 1 19 22Zm0-2h14V10H5Zm0 0" />
	</symbol>

	<symbol id="kv-calendar-time"
		xmlns="http://www.w3.org/2000/svg" viewBox="0 0 24 24">
		<path
			d="M4 21.5q-.824 0-1.414-.586A1.94 1.94 0 0 1 2 19.5v-14q0-.824.586-1.414Q3.176 3.5 4 3.5h1v-2h2v2h8v-2h2v2h1q.824 0 1.414.586Q20 4.676 20 5.5v4.676a.97.97 0 0 1-.29.71.96.96 0 0 1-.71.29.96.96 0 0 1-.71-.29.97.97 0 0 1-.29-.71V9.5H4v10h5.8a.97.97 0 0 1 .712.29q.288.284.289.71-.001.426-.29.71a.97.97 0 0 1-.71.29Zm13 1q-2.074-.001-3.54-1.46-1.459-1.465-1.46-3.54.001-2.074 1.46-3.54 1.466-1.459 3.54-1.46 2.075.001 3.54 1.46 1.459 1.466 1.46 3.54-.001 2.075-1.46 3.54-1.465 1.459-3.54 1.46m1.676-2.625.699-.7-1.875-1.874V14.5h-1v3.2Zm0 0" />
	</symbol>

	<symbol id="kv-time"
		xmlns="http://www.w3.org/2000/svg" viewBox="0 0 24 24">
		<path
			d="M11.99 2C17.52 2 22 6.48 22 12s-4.48 10-10.01 10C6.47 22 2 17.52 2 12S6.47 2 11.99 2zM12 4c-4.42 0-8 3.58-8 8s3.58 8 8 8 8-3.58 8-8-3.58-8-8-8zm.5 3v5.25l4.5 2.67-.75 1.23L11 13V7h1.5z"></path>
	</symbol>

	<symbol id="kv-uptime"
		xmlns="http://www.w3.org/2000/svg" viewBox="0 0 24 24">
		<path
			d="M22 9.912h-7.534l3.045-3.134c-3.034-3-7.945-3.111-10.979-.111a7.64 7.64 0 000 10.878c3.034 3.012 7.945 3.012 10.979 0 1.511-1.488 2.267-3.233 2.267-5.433H22c0 2.2-.978 5.056-2.934 6.99-3.9 3.866-10.234 3.866-14.134 0C1.043 15.244 1.01 8.977 4.91 5.121a9.987 9.987 0 0114.056 0L22 2v7.912zm-9.445-2.356v4.722l3.89 2.312-.801 1.344-4.756-2.822V7.556h1.667z" />
	</symbol>

	<symbol id="kv-lock"
		xmlns="http://www.w3.org/2000/svg" viewBox="0 0 24 24">
		<path
			d="M18 8h-1V6c0-2.76-2.24-5-5-5S7 3.24 7 6v2H6c-1.1 0-2 .9-2 2v10c0 1.1.9 2 2 2h12c1.1 0 2-.9 2-2V10c0-1.1-.9-2-2-2zm-6 9c-1.1 0-2-.9-2-2s.9-2 2-2 2 .9 2 2-.9 2-2 2zm3.1-9H8.9V6c0-1.71 1.39-3.1 3.1-3.1 1.71 0 3.1 1.39 3.1 3.1v2z" />
	</symbol>

	<symbol id="kv-fullscreen"
		xmlns="http://www.w3.org/2000/svg" viewBox="0 0 24 24">
		<path
			d="M5.571 14.571H3V21h6.429v-2.571H5.57V14.57zM3 9.43h2.571V5.57H9.43V3H3v6.429zm15.429 9H14.57V21H21v-6.429h-2.571v3.858zM14.57 3v2.571h3.858V9.43H21V3h-6.429z" />
	</symbol>

	<symbol id="kv-fit-content"
		xmlns="http://www.w3.org/2000/svg" viewBox="0 0 24 24">
		<path
			d="M3 21V3h2v18Zm16 0V3h2v18ZM7 13v-2h2v2Zm4 8v-2h2v2Zm0-4v-2h2v2Zm0-4v-2h2v2Zm0-4V7h2v2Zm0-4V3h2v2Zm4 8v-2h2v2Zm0 0" />
	</symbol>

	<symbol id="kv-refresh"
		xmlns="http://www.w3.org/2000/svg" viewBox="0 0 24 24">
		<path
			d="M17.65 6.35C16.2 4.9 14.21 4 12 4c-4.42 0-7.99 3.58-7.99 8s3.57 8 7.99 8c3.73 0 6.84-2.55 7.73-6h-2.08c-.82 2.33-3.04 4-5.65 4-3.31 0-6-2.69-6-6s2.69-6 6-6c1.66 0 3.14.69 4.22 1.78L13 11h7V4l-2.35 2.35z" />
	</symbol>

	<symbol id="kv-system-source"
		xmlns="http://www.w3.org/2000/svg" viewBox="0 0 24 24">
		<path
			d="M12,2 C17.52,2 22,6.48 22,12 C22,17.52 17.52,22 12,22 C6.48,22 2,17.52 2,12 C2,6.48 6.48,2 12,2 Z M13.2336688,6 L10.7663312,6 C10.6121226,6 10.4900407,6.10923109 10.4643393,6.2634397 L10.2330264,7.89548076 C9.85393025,8.04968937 9.50696089,8.2617262 9.19211833,8.49946447 L7.65645764,7.88263005 C7.51509975,7.83122718 7.35446579,7.88263005 7.27736149,8.02398793 L6.05011801,10.157207 C5.97301371,10.2921395 5.99871514,10.4591988 6.12722231,10.5491538 L7.43157009,11.5643605 C7.3994433,11.7571212 7.37374186,11.9691581 7.37374186,12.1683442 C7.37374186,12.3675303 7.38659258,12.5795671 7.41871937,12.7723279 L6.11437159,13.7875345 C5.99871514,13.8774895 5.96658835,14.0509742 6.03726729,14.1794814 L7.27093613,16.3127004 C7.34804043,16.4540583 7.50867439,16.4990358 7.65003228,16.4540583 L9.18569297,15.8372239 C9.50696089,16.0813875 9.8475049,16.286999 10.226601,16.4412076 L10.457914,18.0732487 C10.4900407,18.2274573 10.6121226,18.3366884 10.7663312,18.3366884 L13.2336688,18.3366884 C13.3878774,18.3366884 13.5163846,18.2274573 13.5356607,18.0732487 L13.7669736,16.4412076 C14.1460697,16.286999 14.4930391,16.0813875 14.8078817,15.8372239 L16.3435424,16.4540583 C16.4849002,16.5054612 16.6455342,16.4540583 16.7226385,16.3127004 L17.9563073,14.1794814 C18.0334117,14.0381235 18.0012849,13.8774895 17.879203,13.7875345 L16.587706,12.7723279 C16.6134074,12.5795671 16.6262581,12.380381 16.6262581,12.1683442 C16.6262581,11.9627327 16.6134074,11.7571212 16.5812806,11.5643605 L17.8856284,10.5491538 C18.0012849,10.4591988 18.0334117,10.2857141 17.9627327,10.157207 L16.7290639,8.02398793 C16.6519596,7.88263005 16.4913256,7.83765254 16.3499677,7.88263005 L14.814307,8.49946447 C14.4930391,8.25530084 14.1524951,8.04968937 13.773399,7.89548076 L13.542086,6.2634397 C13.5163846,6.10923109 13.3878774,6 13.2336688,6 Z M12,9.85521511 C13.272221,9.85521511 14.3131291,10.8961232 14.3131291,12.1683442 C14.3131291,13.4405652 13.272221,14.4814732 12,14.4814732 C10.727779,14.4814732 9.68687093,13.4405652 9.68687093,12.1683442 C9.68687093,10.8961232 10.727779,9.85521511 12,9.85521511 Z"></path>
	</symbol>

	<symbol id="kv-protip"
		xmlns="http://www.w3.org/2000/svg" viewBox="0 0 24 24">
		<path
			d="M8 21.51h6.11c.16.002.315-.06.43-.17l7.27-7.28a.488.488 0 00-.05-.75l-.43-.31a2.34 2.34 0 00-3 .22L13.46 18h-4a.36.36 0 01-.36-.36v-.57a.36.36 0 01.36-.36H13l2.48-2.32a.389.389 0 00-.26-.67l-6.7-.06a4.06 4.06 0 00-2.92 1.2l-3.47 3.42a.47.47 0 000 .64L6 22.78a.44.44 0 00.61 0L8 21.51zm4.45-9.37a5.53 5.53 0 10.038-11.061 5.53 5.53 0 00-.038 11.061zm-.51-8.29h1.07v1.1h-1.07v-1.1zm0 2.21h1.07v3.31h-1.07V6.06z" />
	</symbol>

	<symbol id="kv-multiline"
		xmlns="http://www.w3.org/2000/svg" viewBox="0 0 24 24">
		<path
			d="M22 6.92l-1.41-1.41-2.85 3.21C15.68 6.4 12.83 5 9.61 5 6.72 5 4.07 6.16 2 8l1.42 1.42C5.12 7.93 7.27 7 9.61 7c2.74 0 5.09 1.26 6.77 3.24l-2.88 3.24-4-4L2 16.99l1.5 1.5 6-6.01 4 4 4.05-4.55c.75 1.35 1.25 2.9 1.44 4.55H21c-.22-2.3-.95-4.39-2.04-6.14L22 6.92z" />
	</symbol>

	<symbol id="kv-building"
		xmlns="http://www.w3.org/2000/svg" viewBox="0 0 24 24">
		<circle cx="12" cy="12" r="9" fill="var(--icon-background-color, none)" />
		<path
			d="M12 2C6.48 2 2 6.48 2 12s4.48 10 10 10 10-4.48 10-10S17.52 2 12 2zm.06 17v-2.01H12c-1.28 0-2.56-.49-3.54-1.46a5.006 5.006 0 01-.64-6.29l1.1 1.1c-.71 1.33-.53 3.01.59 4.13.7.7 1.62 1.03 2.54 1.01v-2.14l2.83 2.83L12.06 19zm4.11-4.24l-1.1-1.1c.71-1.33.53-3.01-.59-4.13A3.482 3.482 0 0012 8.5h-.06v2.15L9.11 7.83 11.94 5v2.02c1.3-.02 2.61.45 3.6 1.45 1.7 1.7 1.91 4.35.63 6.29z" />
	</symbol>

	<symbol id="kv-file"
		xmlns="http://www.w3.org/2000/svg" viewBox="0 0 24 24">
		<path
			d="M6 2c-1.1 0-1.99.9-1.99 2L4 20c0 1.1.89 2 1.99 2H18c1.1 0 2-.9 2-2V8l-6-6H6zm8 6V2.5L19.5 8H14z" />
	</symbol>

	<symbol id="kv-file-picker"
		xmlns="http://www.w3.org/2000/svg" viewBox="0 0 24 24">
		<path
			d="M18.21 5.615a2.25 2.25 0 0 1-2.25-2.25V.24H5.905a2.937 2.937 0 0 0-2.937 2.937V20.88a2.937 2.937 0 0 0 2.937 2.936h12.07a2.937 2.937 0 0 0 2.936-2.936V5.615z" />
		<path fill="#5B5B5B" fill-opacity=".3"
			d="M18.21 5.615a2.25 2.25 0 0 1-2.25-2.25V.24H5.905a2.937 2.937 0 0 0-2.937 2.937V20.88a2.937 2.937 0 0 0 2.937 2.936h12.07a2.937 2.937 0 0 0 2.936-2.936V5.615z" />
		<path fill="#5B5B5B"
			d="M20.91 5.615h-2.7a2.25 2.25 0 0 1-2.25-2.25V.24zm-4.967 11.086H7.94c-.693 0-1.257-.69-1.257-1.539V9.358c0-.848.564-1.538 1.257-1.538h8.005c.692 0 1.256.69 1.256 1.538v5.804c-.003.85-.567 1.54-1.26 1.54M7.94 8.606c-.34 0-.614.337-.614.752v5.804c0 .415.275.752.614.752h8.005c.338 0 .613-.337.613-.752V9.358c0-.415-.275-.752-.613-.752z" />
		<path fill="#5B5B5B" d="M16.877 13.206H7.002v.787h9.875zm0-2.698H7.002v.787h9.875z" />
		<path fill="#5B5B5B" d="M14.348 8.213h-.787v8.094h.787zm-4.03 0H9.53v8.094h.787z" />
	</symbol>

	<symbol id="kv-bullet"
		xmlns="http://www.w3.org/2000/svg" viewBox="0 0 24 24">
		<circle cx="12" cy="12" r="4" />
	</symbol>

	<symbol id="kv-shield-lock" xmlns="http://www.w3.org/2000/svg" viewBox="0 0 24 24">
		<path
			d="M11.887 22c-2.246-.582-4.098-1.914-5.563-3.988-1.46-2.075-2.195-4.38-2.195-6.91V5l7.758-3 7.758 3v6.102c0 2.53-.73 4.835-2.192 6.91-1.465 2.074-3.316 3.406-5.566 3.988Zm0-2.102c1.683-.546 3.074-1.648 4.172-3.296 1.097-1.653 1.648-3.485 1.648-5.5V6.375l-5.82-2.25-5.817 2.25v4.727c0 2.015.551 3.847 1.649 5.5 1.097 1.648 2.488 2.75 4.168 3.296ZM9.949 16h3.88a.917.917 0 0 0 .69-.29.985.985 0 0 0 .278-.71v-3a.99.99 0 0 0-.277-.71.932.932 0 0 0-.692-.29v-1c0-.55-.191-1.02-.57-1.414A1.84 1.84 0 0 0 11.887 8c-.532 0-.989.195-1.367.586-.38.394-.57.863-.57 1.414v1a.932.932 0 0 0-.692.29.99.99 0 0 0-.278.71v3c0 .285.094.52.278.71.187.196.418.29.691.29Zm.969-5v-1c0-.281.094-.52.281-.71a.917.917 0 0 1 .688-.29.92.92 0 0 1 .691.29c.188.19.281.429.281.71v1Zm0 0" />
	</symbol>

	<symbol id="kv-tasks"
		xmlns="http://www.w3.org/2000/svg" viewBox="0 0 16 16">
		<path d="M9.5 14a2.2 2.2 0 0 1-.833-.167V2.167A2.2 2.2 0 0 1 9.5 2a2.1 2.1 0 0 1 1.492.583q.624.584.675 1.434a2.65 2.65 0 0 1 1.658.883Q14 5.65 14 6.667q0 .366-.092.7a2.5 2.5 0 0 1-.275.633q.184.3.275.642.092.341.092.691 0 1.034-.675 1.775a2.68 2.68 0 0 1-1.675.875 2.24 2.24 0 0 1-.692 1.425A2.02 2.02 0 0 1 9.5 14m-3 0a2.05 2.05 0 0 1-1.467-.592 2.23 2.23 0 0 1-.7-1.425 2.63 2.63 0 0 1-1.666-.883A2.57 2.57 0 0 1 2 9.333q0-.35.092-.691.09-.342.275-.642a2.5 2.5 0 0 1-.275-.633 2.6 2.6 0 0 1-.092-.7q0-1.017.667-1.759a2.63 2.63 0 0 1 1.65-.875A2.08 2.08 0 0 1 5 2.592a2.12 2.12 0 0 1 1.925-.542q.208.05.408.133v11.65A2.2 2.2 0 0 1 6.5 14"/>
	</symbol>

	<symbol id="kv-sort-hover"
		xmlns="http://www.w3.org/2000/svg" viewBox="0 0 16 16">
		<path d="M8.667 4.526 11.333 2 14 4.526h-2V14h-1.333V4.526z" />
		<path d="M7.333 11.474 4.667 14 2 11.474h2V2h1.333v9.474z" />
	</symbol>

	<symbol id="kv-sort-az"
		xmlns="http://www.w3.org/2000/svg" viewBox="0 0 16 16">
		<path d="M8.667 4.526 11.333 2 14 4.526h-2V14h-1.333V4.526z" fill-opacity="0.4" />
		<path d="M7.333 11.474 4.667 14 2 11.474h2V2h1.333v9.474z" />
	</symbol>

	<symbol id="kv-sort-za"
		xmlns="http://www.w3.org/2000/svg" viewBox="0 0 16 16">
		<path d="M8.667 4.526 11.333 2 14 4.526h-2V14h-1.333V4.526z" />
		<path d="M7.333 11.474 4.667 14 2 11.474h2V2h1.333v9.474z" fill-opacity="0.4" />
	</symbol>

	<symbol id="kv-zoom-in"
		xmlns="http://www.w3.org/2000/svg" viewBox="0 0 20 20">
		<path
			d="M8.289 3.333a4.955 4.955 0 014.955 4.956c0 1.227-.45 2.355-1.197 3.224l.213.206h.603l3.804 3.812-1.136 1.136-3.812-3.804v-.603l-.206-.213a4.933 4.933 0 01-3.224 1.197 4.955 4.955 0 110-9.91zm0 1.525a3.426 3.426 0 00-3.431 3.43 3.426 3.426 0 003.43 3.431 3.426 3.426 0 003.431-3.43 3.426 3.426 0 00-3.43-3.431zm.38 1.525v1.524h1.525v.763H8.67v1.524h-.763V8.67H6.383v-.763h1.524V6.383h.763z" />
	</symbol>

	<symbol id="kv-zoom-out"
		xmlns="http://www.w3.org/2000/svg" viewBox="0 0 20 20">
		<path
			d="M12.863 11.72h-.603l-.213-.207a4.933 4.933 0 001.197-3.224 4.955 4.955 0 10-4.955 4.955c1.227 0 2.355-.45 3.224-1.197l.206.213v.603l3.812 3.804 1.136-1.136-3.804-3.812zm-4.574 0a3.426 3.426 0 01-3.431-3.431 3.426 3.426 0 013.43-3.431 3.426 3.426 0 013.431 3.43 3.426 3.426 0 01-3.43 3.431zM6.383 7.906h3.811v.763H6.383v-.763z" />
	</symbol>

	<symbol id="kv-reset-zoom"
		xmlns="http://www.w3.org/2000/svg" viewBox="0 0 20 20">
		<path
			d="M14.175 11.667h-.667l-.225-.225a5.375 5.375 0 001.309-3.525c0-2.992-2.425-5.417-5.417-5.417S3.758 5 3.758 7.917H1.667l3.2 3.333 3.466-3.333H5.425a3.75 3.75 0 017.5 0 3.756 3.756 0 01-5.267 3.433l-1.233 1.233a5.395 5.395 0 006.267-.558l.225.225v.658l4.175 4.159 1.241-1.234-4.158-4.166z" />
	</symbol>

	<symbol id="kv-dashboard"
		xmlns="http://www.w3.org/2000/svg" viewBox="0 0 24 24">
		<path d="M3 13h8V3H3v10zm0 8h8v-6H3v6zm10 0h8V11h-8v10zm0-18v6h8V3h-8z" />
	</symbol>

	<symbol id="kv-nav-open"
		xmlns="http://www.w3.org/2000/svg" viewBox="0 0 24 24">
		<path d="M10 6L8.59 7.41 13.17 12 8.59 16.59 10 18 16 12z" />
	</symbol>

	<symbol id="kv-nav-close"
		xmlns="http://www.w3.org/2000/svg" viewBox="0 0 24 24">
		<path d="M15.41 7.41L14 6 8 12 14 18 15.41 16.59 10.83 12z" />
	</symbol>

	<symbol id="kv-drag-drop"
		xmlns="http://www.w3.org/2000/svg" viewBox="0 0 24 24">
		<path
			d="M11 18c0 1.1-.9 2-2 2s-2-.9-2-2 .9-2 2-2 2 .9 2 2zm-2-8c-1.1 0-2 .9-2 2s.9 2 2 2 2-.9 2-2-.9-2-2-2zm0-6c-1.1 0-2 .9-2 2s.9 2 2 2 2-.9 2-2-.9-2-2-2zm6 4c1.1 0 2-.9 2-2s-.9-2-2-2-2 .9-2 2 .9 2 2 2zm0 2c-1.1 0-2 .9-2 2s.9 2 2 2 2-.9 2-2-.9-2-2-2zm0 6c-1.1 0-2 .9-2 2s.9 2 2 2 2-.9 2-2-.9-2-2-2z" />
	</symbol>

	<symbol id="kv-clear"
		xmlns="http://www.w3.org/2000/svg" viewBox="0 0 24 24">
		<path
			d="M16 11h-1V3c0-1.1-.9-2-2-2h-2c-1.1 0-2 .9-2 2v8H8c-2.76 0-5 2.24-5 5v7h18v-7c0-2.76-2.24-5-5-5zm3 10h-2v-3c0-.55-.45-1-1-1s-1 .45-1 1v3h-2v-3c0-.55-.45-1-1-1s-1 .45-1 1v3H9v-3c0-.55-.45-1-1-1s-1 .45-1 1v3H5v-5c0-1.65 1.35-3 3-3h8c1.65 0 3 1.35 3 3v5z" />
	</symbol>

	<symbol id="kv-magictip"
		xmlns="http://www.w3.org/2000/svg" viewBox="0 0 24 24">
		<path
			d="M20 7L19.05 4.95L17 4L19.05 3.05L20 1L20.95 3.05L23 4L20.95 4.95L20 7ZM8.5 7L7.55 4.95L5.5 4L7.55 3.05L8.5 1L9.45 3.05L11.5 4L9.45 4.95L8.5 7ZM20 18.5L19.05 16.45L17 15.5L19.05 14.55L20 12.5L20.95 14.55L23 15.5L20.95 16.45L20 18.5ZM5.1 21.7L2.3 18.9C2.1 18.7 2 18.4583 2 18.175C2 17.8917 2.1 17.65 2.3 17.45L13.45 6.3C13.65 6.1 13.8917 6 14.175 6C14.4583 6 14.7 6.1 14.9 6.3L17.7 9.1C17.9 9.3 18 9.54167 18 9.825C18 10.1083 17.9 10.35 17.7 10.55L6.55 21.7C6.35 21.9 6.10833 22 5.825 22C5.54167 22 5.3 21.9 5.1 21.7ZM14.175 11.225L15.575 9.825L14.175 8.425L12.775 9.825L14.175 11.225Z" />
	</symbol>

	<symbol id="kv-slim-right" xmlns="http://www.w3.org/2000/svg" viewBox="0 0 24 24">
		<path d="M16.01 11H4v2h12.01v3L20 12l-3.99-4z" />
	</symbol>

	<symbol id="kv-trending-up" xmlns="http://www.w3.org/2000/svg" viewBox="0 0 24 24">
		<path
			d="m15.967 6.3 2.175 2.176-4.636 4.635-3.8-3.8-7.04 7.05 1.34 1.339 5.7-5.7 3.8 3.8 5.985-5.976L21.667 12V6.3z" />
	</symbol>

	<symbol id="kv-trending-down" xmlns="http://www.w3.org/2000/svg" viewBox="0 0 24 24">
		<path
			d="m15.967 17.4 2.175-2.175-4.636-4.636-3.8 3.8-7.04-7.05L4.007 6l5.7 5.7 3.8-3.8 5.985 5.976 2.176-2.176v5.7z" />
	</symbol>

	<symbol id="kv-chat" xmlns="http://www.w3.org/2000/svg" viewBox="0 0 24 24">
		<path
			d="M20.1 6.6h-1.8v8.1H6.6v1.8c0 .495.405.9.9.9h9.9L21 21V7.5c0-.495-.405-.9-.9-.9zM16.5 12V3.9c0-.495-.405-.9-.9-.9H3.9c-.495 0-.9.405-.9.9v12.6l3.6-3.6h9c.495 0 .9-.405.9-.9z" />
	</symbol>

	<symbol id="kv-density-low" xmlns="http://www.w3.org/2000/svg" viewBox="0 0 20 20">
		<path d="M2.5 2.5h15v1.667h-15zm0 13.333h15V17.5h-15z" />
	</symbol>

	<symbol id="kv-density-medium" xmlns="http://www.w3.org/2000/svg" viewBox="0 0 20 20">
		<path d="M2.5 2.5h15v1.667h-15zm0 13.333h15V17.5h-15zm0-6.666h15v1.667h-15z" />
	</symbol>

	<symbol id="kv-density-high" xmlns="http://www.w3.org/2000/svg" viewBox="0 0 20 20">
		<path d="M2.5 1.667h15v1.667h-15zm0 15h15v1.667h-15zm0-5h15v1.667h-15zm0-5h15v1.667h-15z" />
	</symbol>

	<symbol id="kv-double-arrow-left" xmlns="http://www.w3.org/2000/svg" viewBox="0 0 20 20">
		<path
			d="m14.658 5 1.175 1.175L12.017 10l3.816 3.825L14.658 15l-5-5 5-5zM9.167 5l1.175 1.175L6.525 10l3.817 3.825L9.167 15l-5-5 5-5z" />
	</symbol>

	<symbol id="kv-double-arrow-right" xmlns="http://www.w3.org/2000/svg" viewBox="0 0 20 20">
		<path
			d="m5.342 5 5 5-5 5-1.175-1.175L7.983 10 4.167 6.175 5.342 5zm5.491 0 5 5-5 5-1.175-1.175L13.475 10 9.658 6.175 10.833 5z" />
	</symbol>

	<symbol id="kv-double-arrow-down" xmlns="http://www.w3.org/2000/svg" viewBox="0 0 24 24">
		<path
			d="m12 19-6-6 1.4-1.4 4.6 4.575 4.6-4.575L18 13l-6 6Zm0-6L6 7l1.4-1.4 4.6 4.575L16.6 5.6 18 7l-6 6Z" />
	</symbol>

	<symbol id="kv-square" xmlns="http://www.w3.org/2000/svg" viewBox="0 0 24 24">
		<path d="M3 21V3h18v18H3Z" />
	</symbol>

	<symbol id="kv-circle" xmlns="http://www.w3.org/2000/svg" viewBox="0 0 24 24">
		<path
			d="M12 21a8.759 8.759 0 0 1-3.51-.71 9.082 9.082 0 0 1-2.857-1.922 9.082 9.082 0 0 1-1.924-2.858A8.759 8.759 0 0 1 3 12c0-1.245.236-2.415.71-3.51a9.082 9.082 0 0 1 1.923-2.857A9.095 9.095 0 0 1 8.49 3.708 8.769 8.769 0 0 1 12 3c1.245 0 2.415.236 3.51.708a9.095 9.095 0 0 1 2.857 1.925 9.082 9.082 0 0 1 1.924 2.857A8.759 8.759 0 0 1 21 12a8.759 8.759 0 0 1-.71 3.51 9.082 9.082 0 0 1-1.922 2.857 9.082 9.082 0 0 1-2.858 1.924A8.759 8.759 0 0 1 12 21Z" />
	</symbol>

	<symbol id="kv-settings" xmlns="http://www.w3.org/2000/svg" viewBox="0 0 24 24">
		<path
			d="m9.25 22-.4-3.2a3.771 3.771 0 0 1-.612-.3 8.194 8.194 0 0 1-.563-.375L4.7 19.375l-2.75-4.75 2.575-1.95a2.39 2.39 0 0 1-.025-.338v-.675c0-.108.008-.22.025-.337L1.95 9.375l2.75-4.75 2.975 1.25c.183-.133.375-.258.575-.375.2-.117.4-.217.6-.3l.4-3.2h5.5l.4 3.2c.217.083.421.183.613.3.191.117.379.242.562.375l2.975-1.25 2.75 4.75-2.575 1.95c.017.117.025.229.025.337v.675c0 .109-.017.221-.05.338l2.575 1.95-2.75 4.75-2.95-1.25a6.842 6.842 0 0 1-.575.375c-.2.117-.4.217-.6.3l-.4 3.2h-5.5Zm2.8-6.5c.967 0 1.792-.342 2.475-1.025A3.372 3.372 0 0 0 15.55 12c0-.967-.342-1.792-1.025-2.475A3.373 3.373 0 0 0 12.05 8.5c-.983 0-1.813.342-2.488 1.025A3.394 3.394 0 0 0 8.55 12c0 .967.337 1.792 1.012 2.475S11.067 15.5 12.05 15.5Z" />
	</symbol>

	<symbol id="kv-connections" xmlns="http://www.w3.org/2000/svg" viewBox="0 0 24 24">
		<path
			d="M19 21c-.65 0-1.233-.188-1.75-.563A2.91 2.91 0 0 1 16.175 19H11c-1.1 0-2.042-.392-2.825-1.175C7.392 17.042 7 16.1 7 15s.392-2.042 1.175-2.825C8.958 11.392 9.9 11 11 11h2c.55 0 1.02-.196 1.412-.588C14.804 10.021 15 9.55 15 9c0-.55-.196-1.02-.588-1.412A1.926 1.926 0 0 0 13 7H7.825a3.09 3.09 0 0 1-1.088 1.438A2.852 2.852 0 0 1 5 9a2.893 2.893 0 0 1-2.125-.875A2.893 2.893 0 0 1 2 6c0-.833.292-1.542.875-2.125A2.893 2.893 0 0 1 5 3c.65 0 1.23.188 1.737.563.509.374.871.854 1.088 1.437H13c1.1 0 2.042.392 2.825 1.175C16.608 6.958 17 7.9 17 9s-.392 2.042-1.175 2.825C15.042 12.608 14.1 13 13 13h-2c-.55 0-1.02.196-1.412.588A1.926 1.926 0 0 0 9 15c0 .55.196 1.02.588 1.413.391.391.862.587 1.412.587h5.175a3.09 3.09 0 0 1 1.087-1.438A2.851 2.851 0 0 1 19 15c.833 0 1.542.292 2.125.875S22 17.167 22 18s-.292 1.542-.875 2.125A2.893 2.893 0 0 1 19 21ZM5 7c.283 0 .52-.096.713-.287A.968.968 0 0 0 6 6a.968.968 0 0 0-.287-.713A.968.968 0 0 0 5 5a.968.968 0 0 0-.713.287A.968.968 0 0 0 4 6c0 .283.096.52.287.713.192.191.43.287.713.287Z" />
	</symbol>

	<symbol id="kv-properties" xmlns="http://www.w3.org/2000/svg" viewBox="0 0 24 24">
		<path
			d="M17.75 20.25q-1.574 0-2.664-1.086Q14 18.075 14 16.5q0-1.574 1.086-2.664 1.088-1.085 2.664-1.086 1.575 0 2.664 1.086Q21.5 14.924 21.5 16.5q0 1.575-1.086 2.664-1.089 1.085-2.664 1.086m0-2q.725-.001 1.238-.512.511-.513.512-1.238-.001-.725-.512-1.238a1.7 1.7 0 0 0-1.238-.512q-.725.001-1.238.512Q16 15.775 16 16.5q.001.725.512 1.238.513.511 1.238.512M4 17.5v-2h8v2Zm2.25-6.25q-1.574 0-2.664-1.086Q2.5 9.076 2.5 7.5q0-1.574 1.086-2.664Q4.675 3.75 6.25 3.75q1.575 0 2.664 1.086Q10 5.924 10 7.5q0 1.575-1.086 2.664Q7.826 11.25 6.25 11.25m0-2q.725-.001 1.238-.512Q8 8.225 8 7.5q-.001-.725-.512-1.238A1.7 1.7 0 0 0 6.25 5.75q-.725.001-1.238.512Q4.5 6.775 4.5 7.5q.001.725.512 1.238.513.511 1.238.512M12 8.5v-2h8v2Zm0 0" />
	</symbol>

	<symbol id="kv-star"
		xmlns="http://www.w3.org/2000/svg" viewBox="0 0 16 16">
		<path
			d="M16 6.64a.695.695 0 0 0-.78-.68l-4.876-.116-1.666-4.348A.702.702 0 0 0 8 1a.702.702 0 0 0-.678.496L5.656 5.844.78 5.96a.695.695 0 0 0-.78.68c0 .242.129.453.323.574L4.207 9.96 2.82 14.266a.658.658 0 0 0-.079.313c0 .378.316.684.706.684a.716.716 0 0 0 .438-.148L8 12.503l4.115 2.612c.12.092.272.148.437.148.39 0 .706-.306.706-.684a.66.66 0 0 0-.079-.313L11.793 9.96l3.884-2.746A.679.679 0 0 0 16 6.64" />
	</symbol>

	<symbol id="kv-column"
		xmlns="http://www.w3.org/2000/svg" viewBox="0 0 20 20">
		<path d="M2.5 16V4h4.444v12H2.5Zm5.278 0V4h4.444v12H7.778Zm5.278 0V4H17.5v12h-4.444Z" />
	</symbol>

	<symbol id="kv-fixed"
		xmlns="http://www.w3.org/2000/svg" viewBox="0 0 20 20">
		<path
			d="M12.222 16.667c-.407 0-.756-.145-1.045-.435-.29-.29-.436-.64-.436-1.047V4.815c0-.408.145-.757.436-1.047.29-.29.638-.435 1.045-.435h2.963c.408 0 .757.145 1.047.435.29.29.435.64.435 1.047v10.37c0 .407-.145.756-.435 1.047-.29.29-.64.435-1.047.435h-2.963Zm-7.407 0c-.407 0-.756-.145-1.047-.435-.29-.29-.434-.64-.434-1.047V4.815c0-.408.144-.757.434-1.047.29-.29.64-.435 1.047-.435h2.963c.407 0 .756.145 1.047.435.29.29.434.64.434 1.047v10.37c0 .407-.145.756-.434 1.047-.29.29-.64.435-1.047.435H4.815Z" />
	</symbol>

	<symbol id="kv-reset"
		xmlns="http://www.w3.org/2000/svg" viewBox="0 0 24 24">
		<path
			d="M12 21C9.7 21 7.696 20.2373 5.988 18.712C4.27933 17.1873 3.3 15.2833 3.05 13H5.1C5.33333 14.7333 6.104 16.1667 7.412 17.3C8.72067 18.4333 10.25 19 12 19C13.95 19 15.604 18.3207 16.962 16.962C18.3207 15.604 19 13.95 19 12C19 10.05 18.3207 8.39567 16.962 7.037C15.604 5.679 13.95 5 12 5C10.85 5 9.775 5.26667 8.775 5.8C7.775 6.33333 6.93333 7.06667 6.25 8H9V10H3V4H5V6.35C5.85 5.28333 6.88767 4.45833 8.113 3.875C9.33767 3.29167 10.6333 3 12 3C13.25 3 14.421 3.23733 15.513 3.712C16.6043 4.18733 17.5543 4.829 18.363 5.637C19.171 6.44567 19.8127 7.39567 20.288 8.487C20.7627 9.579 21 10.75 21 12C21 13.25 20.7627 14.4207 20.288 15.512C19.8127 16.604 19.171 17.554 18.363 18.362C17.5543 19.1707 16.6043 19.8127 15.513 20.288C14.421 20.7627 13.25 21 12 21ZM14.8 16.2L11 12.4V7H13V11.6L16.2 14.8L14.8 16.2Z" />
	</symbol>

	<symbol id="kv-download"
		xmlns="http://www.w3.org/2000/svg" viewBox="0 0 24 24">
		<path
			d="M7 17h10v-2H7zm5-3 4-4-1.4-1.4-1.6 1.55V6h-2v4.15L9.4 8.6 8 10zm0 8a9.7 9.7 0 0 1-3.9-.788 10.1 10.1 0 0 1-3.175-2.137q-1.35-1.35-2.137-3.175A9.7 9.7 0 0 1 2 12q0-2.075.788-3.9a10.1 10.1 0 0 1 2.137-3.175q1.35-1.35 3.175-2.137A9.7 9.7 0 0 1 12 2q2.075 0 3.9.788a10.1 10.1 0 0 1 3.175 2.137q1.35 1.35 2.137 3.175A9.7 9.7 0 0 1 22 12a9.7 9.7 0 0 1-.788 3.9 10.1 10.1 0 0 1-2.137 3.175q-1.35 1.35-3.175 2.137A9.7 9.7 0 0 1 12 22" />
	</symbol>

	<symbol id="kv-upload"
		xmlns="http://www.w3.org/2000/svg" viewBox="0 0 24 24">
		<path
			d="M11 19h2v-4.175l1.6 1.6L16 15l-4-4-4 4 1.425 1.4L11 14.825zm-5 3q-.824 0-1.412-.587A1.93 1.93 0 0 1 4 20V4q0-.824.588-1.412A1.93 1.93 0 0 1 6 2h8l6 6v12q0 .824-.587 1.413A1.93 1.93 0 0 1 18 22zm7-13h5l-5-5z" />

	</symbol>

	<symbol id="kv-close-circle"
		xmlns="http://www.w3.org/2000/svg" viewBox="0 0 24 24">
		<circle cx="12" cy="12" r="9" fill="var(--icon-background-color, none)" />
		<path
			d="M8.4 17L12 13.4L15.6 17L17 15.6L13.4 12L17 8.4L15.6 7L12 10.6L8.4 7L7 8.4L10.6 12L7 15.6L8.4 17ZM12 22C10.6167 22 9.31667 21.7373 8.1 21.212C6.88333 20.6873 5.825 19.975 4.925 19.075C4.025 18.175 3.31267 17.1167 2.788 15.9C2.26267 14.6833 2 13.3833 2 12C2 10.6167 2.26267 9.31667 2.788 8.1C3.31267 6.88333 4.025 5.825 4.925 4.925C5.825 4.025 6.88333 3.31233 8.1 2.787C9.31667 2.26233 10.6167 2 12 2C13.3833 2 14.6833 2.26233 15.9 2.787C17.1167 3.31233 18.175 4.025 19.075 4.925C19.975 5.825 20.6873 6.88333 21.212 8.1C21.7373 9.31667 22 10.6167 22 12C22 13.3833 21.7373 14.6833 21.212 15.9C20.6873 17.1167 19.975 18.175 19.075 19.075C18.175 19.975 17.1167 20.6873 15.9 21.212C14.6833 21.7373 13.3833 22 12 22Z" />
	</symbol>

	<symbol id="kv-copy-clipboard"
		xmlns="http://www.w3.org/2000/svg" viewBox="0 0 16 16">
		<path
			d="M3 14.65C2.73333 14.65 2.5 14.55 2.3 14.35C2.1 14.15 2 13.9167 2 13.65V3.6H3V13.65H10.9V14.65H3ZM5 12.65C4.73333 12.65 4.5 12.55 4.3 12.35C4.1 12.15 4 11.9167 4 11.65V2.31667C4 2.05 4.1 1.81667 4.3 1.61667C4.5 1.41667 4.73333 1.31667 5 1.31667H12.3333C12.6 1.31667 12.8333 1.41667 13.0333 1.61667C13.2333 1.81667 13.3333 2.05 13.3333 2.31667V11.65C13.3333 11.9167 13.2333 12.15 13.0333 12.35C12.8333 12.55 12.6 12.65 12.3333 12.65H5Z" />
	</symbol>

	<symbol id="kv-radio-btn" viewBox="0 0 24 24"
		xmlns="http://www.w3.org/2000/svg">
		<path
			d="M12 22a9.733 9.733 0 0 1-3.9-.788 10.092 10.092 0 0 1-3.175-2.137c-.9-.9-1.612-1.958-2.137-3.175A9.733 9.733 0 0 1 2 12c0-1.383.263-2.683.788-3.9a10.092 10.092 0 0 1 2.137-3.175c.9-.9 1.958-1.613 3.175-2.138A9.743 9.743 0 0 1 12 2c1.383 0 2.683.262 3.9.787a10.105 10.105 0 0 1 3.175 2.138c.9.9 1.612 1.958 2.137 3.175A9.733 9.733 0 0 1 22 12a9.733 9.733 0 0 1-.788 3.9 10.092 10.092 0 0 1-2.137 3.175c-.9.9-1.958 1.612-3.175 2.137A9.733 9.733 0 0 1 12 22Zm0-2c2.233 0 4.125-.775 5.675-2.325C19.225 16.125 20 14.233 20 12c0-2.233-.775-4.125-2.325-5.675C16.125 4.775 14.233 4 12 4c-2.233 0-4.125.775-5.675 2.325C4.775 7.875 4 9.767 4 12c0 2.233.775 4.125 2.325 5.675C7.875 19.225 9.767 20 12 20Z" />
	</symbol>

	<symbol id="kv-radio-btn-selected" viewBox="0 0 24 24"
		xmlns="http://www.w3.org/2000/svg">
		<path
			d="M12 17c1.383 0 2.563-.488 3.538-1.463C16.513 14.562 17 13.383 17 12s-.487-2.563-1.462-3.538C14.563 7.487 13.383 7 12 7s-2.562.487-3.537 1.462C7.488 9.437 7 10.617 7 12s.488 2.562 1.463 3.537C9.438 16.512 10.617 17 12 17Zm0 5a9.733 9.733 0 0 1-3.9-.788 10.092 10.092 0 0 1-3.175-2.137c-.9-.9-1.612-1.958-2.137-3.175A9.733 9.733 0 0 1 2 12c0-1.383.263-2.683.788-3.9a10.092 10.092 0 0 1 2.137-3.175c.9-.9 1.958-1.613 3.175-2.138A9.743 9.743 0 0 1 12 2c1.383 0 2.683.262 3.9.787a10.105 10.105 0 0 1 3.175 2.138c.9.9 1.612 1.958 2.137 3.175A9.733 9.733 0 0 1 22 12a9.733 9.733 0 0 1-.788 3.9 10.092 10.092 0 0 1-2.137 3.175c-.9.9-1.958 1.612-3.175 2.137A9.733 9.733 0 0 1 12 22Zm0-2c2.233 0 4.125-.775 5.675-2.325C19.225 16.125 20 14.233 20 12c0-2.233-.775-4.125-2.325-5.675C16.125 4.775 14.233 4 12 4c-2.233 0-4.125.775-5.675 2.325C4.775 7.875 4 9.767 4 12c0 2.233.775 4.125 2.325 5.675C7.875 19.225 9.767 20 12 20Z" />
	</symbol>

	<symbol id="kv-settings-suggest"
		xmlns="http://www.w3.org/2000/svg" viewBox="0 0 24 24">
		<path
			d="M17.41,6.59L15,5.5l2.41-1.09L18.5,2l1.09,2.41L22,5.5l-2.41,1.09L18.5,9L17.41,6.59z M21.28,12.72L20.5,11l-0.78,1.72 L18,13.5l1.72,0.78L20.5,16l0.78-1.72L23,13.5L21.28,12.72z M16.24,14.37l1.94,1.47l-2.5,4.33l-2.24-0.94 c-0.2,0.13-0.42,0.26-0.64,0.37L12.5,22h-5l-0.3-2.41c-0.22-0.11-0.43-0.23-0.64-0.37l-2.24,0.94l-2.5-4.33l1.94-1.47 C3.75,14.25,3.75,14.12,3.75,14s0-0.25,0.01-0.37l-1.94-1.47l2.5-4.33l2.24,0.94c0.2-0.13,0.42-0.26,0.64-0.37L7.5,6h5l0.3,2.41 c0.22,0.11,0.43,0.23,0.64,0.37l2.24-0.94l2.5,4.33l-1.94,1.47c0.01,0.12,0.01,0.24,0.01,0.37S16.25,14.25,16.24,14.37z M13,14 c0-1.66-1.34-3-3-3s-3,1.34-3,3s1.34,3,3,3S13,15.66,13,14z" />
	</symbol>

	<symbol id="kv-push-pin"
		xmlns="http://www.w3.org/2000/svg" viewBox="0 0 24 24">
		<path
			d="M16,9V4l1,0c0.55,0,1-0.45,1-1v0c0-0.55-0.45-1-1-1H7C6.45,2,6,2.45,6,3v0 c0,0.55,0.45,1,1,1l1,0v5c0,1.66-1.34,3-3,3h0v2h5.97v7l1,1l1-1v-7H19v-2h0C17.34,12,16,10.66,16,9z"
			fill-rule="evenodd" />
	</symbol>

	<symbol id="kv-telemetry" viewBox="0 0 24 24" xmlns="http://www.w3.org/2000/svg">
		<path
			d="M7 17H9V12H7V17ZM15 17H17V7H15V17ZM11 17H13V14H11V17ZM11 12H13V10H11V12ZM5 21C4.45 21 3.97917 20.8042 3.5875 20.4125C3.19583 20.0208 3 19.55 3 19V5C3 4.45 3.19583 3.97917 3.5875 3.5875C3.97917 3.19583 4.45 3 5 3H19C19.55 3 20.0208 3.19583 20.4125 3.5875C20.8042 3.97917 21 4.45 21 5V19C21 19.55 20.8042 20.0208 20.4125 20.4125C20.0208 20.8042 19.55 21 19 21H5Z" />
	</symbol>

	<svg id="kv-log" viewBox="0 0 24 24" xmlns="http://www.w3.org/2000/svg">
		<path
			d="M9.6 15.6L11 14.175L8.825 12L11 9.825L9.6 8.4L6 12L9.6 15.6ZM14.4 15.6L18 12L14.4 8.4L13 9.825L15.175 12L13 14.175L14.4 15.6ZM5 21C4.45 21 3.97917 20.8042 3.5875 20.4125C3.19583 20.0208 3 19.55 3 19V5C3 4.45 3.19583 3.97917 3.5875 3.5875C3.97917 3.19583 4.45 3 5 3H19C19.55 3 20.0208 3.19583 20.4125 3.5875C20.8042 3.97917 21 4.45 21 5V19C21 19.55 20.8042 20.0208 20.4125 20.4125C20.0208 20.8042 19.55 21 19 21H5Z" />
	</svg>

	<symbol id="kv-data-explorer" viewBox="0 0 24 24" xmlns="http://www.w3.org/2000/svg">
		<path
			d="M9.025 22c-.233 0-.438-.063-.613-.188a.955.955 0 0 1-.362-.512L5.5 13H2v-2h4.25c.217 0 .412.063.588.188a.955.955 0 0 1 .362.512l1.65 5.375L12.025 2.8a.99.99 0 0 1 .35-.575A.96.96 0 0 1 13 2c.233 0 .442.07.625.212s.3.33.35.563l2.175 9.4 1.4-4.475a.956.956 0 0 1 .363-.513A.987.987 0 0 1 18.5 7c.217 0 .408.058.575.175.167.117.292.275.375.475L20.7 11H22v2h-2a.978.978 0 0 1-.575-.175 1.064 1.064 0 0 1-.375-.475l-.475-1.275L16.95 16.3a.995.995 0 0 1-.375.525.919.919 0 0 1-.625.175 1.012 1.012 0 0 1-.6-.238.974.974 0 0 1-.325-.537L13 7.525l-3.025 13.7a.903.903 0 0 1-.338.55 1.12 1.12 0 0 1-.612.225Z" />
	</symbol>

	<symbol id="kv-applications" viewBox="0 0 24 24" xmlns="http://www.w3.org/2000/svg">
		<path
			d="M16.65 13 11 7.35l5.65-5.65 5.65 5.65L16.65 13ZM3 11V3h8v8H3Zm10 10v-8h8v8h-8ZM3 21v-8h8v8H3Z" />
	</symbol>

	<symbol id="kv-notes" xmlns="http://www.w3.org/2000/svg" viewBox="0 0 20 20">
		<path
			d="M2.5 15V13.3333H12.5V15H2.5ZM2.5 10.8333V9.16667H17.5V10.8333H2.5ZM2.5 6.66667V5H17.5V6.66667H2.5Z" />
	</symbol>

	<symbol id="kv-file-check" xmlns="http://www.w3.org/2000/svg" viewBox="0 0 24 24">
		<path
			d="m10.85 17.625 5.725-5.725-.975-.975-4.75 4.75L8.275 13.1l-.975.975 3.55 3.55ZM5.5 22c-.4 0-.75-.15-1.05-.45-.3-.3-.45-.65-.45-1.05v-17c0-.4.15-.75.45-1.05.3-.3.65-.45 1.05-.45h9.025L20 7.475V20.5c0 .4-.15.75-.45 1.05-.3.3-.65.45-1.05.45h-13Zm8.275-13.85H18.5L13.775 3.5v4.65Z" />
	</symbol>

	<symbol id="kv-reply" xmlns="http://www.w3.org/2000/svg" viewBox="0 0 24 24">
		<path
			d="M19.532 20v-5.24c0-.839-.288-1.543-.866-2.111a2.88 2.88 0 0 0-2.1-.854H6.725l3.596 3.596-1.733 1.732L2 10.563 8.587 4l1.733 1.732-3.596 3.596h9.843c1.504 0 2.787.526 3.846 1.574C21.47 11.952 22 13.24 22 14.761V20h-2.468Z" />
	</symbol>

	<symbol id="kv-schedule" xmlns="http://www.w3.org/2000/svg" viewBox="0 0 24 24">
		<path
			d="M2 19.3671v-6.3158l8.4211-2.1052L2 8.84081V2.52502l15.0526 6.31579h-.3158c-2.0526 0-3.7938.72369-5.2236 2.17109-1.4299 1.4473-2.14478 3.1973-2.14478 5.25L2 19.3671Zm14.7368 2.1053c-1.4561 0-2.6973-.5132-3.7236-1.5395-1.0264-1.0263-1.5395-2.2675-1.5395-3.7237 0-1.4561.5131-2.6973 1.5395-3.7236 1.0263-1.0264 2.2675-1.5395 3.7236-1.5395 1.4562 0 2.6974.5131 3.7237 1.5395C21.4868 13.5119 22 14.7531 22 16.2092c0 1.4562-.5132 2.6974-1.5395 3.7237s-2.2675 1.5395-3.7237 1.5395Zm1.7369-2.7895.7368-.7368-1.9473-1.9474v-2.9474h-1.0527v3.3685l2.2632 2.2631Z" />
	</symbol>

	<symbol id="kv-undo" xmlns="http://www.w3.org/2000/svg" viewBox="0 0 24 24">
		<path
			d="M7 5v2h7.1c1.05 0 1.962.333 2.737 1C17.612 8.667 18 9.5 18 10.5s-.388 1.833-1.163 2.5-1.687 1-2.737 1H7.8l2.6-2.6L9 10l-5 5 5 5 1.4-1.4L7.8 16h6.3c1.617 0 3.004-.525 4.163-1.575C19.421 13.375 20 12.067 20 10.5c0-1.567-.579-2.875-1.737-3.925C17.104 5.525 15.717 5 14.1 5H7Z" />
	</symbol>

	<symbol id="kv-send-message" xmlns="http://www.w3.org/2000/svg" viewBox="0 0 24 24">
		<path
			d="M11 11.8V15C11 15.2833 11.0958 15.5208 11.2875 15.7125C11.4792 15.9042 11.7167 16 12 16C12.2833 16 12.5208 15.9042 12.7125 15.7125C12.9042 15.5208 13 15.2833 13 15V11.8L13.9 12.7C14.0833 12.8833 14.3167 12.975 14.6 12.975C14.8833 12.975 15.1167 12.8833 15.3 12.7C15.4833 12.5167 15.575 12.2833 15.575 12C15.575 11.7167 15.4833 11.4833 15.3 11.3L12.7 8.7C12.5 8.5 12.2667 8.4 12 8.4C11.7333 8.4 11.5 8.5 11.3 8.7L8.7 11.3C8.51667 11.4833 8.425 11.7167 8.425 12C8.425 12.2833 8.51667 12.5167 8.7 12.7C8.88333 12.8833 9.11667 12.975 9.4 12.975C9.68333 12.975 9.91667 12.8833 10.1 12.7L11 11.8ZM12 22C10.6167 22 9.31667 21.7375 8.1 21.2125C6.88333 20.6875 5.825 19.975 4.925 19.075C4.025 18.175 3.3125 17.1167 2.7875 15.9C2.2625 14.6833 2 13.3833 2 12C2 10.6167 2.2625 9.31667 2.7875 8.1C3.3125 6.88333 4.025 5.825 4.925 4.925C5.825 4.025 6.88333 3.3125 8.1 2.7875C9.31667 2.2625 10.6167 2 12 2C13.3833 2 14.6833 2.2625 15.9 2.7875C17.1167 3.3125 18.175 4.025 19.075 4.925C19.975 5.825 20.6875 6.88333 21.2125 8.1C21.7375 9.31667 22 10.6167 22 12C22 13.3833 21.7375 14.6833 21.2125 15.9C20.6875 17.1167 19.975 18.175 19.075 19.075C18.175 19.975 17.1167 20.6875 15.9 21.2125C14.6833 21.7375 13.3833 22 12 22Z" />
	</symbol>

	<symbol id="kv-assets-management" xmlns="http://www.w3.org/2000/svg" viewBox="0 0 24 24">
		<path
			d="M13 5.70064V11.8563H21.9991V6.84358C21.9776 6.33093 21.6515 5.88086 21.1711 5.70064H18.8403V4.29671C18.8355 3.94663 18.6913 3.61292 18.4395 3.36962C18.1878 3.12632 17.8494 2.99355 17.4993 3.00077H15.6994C15.3494 2.99355 15.0109 3.12632 14.7592 3.36962C14.5074 3.61292 14.3632 3.94663 14.3585 4.29671V5.70064H13ZM13 20.9999V14.7812H21.9991V19.7219C21.9843 20.4391 21.3934 21.0099 20.6762 20.9999H13ZM8.55548 20.9801H11V15.1424C10.1475 15.1266 9.4262 14.82 8.83611 14.2226C8.22995 13.6089 7.92687 12.8681 7.92687 12C7.92687 11.1319 8.22995 10.3911 8.83611 9.77743C9.4262 9.18005 10.1475 8.87344 11 8.85761V3.0199H8.55548L8.19627 5.89353C8.01667 5.96837 7.83707 6.05817 7.65747 6.16293C7.47786 6.2677 7.30575 6.37995 7.14111 6.49969L4.46953 5.37718L2 9.64273L4.31238 11.3938C4.29741 11.4986 4.28993 11.5996 4.28993 11.6969V12.3031C4.28993 12.4004 4.29741 12.5014 4.31238 12.6062L2 14.3573L4.46953 18.6228L7.14111 17.5003C7.30575 17.6201 7.47412 17.7323 7.64624 17.8371C7.81836 17.9418 8.0017 18.0316 8.19627 18.1065L8.55548 20.9801Z" />
	</symbol>

	<symbol id="kv-orchestration" xmlns="http://www.w3.org/2000/svg" viewBox="0 0 24 24">
		<path
			d="M9 16.889c.55 0 1.02-.196 1.412-.588.392-.391.588-.862.588-1.412 0-.55-.196-1.021-.588-1.413A1.926 1.926 0 0 0 9 12.89c-.55 0-1.02.196-1.412.587A1.926 1.926 0 0 0 7 14.89c0 .55.196 1.02.588 1.412.391.392.862.588 1.412.588Zm6 0c.55 0 1.02-.196 1.413-.588.391-.391.587-.862.587-1.412 0-.55-.196-1.021-.587-1.413A1.926 1.926 0 0 0 15 12.89c-.55 0-1.02.196-1.412.587A1.926 1.926 0 0 0 13 14.89c0 .55.196 1.02.588 1.412.391.392.862.588 1.412.588Zm-3-5c.55 0 1.02-.196 1.412-.588.392-.392.588-.862.588-1.412 0-.55-.196-1.021-.588-1.413A1.926 1.926 0 0 0 12 7.89c-.55 0-1.02.196-1.412.587A1.926 1.926 0 0 0 10 9.89c0 .55.196 1.02.588 1.412.391.392.862.588 1.412.588Zm0 11a9.738 9.738 0 0 1-3.9-.788 10.099 10.099 0 0 1-3.175-2.137 10.1 10.1 0 0 1-2.137-3.175 9.738 9.738 0 0 1-.788-3.9c0-1.384.263-2.684.788-3.9a10.099 10.099 0 0 1 2.137-3.175c.9-.9 1.958-1.613 3.175-2.138A9.738 9.738 0 0 1 12 2.89c1.383 0 2.683.262 3.9.787a10.098 10.098 0 0 1 3.175 2.138c.9.9 1.613 1.958 2.137 3.175a9.737 9.737 0 0 1 .788 3.9 9.738 9.738 0 0 1-.788 3.9 10.1 10.1 0 0 1-2.137 3.175c-.9.9-1.958 1.612-3.175 2.137a9.738 9.738 0 0 1-3.9.788Z" />
	</symbol>

	<symbol id="kv-documentation" xmlns="http://www.w3.org/2000/svg" viewBox="0 0 24 24">
		<path
			d="M5 21c-.55 0-1.02-.196-1.413-.587A1.926 1.926 0 0 1 3 19V5c0-.55.196-1.02.587-1.413A1.926 1.926 0 0 1 5 3h14c.55 0 1.02.196 1.413.587C20.803 3.98 21 4.45 21 5v14c0 .55-.196 1.02-.587 1.413A1.926 1.926 0 0 1 19 21H5Zm2-4h7v-2H7v2Zm0-4h10v-2H7v2Zm0-4h10V7H7v2Z" />
	</symbol>

	<symbol id="kv-support" xmlns="http://www.w3.org/2000/svg" viewBox="0 0 24 24">
		<path
			d="M12 22a9.738 9.738 0 0 1-3.9-.788 10.099 10.099 0 0 1-3.175-2.137c-.9-.9-1.612-1.958-2.137-3.175A9.738 9.738 0 0 1 2 12c0-1.383.263-2.683.788-3.9a10.099 10.099 0 0 1 2.137-3.175c.9-.9 1.958-1.612 3.175-2.137A9.738 9.738 0 0 1 12 2c1.383 0 2.683.263 3.9.788a10.098 10.098 0 0 1 3.175 2.137c.9.9 1.613 1.958 2.137 3.175A9.738 9.738 0 0 1 22 12a9.738 9.738 0 0 1-.788 3.9 10.098 10.098 0 0 1-2.137 3.175c-.9.9-1.958 1.613-3.175 2.137A9.738 9.738 0 0 1 12 22Zm-2.9-2.55 1.2-2.75a4.677 4.677 0 0 1-1.813-1.162A5.672 5.672 0 0 1 7.3 13.7l-2.75 1.15c.383 1.067.975 2 1.775 2.8.8.8 1.725 1.4 2.775 1.8ZM7.3 10.3c.283-.7.68-1.313 1.188-1.838A4.677 4.677 0 0 1 10.3 7.3L9.15 4.55c-1.067.4-2 1-2.8 1.8-.8.8-1.4 1.733-1.8 2.8L7.3 10.3ZM12 15c.833 0 1.542-.292 2.125-.875A2.893 2.893 0 0 0 15 12c0-.833-.292-1.542-.875-2.125A2.893 2.893 0 0 0 12 9c-.833 0-1.542.292-2.125.875A2.893 2.893 0 0 0 9 12c0 .833.292 1.542.875 2.125A2.893 2.893 0 0 0 12 15Zm2.9 4.45a7.78 7.78 0 0 0 2.763-1.787A7.78 7.78 0 0 0 19.45 14.9l-2.75-1.2c-.25.7-.633 1.304-1.15 1.813a5.597 5.597 0 0 1-1.8 1.187l1.15 2.75Zm1.8-9.2 2.75-1.15a7.78 7.78 0 0 0-1.787-2.762A7.78 7.78 0 0 0 14.9 4.55l-1.15 2.8c.683.25 1.275.63 1.775 1.138.5.508.892 1.095 1.175 1.762Z" />
	</symbol>

	<symbol id="kv-dotted-circle" xmlns="http://www.w3.org/2000/svg" viewBox="0 0 24 24">
		<circle cx="12" cy="12" r="9" fill="var(--icon-background-color, none)" />
		<path fill-rule="evenodd"
			d="M12 22a10 10 0 1 0 0-20 10 10 0 0 0 0 20Zm-5.56-8.94c.3.3.65.44 1.06.44.41 0 .77-.15 1.06-.44.3-.3.44-.65.44-1.06 0-.41-.15-.77-.44-1.06-.3-.3-.65-.44-1.06-.44-.41 0-.77.15-1.06.44-.3.3-.44.65-.44 1.06 0 .41.15.77.44 1.06Zm4.5 0c.3.3.65.44 1.06.44.41 0 .77-.15 1.06-.44.3-.3.44-.65.44-1.06 0-.41-.15-.77-.44-1.06-.3-.3-.65-.44-1.06-.44-.41 0-.77.15-1.06.44-.3.3-.44.65-.44 1.06 0 .41.15.77.44 1.06Zm4.5 0c.3.3.65.44 1.06.44.41 0 .77-.15 1.06-.44.3-.3.44-.65.44-1.06 0-.41-.15-.77-.44-1.06-.3-.3-.65-.44-1.06-.44-.41 0-.77.15-1.06.44-.3.3-.44.65-.44 1.06 0 .41.15.77.44 1.06Z"
			clip-rule="evenodd" />
	</symbol>

	<symbol id="kv-sync" xmlns="http://www.w3.org/2000/svg" viewBox="0 0 24 24">
		<path
			d="M12.05 20q-3.35.001-5.698-2.324Q4 15.35 4 12v-.176l-1.602 1.602L1 12.023l4-4 4 4-1.398 1.403L6 11.824V12q-.001 2.5 1.762 4.25T12.05 18q.651 0 1.273-.148c.418-.102.824-.25 1.227-.454l1.5 1.5a8.3 8.3 0 0 1-1.95.829 7.7 7.7 0 0 1-2.05.273M19 15.977l-4-4 1.398-1.403L18 12.176V12q.001-2.5-1.762-4.25T11.95 6q-.651 0-1.273.148c-.418.102-.824.25-1.227.454l-1.5-1.5a8.3 8.3 0 0 1 1.95-.829A7.7 7.7 0 0 1 11.948 4q3.351-.001 5.7 2.324Q19.998 8.65 20 12v.176l1.602-1.602L23 11.977Zm0 0" />
	</symbol>

	<symbol id="kv-sync-circle" xmlns="http://www.w3.org/2000/svg" viewBox="0 0 24 24">
		<circle cx="12" cy="12" r="9" fill="var(--icon-background-color, none)" />
		<path
			d="m12.05 19 2.85-2.82-2.85-2.83L11 14.4l1.07 1.07a3.47 3.47 0 0 1-2.54-1 3.43 3.43 0 0 1-.92-3.3c.08-.28.18-.55.32-.82l-1.1-1.1c-.29.42-.5.86-.63 1.32a5.16 5.16 0 0 0 .17 3.3 4.94 4.94 0 0 0 2.73 2.74c.6.24 1.22.37 1.85.39l-.95.95L12.05 19Zm4.13-4.25c.28-.42.49-.86.62-1.32a5.16 5.16 0 0 0-.16-3.32 4.76 4.76 0 0 0-2.73-2.73 5.17 5.17 0 0 0-1.86-.35l.95-.98L11.95 5 9.1 7.83l2.85 2.82L13 9.6l-1.1-1.1c.45 0 .9.09 1.38.26a3.33 3.33 0 0 1 1.96 1.92 3.45 3.45 0 0 1-.17 2.97l1.1 1.1ZM12 22a10.1 10.1 0 0 1-9.21-6.1A9.73 9.73 0 0 1 2 12a10.1 10.1 0 0 1 6.1-9.21A9.74 9.74 0 0 1 12 2a10.1 10.1 0 0 1 9.21 6.1c.53 1.22.79 2.52.79 3.9s-.26 2.68-.79 3.9a10.1 10.1 0 0 1-5.31 5.31A9.73 9.73 0 0 1 12 22Z" />
	</symbol>

	<symbol id="kv-sync-error" xmlns="http://www.w3.org/2000/svg" viewBox="0 0 24 24">
		<path
			d="M3 20v-2h2.75l-.398-.352q-1.227-1.224-1.79-2.66A8 8 0 0 1 3 12.051q0-2.777 1.664-4.938C5.77 5.672 7.214 4.715 9 4.25v2.102a5.9 5.9 0 0 0-2.898 2.21A5.9 5.9 0 0 0 5 12.052c0 .75.14 1.476.426 2.187.281.707.722 1.364 1.324 1.961l.25.25V14h2v6Zm9-3a.96.96 0 0 1-.71-.29A.96.96 0 0 1 11 16q.001-.426.29-.71A.96.96 0 0 1 12 15q.426.001.71.29.289.284.29.71-.001.426-.29.71A.96.96 0 0 1 12 17m-1-4V7h2v6Zm4 6.75v-2.102a5.9 5.9 0 0 0 2.898-2.21A5.9 5.9 0 0 0 19 11.949c0-.75-.14-1.476-.426-2.187-.281-.707-.722-1.364-1.324-1.961L17 7.55V10h-2V4h6v2h-2.75l.398.352q1.227 1.224 1.79 2.66Q21 10.45 21 11.949q0 2.776-1.664 4.938c-1.106 1.441-2.55 2.398-4.336 2.863m0 0" />
	</symbol>

	<symbol id="kv-task-checkmark" xmlns="http://www.w3.org/2000/svg" viewBox="0 0 24 24">
		<path
			d="M12 22a9.738 9.738 0 0 1-3.9-.788 10.099 10.099 0 0 1-3.175-2.137c-.9-.9-1.612-1.958-2.137-3.175A9.738 9.738 0 0 1 2 12c0-1.383.263-2.683.788-3.9a10.099 10.099 0 0 1 2.137-3.175c.9-.9 1.958-1.612 3.175-2.137A9.738 9.738 0 0 1 12 2c1.083 0 2.108.158 3.075.475.967.317 1.858.758 2.675 1.325L16.3 5.275a8.6 8.6 0 0 0-2.025-.938A7.552 7.552 0 0 0 12 4c-2.217 0-4.104.78-5.662 2.338C4.779 7.896 4 9.783 4 12s.78 4.104 2.338 5.663C7.896 19.22 9.783 20 12 20s4.104-.78 5.663-2.337C19.22 16.104 20 14.217 20 12c0-.3-.017-.6-.05-.9a7.356 7.356 0 0 0-.15-.875L21.425 8.6c.183.533.325 1.083.425 1.65.1.567.15 1.15.15 1.75a9.738 9.738 0 0 1-.788 3.9 10.098 10.098 0 0 1-2.137 3.175c-.9.9-1.958 1.613-3.175 2.137A9.738 9.738 0 0 1 12 22Zm-1.4-5.4-4.25-4.25 1.4-1.4 2.85 2.85 10-10.025 1.4 1.4L10.6 16.6Z" />
	</symbol>

	<symbol id="kv-help-circle" xmlns="http://www.w3.org/2000/svg" viewBox="0 0 24 24">
		<path
			d="M11.95 18c.35 0 .646-.12.888-.363.241-.241.362-.537.362-.887s-.12-.646-.362-.887a1.207 1.207 0 0 0-.888-.363c-.35 0-.646.12-.887.363a1.207 1.207 0 0 0-.363.887c0 .35.12.646.363.887.241.242.537.363.887.363Zm-.9-3.85h1.85c0-.55.063-.983.188-1.3.125-.317.479-.75 1.062-1.3a7.494 7.494 0 0 0 1.025-1.238c.25-.391.375-.862.375-1.412 0-.933-.342-1.65-1.025-2.15-.683-.5-1.492-.75-2.425-.75-.95 0-1.72.25-2.313.75-.591.5-1.004 1.1-1.237 1.8l1.65.65c.083-.3.27-.625.563-.975.291-.35.737-.525 1.337-.525.533 0 .933.146 1.2.437.267.292.4.613.4.963 0 .333-.1.646-.3.938-.2.291-.45.562-.75.812-.733.65-1.183 1.142-1.35 1.475-.167.333-.25.942-.25 1.825ZM12 22a9.738 9.738 0 0 1-3.9-.788 10.099 10.099 0 0 1-3.175-2.137c-.9-.9-1.612-1.958-2.137-3.175A9.738 9.738 0 0 1 2 12c0-1.383.263-2.683.788-3.9a10.099 10.099 0 0 1 2.137-3.175c.9-.9 1.958-1.612 3.175-2.137A9.738 9.738 0 0 1 12 2c1.383 0 2.683.263 3.9.788a10.098 10.098 0 0 1 3.175 2.137c.9.9 1.613 1.958 2.137 3.175A9.738 9.738 0 0 1 22 12a9.738 9.738 0 0 1-.788 3.9 10.098 10.098 0 0 1-2.137 3.175c-.9.9-1.958 1.613-3.175 2.137A9.738 9.738 0 0 1 12 22Z" />
	</symbol>

	<symbol id="kv-control"
		xmlns="http://www.w3.org/2000/svg" viewBox="0 0 24 24">
		<path
			d="M1.5 18.842v-2.105h2.91l-.424-.369q-1.375-1.21-1.93-2.763a9.2 9.2 0 0 1-.556-3.131q0-2.922 1.759-5.198t4.589-3.013v2.21a6.27 6.27 0 0 0-3.068 2.33 6.2 6.2 0 0 0-1.164 3.67q0 1.185.45 2.303.45 1.12 1.401 2.066l.265.263v-2.579h2.116v6.316zm18.964-9.474H18.32a5.5 5.5 0 0 0-.569-1.763A6.8 6.8 0 0 0 16.577 6l-.265-.263v2.579h-2.116V2h6.348v2.105h-2.91l.424.369q1.084 1.105 1.666 2.342.582 1.236.74 2.552M16.31 22l-.317-1.579a8 8 0 0 1-.595-.276 5 5 0 0 1-.569-.355l-1.534.473-1.058-1.79 1.217-1.052a5 5 0 0 1-.053-.684q0-.316.053-.684L12.238 15l1.058-1.79 1.534.474q.29-.21.569-.355.277-.145.595-.276l.317-1.58h2.116l.317 1.58q.318.13.595.29.278.156.57.394l1.533-.527 1.058 1.843-1.217 1.052q.054.316.053.658 0 .342-.053.658l1.217 1.053-1.058 1.79-1.534-.474q-.29.21-.569.355a8 8 0 0 1-.595.276L18.427 22zm1.058-3.158q.873 0 1.494-.618.622-.619.622-1.487 0-.87-.622-1.487a2.04 2.04 0 0 0-1.494-.618q-.873 0-1.494.618a2.02 2.02 0 0 0-.622 1.487q0 .868.622 1.487.621.618 1.494.618" />
	</symbol>

	<symbol id="kv-control-change" xmlns="http://www.w3.org/2000/svg" viewBox="0 0 24 24">
		<path
			d="M11 21v-6h2v2h8v2h-8v2h-2Zm-8-2v-2h6v2H3Zm4-4v-2H3v-2h4V9h2v6H7Zm4-2v-2h10v2H11Zm4-4V3h2v2h4v2h-4v2h-2ZM3 7V5h10v2H3Z" />
	</symbol>

	<symbol id="kv-action"
		xmlns="http://www.w3.org/2000/svg" viewBox="0 0 24 24">
		<g transform="translate(.923)scale(1.84615)">
			<path d="m3.5 11.5 2-3.75-4-.5 6-5.75h1l-2 3.75 4 .5-6 5.75z" />
		</g>
	</symbol>

	<symbol id="kv-activity" xmlns="http://www.w3.org/2000/svg" viewBox="0 0 24 24">
		<path
			d="M5.467 20.4c-.514 0-.953-.183-1.319-.548a1.798 1.798 0 0 1-.548-1.319V5.467c0-.514.183-.953.548-1.319A1.797 1.797 0 0 1 5.467 3.6h10.266L20.4 8.267v10.266c0 .514-.183.953-.548 1.319a1.798 1.798 0 0 1-1.319.548H5.467Zm2.8-3.733c.264 0 .486-.09.665-.269a.903.903 0 0 0 .268-.665.903.903 0 0 0-.268-.665.903.903 0 0 0-.665-.268.904.904 0 0 0-.665.268.903.903 0 0 0-.269.665c0 .265.09.486.269.665.179.18.4.269.665.269Zm0-3.734c.264 0 .486-.09.665-.268A.903.903 0 0 0 9.2 12a.903.903 0 0 0-.268-.665.903.903 0 0 0-.665-.268.903.903 0 0 0-.665.268.903.903 0 0 0-.269.665c0 .264.09.486.269.665.179.179.4.268.665.268Zm0-3.733c.264 0 .486-.09.665-.268a.903.903 0 0 0 .268-.665.903.903 0 0 0-.268-.665.903.903 0 0 0-.665-.269.903.903 0 0 0-.665.269.903.903 0 0 0-.269.665c0 .264.09.486.269.665.179.179.4.268.665.268Zm6.533 0h3.733L14.8 5.467V9.2Z" />
	</symbol>

	<symbol id="kv-avatar" xmlns="http://www.w3.org/2000/svg" viewBox="0 0 24 24">
		<path
			d="M5.85 17.1c.85-.65 1.8-1.163 2.85-1.538A9.737 9.737 0 0 1 12 15c1.15 0 2.25.188 3.3.563 1.05.374 2 .887 2.85 1.537a7.73 7.73 0 0 0 1.363-2.325A7.838 7.838 0 0 0 20 12c0-2.217-.78-4.104-2.337-5.662C16.104 4.779 14.217 4 12 4s-4.104.78-5.662 2.338C4.779 7.896 4 9.783 4 12c0 .983.162 1.908.487 2.775.325.867.78 1.642 1.363 2.325ZM12 13c-.983 0-1.813-.338-2.488-1.012C8.837 11.313 8.5 10.483 8.5 9.5c0-.983.338-1.813 1.012-2.487C10.188 6.338 11.017 6 12 6c.983 0 1.813.338 2.488 1.013.675.675 1.012 1.504 1.012 2.487 0 .983-.338 1.813-1.012 2.488C13.813 12.663 12.983 13 12 13Zm0 9a9.738 9.738 0 0 1-3.9-.788 10.099 10.099 0 0 1-3.175-2.137c-.9-.9-1.612-1.958-2.137-3.175A9.738 9.738 0 0 1 2 12c0-1.383.263-2.683.788-3.9a10.099 10.099 0 0 1 2.137-3.175c.9-.9 1.958-1.612 3.175-2.137A9.738 9.738 0 0 1 12 2c1.383 0 2.683.263 3.9.788a10.098 10.098 0 0 1 3.175 2.137c.9.9 1.613 1.958 2.137 3.175A9.738 9.738 0 0 1 22 12a9.738 9.738 0 0 1-.788 3.9 10.098 10.098 0 0 1-2.137 3.175c-.9.9-1.958 1.613-3.175 2.137A9.738 9.738 0 0 1 12 22Z" />
	</symbol>

	<symbol id="kv-swagger"
		xmlns="http://www.w3.org/2000/svg" viewBox="0 0 24 24">
		<path
			d="M6.98871 3.34583c-6.651616 3.83473-6.651613 13.47357 0 17.30837C13.6403 24.4889 22 19.6695 22 12 22 4.33053 13.6403-.488906 6.98871 3.34583Zm1.9009 14.61327c-4.77108 0-.77848-5.3646-4.09281-5.2721v-1.4336c3.12651.3879-.6012-5.71145 4.06968-5.17962v1.10991c-2.60521.06167-.01541 3.39141-2.35856 4.78651 2.35856 1.5492-.12333 5.0794 2.38169 4.694v1.2949Zm-.16741-5.2118c-.53833-.3103-.53833-1.0904 0-1.4008.53832-.3103 1.21488.0797 1.21488.7004s-.67656 1.0107-1.21488.7004Zm2.8722 0c-.5383-.3103-.5383-1.0904 0-1.4008.5384-.3103 1.2149.0797 1.2149.7004s-.6765 1.0107-1.2149.7004Zm2.8723 0c-.5384-.3103-.5384-1.0904 0-1.4008.5383-.3103 1.2148.0797 1.2148.7004s-.6765 1.0107-1.2148.7004Zm.6437 5.2118v-1.2949c2.505.3854.0231-3.1448 2.3817-4.694-2.3432-1.3951.2466-4.72484-2.3586-4.78651V6.07378c4.6709-.53183.9432 5.56752 4.0697 5.17962v1.4336c-3.3143-.0925.6783 5.2721-4.0928 5.2721Z" />
	</symbol>

	<symbol id="kv-monitoring"
		xmlns="http://www.w3.org/2000/svg" viewBox="0 0 24 24">
		<path
			d="M3 21v-2l2-2v4H3Zm4 0v-6l2-2v8H7Zm4 0v-8l2 2.025V21h-2Zm4 0v-5.975l2-2V21h-2Zm4 0V11l2-2v12h-2ZM3 15.825V13l7-7 4 4 7-7v2.825l-7 7-4-4-7 7Z" />
	</symbol>

	<symbol id="kv-guardrails"
		xmlns="http://www.w3.org/2000/svg" viewBox="0 0 24 24">
		<path
			d="M20.684 3.58H3.316C2.589 3.58 2 4.169 2 4.896v7.894c0 .728.589 1.316 1.316 1.316H4.67v5h-.658a.658.658 0 0 0 0 1.316h3.29a.658.658 0 0 0 0-1.316h-.658v-5h10.79v5h-.659a.658.658 0 0 0 0 1.316h3.29a.658.658 0 0 0 0-1.316h-.658v-5h1.276c.727 0 1.316-.588 1.316-1.316V4.896c0-.727-.589-1.316-1.316-1.316ZM3.316 5.225a.33.33 0 0 1 .329-.33H5.25c.293 0 .44.355.232.563L3.877 7.06a.329.329 0 0 1-.561-.233V5.225Zm1.123 5.844c-.678.678-1.513-.434-.93-1.017l4.963-4.963c.58-.581 1.696.25 1.017.93l-5.05 5.05Zm2.02.598 6.579-6.578c.58-.581 1.696.25 1.017.93l-6.58 6.579c-.58.58-1.695-.252-1.016-.93Zm3.738.137 6.58-6.58c.58-.58 1.695.252 1.016.931l-6.579 6.579c-.581.58-1.696-.251-1.017-.93Zm10.487.658a.329.329 0 0 1-.329.329h-1.58a.33.33 0 0 1-.234-.562l1.581-1.581a.33.33 0 0 1 .562.233v1.58Zm-.193-4.801-4.936 4.937c-.581.58-1.696-.252-1.018-.93l5.024-5.024c.678-.678 1.514.433.93 1.017Z" />
	</symbol>

	<symbol id="kv-role"
		xmlns="http://www.w3.org/2000/svg" viewBox="0 0 24 24">
		<path
			d="m16.106 20.573-.303-1.513a7.1 7.1 0 0 1-.566-.264 4.375 4.375 0 0 1-.542-.34l-1.46.453-1.008-1.714 1.158-1.009a4.657 4.657 0 0 1-.05-.655c0-.202.017-.42.05-.656l-1.158-1.008 1.007-1.714 1.461.454c.185-.135.365-.248.542-.34a7.17 7.17 0 0 1 .566-.266l.303-1.512h2.015L18.423 12c.202.085.39.177.567.278.176.1.357.227.542.378l1.46-.504L22 13.917l-1.159 1.009c.034.201.05.412.05.63 0 .219-.016.429-.05.63L22 17.195l-1.008 1.714-1.46-.454a4.375 4.375 0 0 1-.542.34 7.1 7.1 0 0 1-.567.265l-.302 1.513h-2.015ZM2 19.564v-2.823c0-.555.143-1.076.428-1.563.286-.488.68-.857 1.184-1.11A15.77 15.77 0 0 1 6.51 12.96c1.075-.302 2.258-.453 3.551-.453h.353c.1 0 .202.016.302.05-.487 1.21-.688 2.412-.604 3.605.084 1.193.487 2.328 1.209 3.403H2Zm15.113-2.016a1.94 1.94 0 0 0 1.424-.593c.394-.395.591-.87.591-1.424 0-.555-.197-1.03-.591-1.425a1.94 1.94 0 0 0-1.424-.592 1.94 1.94 0 0 0-1.423.593c-.394.394-.592.87-.592 1.424 0 .554.198 1.03.592 1.424a1.94 1.94 0 0 0 1.423.593Zm-7.053-6.05c-1.108 0-2.057-.396-2.846-1.186-.79-.79-1.184-1.74-1.184-2.848 0-1.11.395-2.06 1.184-2.85.79-.789 1.738-1.184 2.846-1.184 1.109 0 2.057.395 2.847 1.185s1.184 1.74 1.184 2.849c0 1.109-.395 2.058-1.184 2.848-.79.79-1.738 1.185-2.847 1.185Z" />
	</symbol>

	<symbol id="kv-users"
		xmlns="http://www.w3.org/2000/svg" viewBox="0 0 24 24">
		<path
			d="M2 19.265V16.72c0-.515.133-.989.398-1.42a2.651 2.651 0 0 1 1.057-.99c.939-.469 1.893-.821 2.863-1.056.97-.235 1.955-.352 2.955-.352s1.985.117 2.954.352c.97.235 1.925.587 2.864 1.057.44.227.792.557 1.057.989.265.431.398.905.398 1.42v2.546H2Zm16.364 0v-2.727c0-.667-.186-1.307-.557-1.92-.371-.614-.898-1.14-1.58-1.58a11.374 11.374 0 0 1 4.09 1.273c.547.303.963.64 1.251 1.011.288.372.432.777.432 1.216v2.727h-3.636Zm-9.091-7.272c-1 0-1.856-.356-2.568-1.069-.713-.712-1.069-1.568-1.069-2.568S5.992 6.5 6.705 5.788c.712-.712 1.568-1.068 2.568-1.068s1.856.356 2.568 1.068c.712.712 1.068 1.568 1.068 2.568s-.356 1.856-1.068 2.569c-.712.712-1.568 1.068-2.568 1.068Zm9.09-3.637c0 1-.355 1.856-1.067 2.569-.713.712-1.569 1.068-2.569 1.068-.166 0-.379-.02-.636-.057a5.56 5.56 0 0 1-.636-.125c.409-.485.723-1.023.943-1.614.22-.59.33-1.204.33-1.84 0-.637-.11-1.25-.33-1.842a5.406 5.406 0 0 0-.944-1.613c.213-.076.425-.125.637-.148a5.97 5.97 0 0 1 .636-.034c1 0 1.856.356 2.569 1.068.712.712 1.068 1.568 1.068 2.568Z" />
	</symbol>

	<symbol id="kv-included"
		xmlns="http://www.w3.org/2000/svg" viewBox="0 0 24 24">
		<path
			d="M12 22a9.738 9.738 0 0 1-3.9-.788 10.099 10.099 0 0 1-3.175-2.137c-.9-.9-1.612-1.958-2.137-3.175A9.738 9.738 0 0 1 2 12c0-2.2.642-4.18 1.925-5.938S6.9 3.1 9 2.45V4.6a7.878 7.878 0 0 0-3.638 2.938A7.786 7.786 0 0 0 4 12c0 2.233.775 4.125 2.325 5.675C7.875 19.225 9.767 20 12 20c2.233 0 4.125-.775 5.675-2.325C19.225 16.125 20 14.233 20 12c0-1.633-.454-3.12-1.363-4.463A7.878 7.878 0 0 0 15 4.6V2.45c2.1.65 3.792 1.854 5.075 3.612C21.358 7.822 22 9.8 22 12a9.738 9.738 0 0 1-.788 3.9 10.098 10.098 0 0 1-2.137 3.175c-.9.9-1.958 1.613-3.175 2.137A9.738 9.738 0 0 1 12 22Zm0-6-5-5 1.4-1.4 2.6 2.575V2h2v10.175L15.6 9.6 17 11l-5 5Z" />
	</symbol>

	<symbol id="kv-not-included"
		xmlns="http://www.w3.org/2000/svg" viewBox="0 0 24 24">
		<path fill-rule="evenodd"
			d="M8.1 21.212A9.738 9.738 0 0 0 12 22a9.738 9.738 0 0 0 3.9-.788 10.098 10.098 0 0 0 3.175-2.137c.9-.9 1.613-1.958 2.137-3.175A9.738 9.738 0 0 0 22 12c0-2.2-.642-4.18-1.925-5.938-.3-.41-.62-.789-.964-1.139l1.745-1.744L19.678 2 17.84 3.838A9.928 9.928 0 0 0 15 2.45V4.6a8.3 8.3 0 0 1 1.37.708L13 8.678V2h-2v8.678l-.752.752L8.4 9.6 7 11l1.839 1.839L5.276 16.4C4.426 15.121 4 13.655 4 12c0-1.633.454-3.12 1.362-4.463A7.878 7.878 0 0 1 9 4.6V2.45c-2.1.65-3.792 1.854-5.075 3.612C2.642 7.822 2 9.8 2 12c0 1.383.263 2.683.788 3.9.297.69.655 1.329 1.073 1.917L2 19.677l1.179 1.18 1.763-1.765a10.1 10.1 0 0 0 3.158 2.12Zm-1.758-3.52C7.89 19.231 9.775 20 12 20c2.233 0 4.125-.775 5.675-2.325C19.225 16.125 20 14.233 20 12c0-1.633-.454-3.12-1.363-4.463a8.123 8.123 0 0 0-.964-1.175L13 11.035v1.14L15.6 9.6 17 11l-5 5-1.983-1.983-3.675 3.675Z"
			clip-rule="evenodd" />
	</symbol>

	<symbol id="kv-world"
		xmlns="http://www.w3.org/2000/svg" viewBox="0 0 24 24">
		<path
			d="M12 22a9.7 9.7 0 0 1-3.898-.79 9.96 9.96 0 0 1-5.313-5.312A9.7 9.7 0 0 1 2 12q-.001-2.076.79-3.898a9.96 9.96 0 0 1 5.312-5.313A9.7 9.7 0 0 1 12 2q2.076-.001 3.898.79a9.96 9.96 0 0 1 5.313 5.312A9.7 9.7 0 0 1 22 12a9.7 9.7 0 0 1-.79 3.898 9.96 9.96 0 0 1-5.312 5.313A9.7 9.7 0 0 1 12 22m-1-2.05V18q-.825.001-1.41-.59A1.9 1.9 0 0 1 9 16v-1l-4.8-4.8c-.052.3-.095.6-.138.902A6 6 0 0 0 4 12q.001 3.023 1.988 5.3Q7.975 19.575 11 19.95m6.902-2.552a9 9 0 0 0 .899-1.187c.265-.422.488-.867.66-1.324.176-.457.309-.93.402-1.41A8 8 0 0 0 20 12a7.85 7.85 0 0 0-1.363-4.477A7.7 7.7 0 0 0 15 4.602V5q.001.826-.59 1.414c-.39.39-.86.59-1.41.59h-2V9c0 .281-.094.52-.29.71A.96.96 0 0 1 10 10H8v2h6q.426.001.71.29A.97.97 0 0 1 15 13v3h1q.65 0 1.176.387.527.389.726 1.011" />
	</symbol>

	<symbol id="kv-ai" xmlns="http://www.w3.org/2000/svg" viewBox="0 0 20 20">
		<path
			d="M8.24553 9.34293C7.91553 9.23294 7.91553 8.76699 8.24553 8.657L10.1825 8.01207C10.6083 7.87011 10.9952 7.63094 11.3125 7.3135C11.6298 6.99607 11.8688 6.6091 12.0105 6.18327L12.6555 4.24747C12.7655 3.91751 13.2315 3.91751 13.3416 4.24747L13.9866 6.18427C14.1285 6.61002 14.3677 6.99686 14.6852 7.31412C15.0027 7.63138 15.3897 7.87035 15.8156 8.01207L17.7516 8.657C17.8238 8.68071 17.8868 8.72664 17.9314 8.78823C17.976 8.84982 18 8.92392 18 8.99996C18 9.07601 17.976 9.15011 17.9314 9.2117C17.8868 9.27329 17.8238 9.31921 17.7516 9.34293L15.8146 9.98786C15.3889 10.1297 15.0021 10.3687 14.6848 10.686C14.3675 11.0032 14.1284 11.39 13.9866 11.8157L13.3416 13.7525C13.3178 13.8247 13.2719 13.8876 13.2103 13.9322C13.1487 13.9768 13.0746 14.0009 12.9985 14.0009C12.9225 14.0009 12.8484 13.9768 12.7868 13.9322C12.7252 13.8876 12.6793 13.8247 12.6555 13.7525L12.0105 11.8157C11.8687 11.39 11.6296 11.0032 11.3123 10.686C10.995 10.3687 10.6082 10.1297 10.1825 9.98786L8.24553 9.34293ZM3.14651 13.2055C3.1032 13.1912 3.06552 13.1636 3.03881 13.1266C3.0121 13.0896 2.99772 13.0451 2.99772 12.9995C2.99772 12.9539 3.0121 12.9095 3.03881 12.8725C3.06552 12.8355 3.1032 12.8079 3.14651 12.7936L4.30851 12.4066C4.82651 12.2336 5.23252 11.8277 5.40552 11.3097L5.79252 10.1478C5.80686 10.1045 5.83448 10.0669 5.87146 10.0402C5.90844 10.0134 5.9529 9.99907 5.99852 9.99907C6.04414 9.99907 6.0886 10.0134 6.12558 10.0402C6.16256 10.0669 6.19018 10.1045 6.20452 10.1478L6.59152 11.3097C6.67664 11.5652 6.82009 11.7973 7.0105 11.9877C7.20091 12.1781 7.43305 12.3215 7.68853 12.4066L8.85053 12.7936C8.89384 12.8079 8.93152 12.8355 8.95823 12.8725C8.98494 12.9095 8.99932 12.9539 8.99932 12.9995C8.99932 13.0451 8.98494 13.0896 8.95823 13.1266C8.93152 13.1636 8.89384 13.1912 8.85053 13.2055L7.68853 13.5925C7.43305 13.6776 7.20091 13.821 7.0105 14.0114C6.82009 14.2018 6.67664 14.4339 6.59152 14.6894L6.20452 15.8512C6.19018 15.8945 6.16256 15.9322 6.12558 15.9589C6.0886 15.9856 6.04414 16 5.99852 16C5.9529 16 5.90844 15.9856 5.87146 15.9589C5.83448 15.9322 5.80686 15.8945 5.79252 15.8512L5.40552 14.6894C5.3204 14.4339 5.17695 14.2018 4.98654 14.0114C4.79613 13.821 4.56399 13.6776 4.30851 13.5925L3.14651 13.2055ZM2.0975 6.13727C2.06903 6.1274 2.04434 6.10891 2.02686 6.08436C2.00939 6.0598 2 6.03042 2 6.00029C2 5.97015 2.00939 5.94077 2.02686 5.91622C2.04434 5.89167 2.06903 5.87317 2.0975 5.8633L2.87151 5.60533C3.21751 5.49034 3.48851 5.21937 3.60351 4.87341L3.86151 4.09949C3.87138 4.07102 3.88988 4.04633 3.91443 4.02886C3.93899 4.01139 3.96837 4.002 3.99851 4.002C4.02865 4.002 4.05803 4.01139 4.08259 4.02886C4.10714 4.04633 4.12564 4.07102 4.13551 4.09949L4.39351 4.87341C4.45024 5.0439 4.54593 5.19882 4.673 5.32588C4.80006 5.45293 4.955 5.54861 5.12552 5.60533L5.89952 5.8633C5.92799 5.87317 5.95268 5.89167 5.97016 5.91622C5.98763 5.94077 5.99702 5.97015 5.99702 6.00029C5.99702 6.03042 5.98763 6.0598 5.97016 6.08436C5.95268 6.10891 5.92799 6.1274 5.89952 6.13727L5.12552 6.39524C4.955 6.45196 4.80006 6.54764 4.673 6.6747C4.54593 6.80175 4.45024 6.95667 4.39351 7.12717L4.13551 7.90008C4.12564 7.92855 4.10714 7.95324 4.08259 7.97071C4.05804 7.98819 4.02865 7.99757 3.99851 7.99757C3.96837 7.99757 3.93899 7.98819 3.91443 7.97071C3.88988 7.95324 3.87138 7.92855 3.86151 7.90008L3.60351 7.12617C3.48851 6.7802 3.21751 6.50923 2.87151 6.39425L2.0975 6.13727Z" />
	</symbol>

	<symbol id="kv-content-expand" xmlns="http://www.w3.org/2000/svg" viewBox="0 0 20 20">
		<path
			d="M4.16699 15.8334V10.8334H5.83366V14.1667H9.16699V15.8334H4.16699ZM14.167 9.16669V5.83335H10.8337V4.16669H15.8337V9.16669H14.167Z" />
	</symbol>

	<symbol id="kv-bookmark" xmlns="http://www.w3.org/2000/svg" viewBox="0 0 16 16">
		<path
			d="M4.667 10.667H6v-8H4.667v8Zm9.333 4H4a1.929 1.929 0 0 1-1.417-.583A1.929 1.929 0 0 1 2 12.667V3.334c0-.556.194-1.028.583-1.417A1.929 1.929 0 0 1 4 1.334h4.533a4.242 4.242 0 0 0-1.2 3c0 1.144.386 2.127 1.159 2.95a4.231 4.231 0 0 0 2.841 1.366V12H4a.645.645 0 0 0-.475.192.645.645 0 0 0-.192.475c0 .189.064.347.192.475a.645.645 0 0 0 .475.192h8.667V8.55c.244-.055.477-.13.7-.225.222-.094.433-.208.633-.341v6.683ZM11.667 8c0-1.022.355-1.889 1.066-2.6.711-.71 1.578-1.066 2.6-1.066-1.022 0-1.889-.356-2.6-1.067-.71-.711-1.066-1.578-1.066-2.6 0 1.022-.356 1.889-1.067 2.6-.711.711-1.578 1.067-2.6 1.067 1.022 0 1.889.355 2.6 1.066.711.711 1.067 1.578 1.067 2.6Z" />
	</symbol>

	<symbol id="kv-smart-app" xmlns="http://www.w3.org/2000/svg" viewBox="0 0 16 16">
		<path
			d="M0 3C0 1.34315 1.34315 0 3 0H13C14.6569 0 16 1.34315 16 3V13C16 14.6569 14.6569 16 13 16H3C1.34315 16 0 14.6569 0 13V3Z"
			fill="#D9D9D9" />
		<path
			d="M3 13L7.03846 3H8.96154L13 13H11.1538L10.1731 10.4464H5.82692L4.84615 13H3ZM6.38462 9H9.61539L8.03846 4.85714H7.96154L6.38462 9Z"
			fill="url(#paint0_linear_3598_22968)" />
		<defs>
			<linearGradient id="paint0_linear_3598_22968" x1="-1.66893e-08" y1="8" x2="16" y2="8"
				gradientUnits="userSpaceOnUse">
				<stop stop-color="#B40EAA" />
				<stop offset="1" stop-color="#0D5CC7" />
			</linearGradient>
		</defs>
	</symbol>

	<symbol id="kv-docker-app" xmlns="http://www.w3.org/2000/svg" viewBox="0 0 16 16">
		<path fill="#E5E5E5" d="M0 4a4 4 0 0 1 4-4h8a4 4 0 0 1 4 4v8a4 4 0 0 1-4 4H4a4 4 0 0 1-4-4z" />
		<path fill="#1D63ED"
			d="M14.98 7.473c-.334-.217-1.21-.31-1.847-.144-.035-.615-.362-1.133-.96-1.585L11.95 5.6l-.148.216c-.29.427-.412.996-.369 1.513.034.318.149.676.37.936-.83.466-1.594.36-4.978.36H1.601c-.015.74.108 2.165 1.043 3.324q.155.192.339.371c.76.738 1.908 1.278 3.625 1.28 2.62.002 4.864-1.37 6.23-4.686.448.007 1.634.078 2.215-1.009.014-.018.147-.288.147-.288zm-9.97-.677H3.54V8.22h1.47zm1.898 0H5.44V8.22h1.47zm1.898 0H7.338V8.22h1.47zm1.899 0h-1.47V8.22h1.47zm-7.593 0h-1.47V8.22h1.47zM5.01 4.998H3.54v1.424h1.47zm1.898 0H5.44v1.424h1.47zm1.898 0H7.338v1.424h1.47zm0-1.798H7.338v1.424h1.47z" />
	</symbol>

	<symbol id="kv-checkmark" viewBox="0 0 12 12"
		xmlns="http://www.w3.org/2000/svg">
		<path d="M0 0h12v12H0V0z" fill="none" />
		<path
			d="M3.986 8.877L1.145 5.955a.667.667 0 1 0-.956.93l3.826 3.935 7.811-8.521a.667.667 0 0 0-.983-.901L3.986 8.877z"
			fill-rule="evenodd" clip-rule="evenodd" />
	</symbol>

	<symbol id="kv-indeterminate-state" viewBox="0 0 24 24"
		xmlns="http://www.w3.org/2000/svg">
		<path d="M7 13h10v-2H7zm-2 8q-.824 0-1.412-.587A1.93 1.93 0 0 1 3 19V5q0-.824.587-1.412A1.93 1.93 0 0 1 5 3h14q.824 0 1.413.587Q21 4.176 21 5v14q0 .824-.587 1.413A1.93 1.93 0 0 1 19 21z"/>
	</symbol>

	<symbol id="kv-check-state" viewBox="0 0 24 24"
		xmlns="http://www.w3.org/2000/svg">
		<path d="m10.6 16.2 7.05-7.05-1.4-1.4-5.65 5.65-2.85-2.85-1.4 1.4zM5 21q-.824 0-1.412-.587A1.93 1.93 0 0 1 3 19V5q0-.824.587-1.412A1.93 1.93 0 0 1 5 3h14q.824 0 1.413.587Q21 4.176 21 5v14q0 .824-.587 1.413A1.93 1.93 0 0 1 19 21z"/>

	</symbol>

	<symbol id="kv-uncheck-state" viewBox="0 0 24 24"
		xmlns="http://www.w3.org/2000/svg">
		<path d="M5 21q-.824 0-1.412-.587A1.93 1.93 0 0 1 3 19V5q0-.824.587-1.412A1.93 1.93 0 0 1 5 3h14q.824 0 1.413.587Q21 4.176 21 5v14q0 .824-.587 1.413A1.93 1.93 0 0 1 19 21zm0-2h14V5H5z"/>
	</symbol>

	<symbol id="kv-person" viewBox="0 0 16 16"
		xmlns="http://www.w3.org/2000/svg">
		<path
			d="M8 8a2.568 2.568 0 0 1-1.883-.783 2.568 2.568 0 0 1-.784-1.884c0-.733.261-1.36.784-1.883A2.568 2.568 0 0 1 8 2.667c.733 0 1.361.26 1.883.783.522.522.784 1.15.784 1.883 0 .734-.262 1.361-.784 1.884A2.568 2.568 0 0 1 8 8Zm-5.333 5.333v-1.866c0-.378.097-.725.291-1.042.195-.317.453-.558.775-.725a9.898 9.898 0 0 1 2.1-.775 9.172 9.172 0 0 1 4.333 0c.712.172 1.412.43 2.1.775.323.167.581.408.775.725.195.317.292.664.292 1.042v1.866H2.667Z" />
	</symbol>

	<symbol id="kv-group" viewBox="0 0 16 16"
		xmlns="http://www.w3.org/2000/svg">
		<path
			d="M.667 13.333v-1.866c0-.378.097-.725.292-1.042.194-.317.452-.558.775-.725a9.898 9.898 0 0 1 2.1-.775 9.172 9.172 0 0 1 4.333 0c.711.172 1.411.43 2.1.775.322.167.58.408.775.725.194.317.292.664.292 1.042v1.866H.667Zm12 0v-2c0-.489-.136-.958-.408-1.408-.273-.45-.659-.836-1.159-1.158a8.41 8.41 0 0 1 3 .933c.4.222.706.47.917.742.211.272.317.57.317.891v2h-2.667ZM6 8a2.568 2.568 0 0 1-1.883-.783 2.568 2.568 0 0 1-.783-1.884c0-.733.26-1.36.783-1.883A2.568 2.568 0 0 1 6 2.667c.734 0 1.361.26 1.884.783.522.522.783 1.15.783 1.883 0 .734-.261 1.361-.783 1.884A2.568 2.568 0 0 1 6 8Zm6.667-2.667c0 .734-.261 1.361-.783 1.884A2.568 2.568 0 0 1 10 8c-.122 0-.277-.014-.466-.042a4.082 4.082 0 0 1-.467-.091c.3-.356.53-.75.692-1.184.16-.433.241-.883.241-1.35 0-.466-.08-.916-.241-1.35A3.965 3.965 0 0 0 9.067 2.8c.156-.056.311-.092.467-.108.155-.017.31-.025.466-.025.734 0 1.361.26 1.884.783.522.522.783 1.15.783 1.883Z" />
	</symbol>

	<symbol id="kv-data-quality" viewBox="0 0 24 24"
		xmlns="http://www.w3.org/2000/svg">
		<path
			d="M9.412 15.761 12 14.191l2.589 1.57-.686-2.942 2.3-1.992-3.03-.243L12 7.796l-1.173 2.788-3.03.243 2.3 1.992zM12 22l-2.965-2.92H4.92v-4.115L2 12l2.92-2.965V4.92h4.115L12 2l2.965 2.92h4.115v4.115L22 12l-2.92 2.965v4.115h-4.115z" />
	</symbol>

	<symbol id="kv-cards-star" viewBox="0 0 20 20"
		xmlns="http://www.w3.org/2000/svg">
		<path
			d="M10.1875 10.4167L12.0833 9.27084L13.9792 10.4167L13.4792 8.25001L15.1458 6.81251L12.9583 6.62501L12.0833 4.58334L11.2083 6.62501L9.02083 6.81251L10.6875 8.25001L10.1875 10.4167ZM4.75 18.2292C4.29167 18.2986 3.87847 18.191 3.51042 17.9063C3.14236 17.6215 2.93056 17.25 2.875 16.7917L1.77083 7.68751C1.71528 7.22917 1.82639 6.81945 2.10417 6.45834C2.38194 6.09723 2.75 5.88889 3.20833 5.83334L4.16667 5.70834V12.5C4.16667 13.4167 4.49306 14.2014 5.14583 14.8542C5.79861 15.507 6.58333 15.8333 7.5 15.8333H15.25C15.1667 16.1667 15 16.4549 14.75 16.6979C14.5 16.941 14.1944 17.0833 13.8333 17.125L4.75 18.2292ZM7.5 14.1667C7.04167 14.1667 6.64931 14.0035 6.32292 13.6771C5.99653 13.3507 5.83333 12.9583 5.83333 12.5V3.33334C5.83333 2.87501 5.99653 2.48264 6.32292 2.15626C6.64931 1.82987 7.04167 1.66667 7.5 1.66667H16.6667C17.125 1.66667 17.5174 1.82987 17.8438 2.15626C18.1701 2.48264 18.3333 2.87501 18.3333 3.33334V12.5C18.3333 12.9583 18.1701 13.3507 17.8438 13.6771C17.5174 14.0035 17.125 14.1667 16.6667 14.1667H7.5Z" />
	</symbol>

	<symbol id="kv-cards-star" viewBox="0 0 20 20"
		xmlns="http://www.w3.org/2000/svg">
		<path
			d="M10.1875 10.4167L12.0833 9.27084L13.9792 10.4167L13.4792 8.25001L15.1458 6.81251L12.9583 6.62501L12.0833 4.58334L11.2083 6.62501L9.02083 6.81251L10.6875 8.25001L10.1875 10.4167ZM4.75 18.2292C4.29167 18.2986 3.87847 18.191 3.51042 17.9063C3.14236 17.6215 2.93056 17.25 2.875 16.7917L1.77083 7.68751C1.71528 7.22917 1.82639 6.81945 2.10417 6.45834C2.38194 6.09723 2.75 5.88889 3.20833 5.83334L4.16667 5.70834V12.5C4.16667 13.4167 4.49306 14.2014 5.14583 14.8542C5.79861 15.507 6.58333 15.8333 7.5 15.8333H15.25C15.1667 16.1667 15 16.4549 14.75 16.6979C14.5 16.941 14.1944 17.0833 13.8333 17.125L4.75 18.2292ZM7.5 14.1667C7.04167 14.1667 6.64931 14.0035 6.32292 13.6771C5.99653 13.3507 5.83333 12.9583 5.83333 12.5V3.33334C5.83333 2.87501 5.99653 2.48264 6.32292 2.15626C6.64931 1.82987 7.04167 1.66667 7.5 1.66667H16.6667C17.125 1.66667 17.5174 1.82987 17.8438 2.15626C18.1701 2.48264 18.3333 2.87501 18.3333 3.33334V12.5C18.3333 12.9583 18.1701 13.3507 17.8438 13.6771C17.5174 14.0035 17.125 14.1667 16.6667 14.1667H7.5Z" />
	</symbol>

	<symbol id="kv-arrow-upward" viewBox="0 0 16 16" xmlns="http://www.w3.org/2000/svg">
		<path
			d="M7.33333 12V5.86666L4.93333 8.26666L4 7.33333L8 3.33333L12 7.33333L11.0667 8.26666L8.66667 5.86666V12H7.33333Z" />
	</symbol>

	<symbol id="kv-traffic-lights" viewBox="0 0 24 24" xmlns="http://www.w3.org/2000/svg">
		<path
			d="M13.075 17.575C13.3583 17.2917 13.5 16.9333 13.5 16.5C13.5 16.0667 13.3583 15.7083 13.075 15.425C12.7917 15.1417 12.4333 15 12 15C11.5667 15 11.2083 15.1417 10.925 15.425C10.6417 15.7083 10.5 16.0667 10.5 16.5C10.5 16.9333 10.6417 17.2917 10.925 17.575C11.2083 17.8583 11.5667 18 12 18C12.4333 18 12.7917 17.8583 13.075 17.575ZM13.075 13.075C13.3583 12.7917 13.5 12.4333 13.5 12C13.5 11.5667 13.3583 11.2083 13.075 10.925C12.7917 10.6417 12.4333 10.5 12 10.5C11.5667 10.5 11.2083 10.6417 10.925 10.925C10.6417 11.2083 10.5 11.5667 10.5 12C10.5 12.4333 10.6417 12.7917 10.925 13.075C11.2083 13.3583 11.5667 13.5 12 13.5C12.4333 13.5 12.7917 13.3583 13.075 13.075ZM13.075 8.575C13.3583 8.29167 13.5 7.93333 13.5 7.5C13.5 7.06667 13.3583 6.70833 13.075 6.425C12.7917 6.14167 12.4333 6 12 6C11.5667 6 11.2083 6.14167 10.925 6.425C10.6417 6.70833 10.5 7.06667 10.5 7.5C10.5 7.93333 10.6417 8.29167 10.925 8.575C11.2083 8.85833 11.5667 9 12 9C12.4333 9 12.7917 8.85833 13.075 8.575ZM7 15V13.85C6.15 13.6167 5.4375 13.15 4.8625 12.45C4.2875 11.75 4 10.9333 4 10H7V8.85C6.15 8.61667 5.4375 8.15 4.8625 7.45C4.2875 6.75 4 5.93333 4 5H7C7 4.45 7.19583 3.97917 7.5875 3.5875C7.97917 3.19583 8.45 3 9 3H15C15.55 3 16.0208 3.19583 16.4125 3.5875C16.8042 3.97917 17 4.45 17 5H20C20 5.93333 19.7125 6.75 19.1375 7.45C18.5625 8.15 17.85 8.61667 17 8.85V10H20C20 10.9333 19.7125 11.75 19.1375 12.45C18.5625 13.15 17.85 13.6167 17 13.85V15H20C20 15.9333 19.7125 16.75 19.1375 17.45C18.5625 18.15 17.85 18.6167 17 18.85V19C17 19.55 16.8042 20.0208 16.4125 20.4125C16.0208 20.8042 15.55 21 15 21H9C8.45 21 7.97917 20.8042 7.5875 20.4125C7.19583 20.0208 7 19.55 7 19V18.85C6.15 18.6167 5.4375 18.15 4.8625 17.45C4.2875 16.75 4 15.9333 4 15H7ZM9 19H15V5H9V19Z" />
	</symbol>

</svg>
