<svg xmlns="http://www.w3.org/2000/svg" fill="none" viewBox="0 0 100 86">
	<circle cx="56.5" cy="43" r="40" fill="var(--illustrations-background-default, #262626)"/>
	<mask id="a" width="81" height="80" x="16" y="3" maskUnits="userSpaceOnUse" style="mask-type:alpha">
		<circle cx="56.5" cy="43" r="40" fill="var(--illustrations-background-default, #262626)"/>
	</mask>
	<g mask="url(#a)">
		<path fill="var(--illustrations-shape-secondary, #404040)" d="M86.5 33h-60v54h60z"/>
		<path fill="var(--illustrations-shape-primary, #595959)" d="M87.5 33h-62v3h62z"/>
		<path fill="var(--illustrations-shape-tertiary, #1a1a1a)" d="M81.5 60v-2h-10v2z"/>
		<g fill="var(--illustrations-shape-tertiary, #1a1a1a)">
			<path d="M72.451 32.925h-1.95v58.15h1.95zm10.049 0h-1.95v58.15h1.95z"/>
			<path d="M82 74v-2H72v2zm-.5-7v-2h-10v2zm0-14v-2h-10v2zm0-7v-2h-10v2zm0-7v-2h-10v2z"/>
		</g>
		<path fill="var(--illustrations-shape-primary, #595959)" d="M48.782 58.283c1.426-4.818 7.104-13.547 7.463-13.547s6.045 8.729 7.462 13.547c1.474 4.978-3.089 9.267-7.462 9.267-4.374 0-8.937-4.29-7.463-9.267"/>
		<path fill="var(--illustrations-shape-secondary, #404040)" d="M63.5 31h-13v2h13z"/>
		<path fill="var(--illustrations-shape-primary, #595959)" d="M65.5 30h-17v1h17z"/>
	</g>
	<path fill="var(--illustrations-accent-primary, #7c4dff)" d="M13.402 57.8V83h5.4V57.8z"/>
	<path fill="var(--illustrations-accent-secondary, #6933ff)" d="M13.402 61.58v17.64h2.7V61.58z"/>
	<path fill="var(--illustrations-accent-primary, #7c4dff)" d="M24.201 57.8V83h5.4V57.8z"/>
	<path fill="var(--illustrations-accent-secondary, #6933ff)" d="M24.201 61.58v17.64h2.7V61.58z"/>
	<path fill="var(--illustrations-icon-secondary, #bfbfbf)" d="M39.5 57.421h-36v5.684h36z"/>
	<path fill="var(--illustrations-icon-primary, #e5e5e5)" d="M36.658 57.421H5.395v2.842h31.263z"/>
	<path fill="var(--illustrations-icon-primary, #e5e5e5)" fill-rule="evenodd" d="M6.2 83a2.7 2.7 0 0 1-2.7-2.7V49.7A2.7 2.7 0 0 1 6.2 47h30.6a2.7 2.7 0 0 1 2.7 2.7v30.6a2.7 2.7 0 0 1-2.7 2.7zm29.51-3.79V50.79H7.29v28.42z" clip-rule="evenodd"/>
</svg>
