<svg id="kv-table-build-night"
	xmlns="http://www.w3.org/2000/svg" viewBox="0 0 413.3 337.7">
	<linearGradient id="lg1" gradientUnits="userSpaceOnUse">
		<stop offset="0" stop-color="#b40eaa"/>
		<stop offset="1" stop-color="var(--illustration-color)"/>
	</linearGradient>
	<linearGradient id="a" gradientTransform="matrix(1 0 0 -1 0 -138.11)" x1="193" x2="234.281" y1="-353.11" y2="-353.11"/>
	<linearGradient id="b" gradientTransform="matrix(1 0 0 -1 0 -138.11)" x1="263.8" x2="305.081" y1="-353.11" y2="-353.11"/>
	<linearGradient id="c" gradientTransform="matrix(1 0 0 -1 0 -138.11)" x1="334.414" x2="375.695" y1="-353.11" y2="-353.11"/>
	<linearGradient id="d" gradientTransform="matrix(1 0 0 -1 0 -138.11)" x1="239.8" x2="281.081" y1="-276.61" y2="-276.61"/>
	<linearGradient id="e" gradientTransform="matrix(1 0 0 -1 0 -138.11)" x1="310.4" x2="351.681" y1="-276.61" y2="-276.61"/>
	<linearGradient id="f" gradientTransform="matrix(1 0 0 -1 0 -138.11)" x1="97.221" x2="138.502" y1="-200.61" y2="-200.61"/>
	<path d="m242.4 182.4h-61.3v65.2h65.2v-65.2z" fill="#e6e9ed"/>
	<path d="m246.3 182.4v65.2l25.7-25.7v-65.2z" fill="#ccd1d9"/>
	<path d="m207.5 156.7-26.5 25.7h65.2l25.8-25.7z" fill="#f3f4f4"/>
	<ellipse cx="213.6" cy="215" fill="url(#a)" rx="20.6" ry="20.8"/>
	<path d="m213.6 199.2c-8.7 0-15.8 7.1-15.8 15.8s7.1 15.8 15.8 15.8 15.8-7.1 15.8-15.8c.1-8.7-7-15.8-15.8-15.8zm0 30.5c-8.1 0-14.7-6.6-14.7-14.7s6.6-14.7 14.7-14.7 14.7 6.6 14.7 14.7c.1 8.1-6.5 14.7-14.7 14.7z" fill="var(--illustration-color)"/>
	<path d="m219.3 207.6-7.2 7.2v-7.2h-1.1v14.8h1.1v-7.2l7.4 7.2h1.4l-7.4-7.4 7.4-7.4zm-12.4-.4c-.5 0-.8.4-.8.9 0 .4.4.8.8.8.5 0 .9-.4.9-.8s-.4-.8-.9-.9z" fill="var(--illustration-color)"/>
	<path d="m317 182.4v65.2l25.7-25.7v-65.2z" fill="#ccd1d9"/>
	<path d="m278.2 156.7-26.5 25.7h65.3l25.8-25.7z" fill="#f3f4f4"/>
	<path d="m313.1 182.4h-61.3v65.2h65.2v-65.2z" fill="#e6e9ed"/>
	<ellipse cx="284.4" cy="215" fill="url(#b)" rx="20.6" ry="20.8"/>
	<path d="m284.4 199.2c-8.7 0-15.8 7.1-15.8 15.8s7.1 15.8 15.8 15.8 15.8-7.1 15.8-15.8-7.1-15.8-15.8-15.8zm0 30.5c-8.1 0-14.7-6.6-14.7-14.7s6.6-14.7 14.7-14.7 14.7 6.6 14.7 14.7-6.6 14.7-14.7 14.7z" fill="var(--illustration-color)"/>
	<path d="m290.1 207.6-7.2 7.2v-7.2h-1.2v14.8h1.2v-7.2l7.3 7.2h1.5l-7.5-7.4 7.5-7.4zm-12.4-.4c-.5 0-.8.4-.8.9 0 .4.4.8.8.8.5 0 .9-.4.9-.8s-.4-.8-.9-.9z" fill="var(--illustration-color)"/>
	<path d="m113.1 58.3c-1.8-1.1-4.3 0-4.4 0l-.1.1-8.1 6.3-3.7.4s-.2 3.3-.2 7l1 .5 6.1 2.9.3.2c.2.1.3.3.3.6v.2c1.2-1.1 10.5-9.7 10.3-14.7.1-1.5-.5-2.7-1.5-3.5z" fill="#f6d3a8"/>
	<path d="m47.7 45.6c-8.7 0-15.8 7.1-15.8 15.8s7.1 15.8 15.8 15.8 15.8-7.1 15.8-15.8-7.1-15.8-15.8-15.8zm0 30.6c-8.1 0-14.7-6.6-14.7-14.7s6.6-14.7 14.7-14.7 14.7 6.6 14.7 14.7-6.6 14.7-14.7 14.7z" fill="var(--illustration-color)"/>
	<path d="m53.3 54-7.2 7.2v-7.2h-1.1v14.9h1.1v-7.2l7.4 7.2h1.4l-7.4-7.4 7.4-7.5zm-12.4-.3c-.5 0-.8.4-.8.9 0 .4.4.8.8.8.5 0 .9-.4.9-.8 0-.5-.3-.9-.9-.9z" fill="var(--illustration-color)"/>
	<path d="m77.8 14.5-.3-.3c-.1-.1-.2-.2-.4-.2h-7c-.1 0-.3.1-.4.2s-.1.2-.1.4c.2 2.7.3 6.7.4 8.5-.5-.1-1.1-.2-1.6-.2-2.1 0-4.7.9-5.5 3.2-.2.5-.2 1.1 0 1.5.5.8 1.6 1.1 3 1.3 2.2.5 4.7 1 4.8 3.9.3 5.7-.7 6.4-6.8 11.1-2.2 1.6-3.1 3.2-2.9 4.6.3 1.8 2.5 2.7 2.9 2.9h.4l.9-.2 12.1-3h.1c.1 0 .2-.1.3-.2s.1-.3.1-.4l-.1-.3-2.2-8.7c1-.9 5.3-4.5 8.8-8 4.3-4-4.8-14.2-6.5-16.1z" fill="#f6d3a8"/>
	<path d="m72 93.2c-.4-.8-2.9-5.6 1.7-10.7 5.4-5.9 7.8-15 1.2-22-4.8-5-8.1-8.1-9.5-9.3l-.9.2h-.4c-.5-.2-2.6-1.1-2.9-2.9-.2-1.4.7-3 2.9-4.6 6.1-4.7 7.1-5.4 6.8-11.1-.1-3-2.6-3.5-4.8-3.9-1.3-.3-2.5-.5-3-1.3-.3-.5-.3-1-.1-1.5.8-2.4 3.3-3.2 5.5-3.2.5 0 1.1.1 1.6.2 0-1.7-.2-5.8-.4-8.5 0-.1 0-.3.1-.4s.2-.2.4-.2h7c.1 0 .3.1.4.2l.3.3c.6-1 2.4-4.2 1.4-6.7-.6-1.4-1.9-2.2-4-2.5-14-2.2-24 .8-29.7 9-9.6 13.8-6 23.7-5.9 24.1 0 .1.1.1.1.2.2.2 4 4.5-2.9 12.2-2.6 2.8-5.4 5.5-8.4 7.9-4.9 4.3-10 8.7-14.1 15.8-6.9 11.9-4.6 26.1 5.7 35.4v17.4c0 .2 2.2 13.9 22.4 14.7h1.8c2 0 4-.1 6-.3 27.5-2.9 32.2-23.8 32.2-24s3.2-17-10.5-24.5z" fill="#de350b"/>
	<path d="m97 325.5h-6.8l1.4 5.8 1-.3 4.4-.9 1-.2v-4.4zm-83.2-30.6-3.2-3.5-.7-.8-4.8 4.8.7.8 2.7 3.5.6.8 5.4-4.8z" fill="#f6d3a8"/>
	<path d="m117.9 152.7c0 .1 0 .3-.1.4s-.2.2-.4.2h-71.3c-.1 4.4-1 36-5.1 53.8-4.5 19.7-25.5 67.3-36.6 76.8-.1.1-.2.2-.2.3s0 .3.1.4l5.5 6.1.7.8 3.2 3.6.7.7 3.1 3.4c.2.2.5.2.7.1.3-.2 26.9-19.8 44.8-56.6l19.5-56.2c2.7 4.1 14.2 23 14.5 46.5.3 27.4-3.6 75.9-11.3 92-.1.2-.1.3 0 .5.1.1.3.2.4.2h16.9c.2 0 .4-.1.4-.3.2-.3 14.4-28 19.6-73.1s-5-99.1-5.1-99.6z" fill="#e6e9ed"/>
	<path d="m20.5 315c0-.1 0-.1-.1-.2l-11.3-14.3-.6-.8-2.8-3.5-.6-.7-.8-1.1c-.2-.2-.5-.3-.7-.1l-3.4 2.5c-.1.1-.2.2-.2.3s0 .3.1.4l17 22c.1.1.2.2.4.2h.3c.9.1 1.7-.3 2.3-1 1.1-1.3.5-3.6.4-3.7zm97 13.5c-.7-1.6-3.1-2.1-3.2-2.1h-.2l-16.1 3.5v.4h-1v-.2l-4.4.9.1.6-1 .2-.1-.6-2.9.6c-.3 0-.4.3-.4.6l.8 4.2c0 .1.1.2.2.3s.2.1.3.1h.1l27.3-5.6c.1 0 .3-.1.3-.2.4-.8.6-1.8.2-2.7z" fill="#05070a"/>
	<path d="m97 330.2h1v-.3l-1 .2zm-4.3 1.4-.1-.6-1 .3.1.6z" fill="#1600d0"/>
	<path d="m123.9 54-7.2 7.2v-7.2h-1.1v14.9h1.1v-7.2l7.4 7.2h1.4l-7.4-7.4 7.4-7.5zm-12.4-.3c-.5 0-.8.4-.8.9 0 .4.4.8.8.8.5 0 .9-.4.9-.8 0-.5-.4-.9-.9-.9z" fill="var(--illustration-color)"/>
	<path d="m387.6 182.4v65.2l25.7-25.7v-65.2z" fill="#ccd1d9"/>
	<path d="m348.8 156.7-26.5 25.7h65.2l25.8-25.7z" fill="#f3f4f4"/>
	<path d="m355.1 199.2c-8.7 0-15.8 7.1-15.8 15.8s7.1 15.8 15.8 15.8 15.8-7.1 15.8-15.8-7.1-15.8-15.8-15.8zm0 30.5c-8.1 0-14.7-6.6-14.7-14.7s6.6-14.7 14.7-14.7 14.7 6.6 14.7 14.7-6.6 14.7-14.7 14.7z" fill="var(--illustration-color)"/>
	<path d="m360.8 207.6-7.3 7.2v-7.2h-1.1v14.8h1.1v-7.2l7.4 7.2h1.4l-7.4-7.4 7.4-7.4zm-12.5-.4c-.5 0-.8.4-.8.9 0 .4.4.8.8.8.5 0 .9-.4.9-.8s-.3-.8-.9-.9c.1 0 .1 0 0 0z" fill="var(--illustration-color)"/>
	<path d="m383.7 182.4h-61.3v65.2h65.2v-65.2z" fill="#e6e9ed"/>
	<ellipse cx="355.1" cy="215" fill="url(#c)" rx="20.6" ry="20.8"/>
	<path d="m355.1 199.2c-8.7 0-15.8 7.1-15.8 15.8s7.1 15.8 15.8 15.8 15.8-7.1 15.8-15.8-7.1-15.8-15.8-15.8zm0 30.5c-8.1 0-14.7-6.6-14.7-14.7s6.6-14.7 14.7-14.7 14.7 6.6 14.7 14.7-6.6 14.7-14.7 14.7z" fill="var(--illustration-color)"/>
	<path d="m360.7 207.6-7.2 7.2v-7.2h-1.1v14.8h1.1v-7.2l7.4 7.2h1.4l-7.4-7.4 7.4-7.4zm-12.4-.4c-.5 0-.8.4-.8.9 0 .4.4.8.8.8.5 0 .9-.4.9-.8s-.3-.8-.9-.9z" fill="var(--illustration-color)"/>
	<path d="m289 105.9h-61.3v65.2h65.2v-65.2z" fill="#e6e9ed"/>
	<path d="m293 105.9v65.2l25.7-25.7v-65.2z" fill="#ccd1d9"/>
	<ellipse cx="260.4" cy="138.5" fill="url(#d)" rx="20.6" ry="20.8"/>
	<path d="m260.4 122.7c-8.7 0-15.8 7.1-15.8 15.8s7.1 15.8 15.8 15.8 15.8-7.1 15.8-15.8-7.1-15.8-15.8-15.8zm0 30.5c-8.1 0-14.7-6.6-14.7-14.7s6.6-14.7 14.7-14.7 14.7 6.6 14.7 14.7-6.6 14.7-14.7 14.7z" fill="var(--illustration-color)"/>
	<path d="m266.1 131.1-7.2 7.2v-7.2h-1.2v14.8h1.2v-7.2l7.3 7.2h1.5l-7.5-7.4 7.5-7.4zm-12.4-.4c-.5 0-.8.4-.8.9 0 .4.4.8.8.8.5 0 .9-.4.9-.8 0-.5-.4-.9-.9-.9z" fill="var(--illustration-color)"/>
	<path d="m254.1 80.2-26.5 25.7h65.2l25.8-25.7z" fill="#f3f4f4"/>
	<path d="m359.7 105.9h-61.3v65.2h65.2v-65.2z" fill="#e6e9ed"/>
	<path d="m363.6 105.9v65.2l25.7-25.7v-65.2z" fill="#ccd1d9"/>
	<path d="m324.8 80.2-26.5 25.7h65.2l25.8-25.7z" fill="#f3f4f4"/>
	<ellipse cx="331" cy="138.5" fill="url(#e)" rx="20.6" ry="20.8"/>
	<path d="m331 122.7c-8.7 0-15.8 7.1-15.8 15.8s7.1 15.8 15.8 15.8 15.8-7.1 15.8-15.8c.1-8.7-7-15.8-15.8-15.8zm0 30.5c-8.1 0-14.7-6.6-14.7-14.7s6.6-14.7 14.7-14.7 14.7 6.6 14.7 14.7c.1 8.1-6.5 14.7-14.7 14.7z" fill="var(--illustration-color)"/>
	<path d="m336.7 131.1-7.2 7.2v-7.2h-1.1v14.8h1.1v-7.2l7.4 7.2h1.4l-7.4-7.4 7.4-7.4zm-12.4-.4c-.5 0-.8.4-.8.9 0 .4.4.8.8.8.5 0 .9-.4.9-.8 0-.5-.4-.9-.9-.9z" fill="var(--illustration-color)"/>
	<path d="m146.5 29.9h-61.3v65.2h65.2v-65.2z" fill="#e6e9ed"/>
	<path d="m150.5 29.9v65.2l25.7-25.7v-65.2z" fill="#ccd1d9"/>
	<path d="m111.6 4.2-26.4 25.7h65.2l25.8-25.7z" fill="#f3f4f4"/>
	<ellipse cx="117.9" cy="62.5" fill="url(#f)" rx="20.6" ry="20.8"/>
	<path d="m117.9 46.7c-8.7 0-15.8 7.1-15.8 15.8s7.1 15.8 15.8 15.8 15.8-7.1 15.8-15.8-7.1-15.8-15.8-15.8zm0 30.5c-8.1 0-14.7-6.6-14.7-14.7s6.6-14.7 14.7-14.7 14.7 6.6 14.7 14.7-6.6 14.7-14.7 14.7z" fill="var(--illustration-color)"/>
	<path d="m123.5 55.1-7.2 7.2v-7.2h-1.1v14.8h1.1v-7.2l7.4 7.2h1.4l-7.4-7.4 7.4-7.4zm-12.4-.4c-.5 0-.8.4-.8.9 0 .4.4.8.8.8.5 0 .9-.4.9-.8s-.3-.8-.9-.9z" fill="var(--illustration-color)"/>
	<path d="m174.6 75.7-.3-.2-6.1-2.9-1-.5-1.1-.5c-.1-.1-.3-.1-.4 0l-.3.3c-1.3 6-9.5 16.2-19.1 17.7-5.7.9-8.4-2-14.1-8.4-4.5-5.2-9.3-10-14.5-14.6-16.6-14.6-37.1-18.7-39.9-19.2l.1.3c0 .1 0 .3-.1.4s-.2.2-.3.2h-.1l-13.2 3.2c3.7 2.8 7.3 5.8 10.6 9.1 6.7 6.9 4.2 16-1.2 22-4.6 5.1-2.2 9.9-1.7 10.7 13.7 7.4 10.7 24.2 10.6 24.4s-4.8 21.1-32.2 24c-2 .2-4 .3-6 .3h-1.8l.9 10.8c0 .3.2.5.5.5h73.5c.1 0 .3-.1.4-.2s.1-.3.1-.4l-9.7-63.2c5 4.4 25.8 22.1 41.1 21.6 7.2-.2 13.9-6.4 19.4-17.7 2.6-5.5 4.6-11.2 6.1-17v-.2c.1-.2 0-.4-.2-.5z" fill="#05070a"/>
	<path d="m183.6 58.3c-1.8-1.1-4.3 0-4.4 0l-.1.1-8.1 6.3-3.7.4s-.2 3.3-.2 7l1 .5 6.1 2.9.3.2c.2.1.3.3.3.6v.2c1.2-1.1 10.5-9.7 10.3-14.7.2-1.5-.4-2.7-1.5-3.5z" fill="#f6d3a8"/>
</svg>
