<svg id="kv-es-section-somethingwentwrong-night"
	xmlns="http://www.w3.org/2000/svg" viewBox="0 0 420 218">
	<g fill-rule="nonzero" fill="none">
		<path fill="#707070" d="M219.252 51.506h191.323a8.583 8.583 0 1 0 0-17.165h-44.15a8.593 8.593 0 1 1 0-17.176h12.255a8.583 8.583 0 1 0 0-17.165H253.623a8.583 8.583 0 0 0 0 17.165h13.493a8.593 8.593 0 0 1 0 17.176h-47.864a8.583 8.583 0 1 0 0 17.165zM8.583 114.638H82a8.593 8.593 0 1 1 0-17.176h191.313a8.593 8.593 0 0 1 0 17.176h-26.792a8.603 8.603 0 0 1 3.682.832 8.572 8.572 0 0 0 0 15.501 8.603 8.603 0 0 1-3.682.832h2.394a8.583 8.583 0 1 1 0 17.165H215.7a8.593 8.593 0 0 0 0 17.175h69.189a8.583 8.583 0 0 1 0 17.166h-72.557a8.593 8.593 0 0 0 0 17.175h-1.532a8.583 8.583 0 0 1 0 17.165h-78.49a8.583 8.583 0 1 1 0-17.165h17.51a8.593 8.593 0 0 0 0-17.175h-29.269a8.583 8.583 0 0 1 0-17.166H19.478a8.593 8.593 0 0 1 0-17.175h12.347a8.583 8.583 0 0 0 0-17.165H8.583a8.583 8.583 0 0 1 0-17.165z"/>
		<path fill="#FF0" d="M223.188 137.383c.34-.011.679-.042 1.015-.092l-1.015.092zM224.203 136.277l.893-.071.355-.234a7.467 7.467 0 0 1-1.248.305zM223.026 136.378a7.183 7.183 0 0 0 1.146-.101l-1.156.101h.01z" fill-rule="nonzero"/>
		<path fill="#F6F6F6" d="M223.026 31.054c-10.754 0-19.498 23.617-19.498 52.662-.027 7.55.6 15.09 1.876 22.532l.183 1.014c1.044 6.076 2.83 12.001 5.316 17.642 10.885.274 24.794-4.93 26.468-5.57a86.84 86.84 0 0 0 3.115-12.173l.182-1.015a131.57 131.57 0 0 0 1.857-22.41c0-29.065-8.745-52.682-19.499-52.682zm-18.484 60.19a4.17 4.17 0 0 1 2.11-3.876c3.206-1.816 9.384-.203 11.677 1.136 2.465 1.44 7.254 6.412 9.891 9.242a2.526 2.526 0 0 1-2.962 3.987c-2.394-1.176-8.238-3.946-10.662-4.321a16.374 16.374 0 0 0-1.908-.112c-3.063-.06-8.197-.162-8.146-6.057zm13.868 19.123a26.062 26.062 0 0 1-6.848 1.207 5.712 5.712 0 0 1-3.419-.852 2.678 2.678 0 0 1-1.014-2.425c.025-.346.096-.687.213-1.014.119-.374.312-.719.568-1.015a3.855 3.855 0 0 1 2.506-1.298 8.633 8.633 0 0 1 6.554 2.211 6.391 6.391 0 0 1 1.755 2.587l.172.487-.487.112z" fill-rule="nonzero"/>
		<path fill="#DDD" d="M229.212 97.963c-2.804-3.01-7.896-8.295-10.517-9.827-2.438-1.424-9.007-3.139-12.415-1.208a4.433 4.433 0 0 0-2.244 4.12c-.054 6.268 5.393 6.376 8.63 6.473.677 0 1.354.04 2.027.118 2.578.4 8.792 3.344 11.337 4.596a2.686 2.686 0 0 0 3.182-4.272zM210.903 124.914H209.716a8.35 8.35 0 0 1-7.629-8.247 5.072 5.072 0 0 0-.497-2.03c-.73-1.5-2.242-2.424-4.494-2.749-3.044-.436-8.542-2.029-14.376-3.824l-.406-.122-3.104-.923c-8.339-2.465-16.891-4.809-20.493-4.19a15.532 15.532 0 0 0-6.431 3.043 19.275 19.275 0 0 1-5.073 2.74c-2.766.169-5.499.351-8.197.547a22.694 22.694 0 0 1-7.933-3.043c-2.963-1.633-5.52-3.044-9.06-1.268-3.145 1.572-4.819 3.906-6.432 6.148l-.07.101c-.285.396-.569.781-.863 1.167a12.367 12.367 0 0 1-5.336 4.464c-1.147.466-2.881 1.014-4.88 1.684-8.968 2.942-23.993 7.852-23.75 16.07.204 7.01 5.266 8.876 10.146 10.682a26.712 26.712 0 0 1 5.904 2.739c1.239.888 2.43 1.84 3.571 2.85 2.628 2.263 4.809 4.14 8.725 4.14a16.74 16.74 0 0 0 3.388-.396c3.602-.77 6.513-2.83 9.323-4.809 3.52-2.495 7.173-5.072 12.408-5.376a13.564 13.564 0 0 1 8.562 2.394c3.043 1.745 5.823 3.398 12.235 1.258 5.397-1.796 9.029-5.296 12.234-8.38 3.46-3.338 6.453-6.219 10.835-6.35 3.358-.092 5.184 1.44 7.507 3.388 3.47 2.901 7.771 6.503 19.113 5.995a39.717 39.717 0 0 0 18.545-5.234c.65-.376 1.258-.771 1.857-1.177l.355-.234c2.86-.953 5.519-3.57 7.862-7.486a48.483 48.483 0 0 0 4.058-9.13c-1.623.628-15.532 5.832-26.417 5.558z"/>
		<path fill="#DDD" d="M183.278 138.133h-.111c-.325 0-7.903-.121-11.353 3.612a6.34 6.34 0 0 0-1.623 5.154c.254 2.576 1.137 4.21 2.608 4.849.469.194.973.29 1.48.284 2.364 0 4.82-1.867 4.992-2.03l6.24-6.522a3.591 3.591 0 0 0 .902-3.044c-.314-1.055-1.37-1.836-3.135-2.303zM219.295 110.046a7.043 7.043 0 0 0-1.935-2.851 9.514 9.514 0 0 0-7.222-2.437 4.248 4.248 0 0 0-2.705 1.43 3.186 3.186 0 0 0-.626 1.119c-.13.36-.208.736-.235 1.118a2.952 2.952 0 0 0 1.118 2.672 6.294 6.294 0 0 0 3.767.939 28.721 28.721 0 0 0 7.547-1.33l.548-.18-.257-.48z"/>
		<path fill="#FFF" d="m282.333 40.184-56.426-9.617a8.268 8.268 0 0 0-2.87-.538c-11.312 0-20.515 24.074-20.515 53.677a129.108 129.108 0 0 0 1.908 22.552c.061.335.112.68.183 1.014a76.665 76.665 0 0 0 5.275 17.592h1.015a74.95 74.95 0 0 1-5.306-17.642c-.07-.345-.132-.68-.193-1.015a130.646 130.646 0 0 1-1.876-22.532c0-29.034 8.744-52.662 19.498-52.662 10.754 0 19.499 23.628 19.499 52.662.021 7.51-.6 15.007-1.857 22.41l-.182 1.015a86.84 86.84 0 0 1-3.115 12.174 48.483 48.483 0 0 1-4.058 9.13c-2.343 3.916-5.001 6.534-7.862 7.487l-.355.234c-.599.405-1.208.801-1.857 1.176l1.015-.09 53.555-4.536c23.495-25.784 25.401-64.61 4.545-92.572l-.02.081zM344.481 50.775l-34.665-5.904c17.703 25.833 17.162 60.029-1.35 85.288l35.985-3.043c4.555 0 8.562-5.204 11.22-13.432.112-.345.223-.7.325-1.014a84.05 84.05 0 0 0 3.043-23.679c.091-21.395-6.36-38.124-14.558-38.216z" fill-rule="nonzero"/>
		<path fill="#103D73" d="m309.816 44.871-1.41-.233-24.652-4.2-1.42-.244c20.856 27.962 18.95 66.788-4.546 92.573l1.451-.122 14.122-1.197 1.085-.091 12.692-1.076 1.329-.111c18.511-25.26 19.052-59.456 1.349-85.289v-.01z"/>
		<path fill="#BEBEBE" d="m228.758 32.078 53.413 9.13 1.41.234 24.652 4.21 1.42.234 34.656 5.853h.162c7.497.081 13.604 16.75 13.604 37.15a83.188 83.188 0 0 1-3.043 23.334c-.112.345-.213.69-.325 1.015-2.607 8.116-6.35 12.701-10.256 12.732h-.081l-35.995 3.043-1.329.112-12.69 1.075-1.076.091-14.132 1.197-1.44.122-49.904 4.332a19.56 19.56 0 0 0 6.351-6.97 49.943 49.943 0 0 0 4.18-9.333 88.94 88.94 0 0 0 3.145-12.346c.06-.345.132-.68.182-1.015a131.184 131.184 0 0 0 1.877-22.582c0-24.876-6.158-45.297-14.781-51.638m-5.732-2.029c-11.312 0-20.514 24.074-20.514 53.677a129.108 129.108 0 0 0 1.908 22.552c.061.335.112.68.183 1.014a76.665 76.665 0 0 0 5.275 17.592h1.015a74.95 74.95 0 0 1-5.306-17.642c-.071-.345-.132-.68-.193-1.015a130.646 130.646 0 0 1-1.877-22.532c0-29.034 8.745-52.662 19.499-52.662s19.498 23.628 19.498 52.662c.022 7.51-.599 15.007-1.856 22.41l-.183 1.015a86.84 86.84 0 0 1-3.114 12.174 48.483 48.483 0 0 1-4.058 9.13c-2.344 3.916-5.002 6.534-7.862 7.487l-.355.234c-.599.405-1.208.801-1.857 1.176l1.014-.09 53.556-4.536 1.45-.121 14.122-1.197 1.086-.092 12.69-1.075 1.33-.112 35.994-3.043c4.545 0 8.552-5.205 11.16-13.432l.324-1.015A84.05 84.05 0 0 0 359 88.91c0-21.304-6.412-38.074-14.61-38.165l-34.664-5.904-1.32-.203-24.651-4.2-1.41-.244-56.437-9.617a8.268 8.268 0 0 0-2.87-.538l-.01-.01z" fill-rule="nonzero"/>
	</g>
</svg>
