<svg id="kv-es-error-404-night"
	xmlns="http://www.w3.org/2000/svg" viewBox="0 0 1080 445">
	<path fill="var(--illustration-color-light-90)" stroke="#CCD1D9" d="M352.49 122.277h361.938c1.223 0 2.214.99 2.214 2.213v10.09H350.277v-10.09c0-1.222.99-2.213 2.213-2.213z"/>
	<path fill="#FFF" stroke="#CCD1D9" d="M350.277 134.579h366.365v262.322H350.277z"/>
	<g opacity=".9">
		<path fill="#F6D3A8" d="M757.03 438.524h3.775l-.78 3.17-.543-.115-2.452-.52-.553-.122v-2.413zm10.637-172.136l.15-.16a.283.283 0 01.204-.084h3.874a.266.266 0 01.2.083.29.29 0 01.077.205c-.089 1.478-.2 3.73-.21 4.676a3.32 3.32 0 01.88-.116c1.173 0 2.59.476 3.027 1.799a.985.985 0 01-.033.835c-.266.46-.914.593-1.66.742-1.207.249-2.574.526-2.652 2.158-.155 3.155.366 3.553 3.77 6.143 1.19.908 1.726 1.771 1.593 2.568-.166 1.018-1.35 1.511-1.621 1.61h-.211l-.514-.127-6.697-1.66h-.055a.277.277 0 01-.166-.127.277.277 0 01-.033-.21l.044-.178 1.206-4.82c-.58-.487-2.933-2.468-4.892-4.427-2.247-2.214 2.778-7.87 3.72-8.91z"/>
		<path fill="#DE350B" d="M770.888 309.975c.255-.437 1.605-3.077-.957-5.905-2.978-3.287-4.334-8.301-.659-12.175 2.64-2.767 4.494-4.466 5.269-5.158l.514.127h.211c.27-.1 1.455-.597 1.621-1.61.133-.797-.404-1.66-1.594-2.568-3.403-2.59-3.924-2.989-3.769-6.143.078-1.66 1.445-1.91 2.651-2.158.747-.15 1.395-.283 1.66-.742a.985.985 0 00.034-.836c-.437-1.322-1.854-1.798-3.027-1.798a3.32 3.32 0 00-.88.116c0-.946.121-3.199.21-4.676a.288.288 0 00-.078-.205.266.266 0 00-.199-.083h-3.874a.282.282 0 00-.199.083l-.15.16c-.354-.553-1.333-2.34-.763-3.68.32-.753 1.062-1.223 2.214-1.406 7.748-1.24 13.282.426 16.42 4.981 5.301 7.654 3.32 13.105 3.26 13.338a.299.299 0 01-.056.088c-.089.1-2.214 2.474 1.621 6.735a48.972 48.972 0 004.638 4.389c2.728 2.363 5.534 4.81 7.826 8.738 3.818 6.586 2.534 14.467-3.188 19.641v9.602c0 .089-1.207 7.715-12.402 8.158h-1.024a31.805 31.805 0 01-3.32-.189c-15.209-1.616-17.82-13.182-17.849-13.282-.027-.1-1.765-9.436 5.839-13.542z"/>
		<path fill="#F6D3A8" d="M709.076 290.633c.974-.62 2.386 0 2.447 0a.133.133 0 01.06.033l4.461 3.514 2.059.21s.116 1.816.088 3.875l-.553.265-3.398 1.622-.166.083a.271.271 0 00-.15.31.852.852 0 000 .088c-.653-.597-5.783-5.357-5.705-8.152a2.125 2.125 0 01.857-1.848z"/>
		<path fill="#05070A" d="M714.068 300.246l.166-.083 3.398-1.622.554-.265.614-.294a.271.271 0 01.387.194c.709 3.32 5.275 8.938 10.515 9.796 3.166.52 4.621-1.107 7.81-4.677a89.289 89.289 0 018.035-8.074c9.203-8.102 20.526-10.36 22.087-10.642l-.044.177a.277.277 0 00.033.21.277.277 0 00.166.127h.055l7.278 1.771a51.922 51.922 0 00-5.85 5.036c-3.675 3.841-2.319 8.855.659 12.176 2.562 2.828 1.212 5.467.957 5.905-7.604 4.106-5.905 13.409-5.888 13.503.016.094 2.64 11.688 17.847 13.282 1.103.12 2.212.184 3.321.188h1.024l-.515 5.988a.277.277 0 01-.277.255h-40.67a.293.293 0 01-.21-.1.282.282 0 01-.062-.221l5.374-34.965c-2.74 2.435-14.295 12.242-22.768 11.932-3.979-.133-7.692-3.526-10.736-9.807a52.575 52.575 0 01-3.393-9.375.852.852 0 010-.089.271.271 0 01.133-.326z"/>
		<path fill="#F6D3A8" d="M803.08 421.595l1.783-1.982.376-.415 2.64 2.662-.343.438-1.528 1.93-.343.438-2.955-2.662z"/>
		<path fill="#E6E9ED" d="M745.458 342.86a.278.278 0 00.271.32h39.448c.061 2.413.554 19.924 2.812 29.752 2.48 10.908 14.084 37.262 20.26 42.486.057.05.091.12.095.194a.266.266 0 01-.067.2l-3.038 3.375-.37.415-1.788 1.982-.371.41-1.705 1.892a.271.271 0 01-.365.039c-.15-.106-14.865-10.93-24.81-31.302l-10.82-31.119c-1.482 2.264-7.88 12.729-8.018 25.718-.166 15.147 1.97 41.993 6.27 50.914a.282.282 0 010 .266.276.276 0 01-.233.127h-9.386a.275.275 0 01-.243-.15c-.078-.148-7.97-15.495-10.853-40.465-2.883-24.97 2.85-54.728 2.911-55.055z"/>
		<path fill="#05070A" d="M799.378 432.685a.282.282 0 01.05-.1l6.265-7.919.343-.437 1.527-1.931.343-.438.46-.58a.277.277 0 01.382-.05l1.881 1.4a.277.277 0 01.056.392l-9.409 12.176a.282.282 0 01-.204.11h-.15a1.539 1.539 0 01-1.273-.553c-.653-.747-.315-2.014-.27-2.07zm-53.682 7.499c.404-.88 1.694-1.14 1.75-1.151h.11l8.926 1.904v.193h.554v-.072l2.452.52-.078.316.553.133.083-.332 1.622.349a.271.271 0 01.21.32l-.42 2.308a.282.282 0 01-.271.227h-.056l-15.08-3.06a.271.271 0 01-.183-.139 1.605 1.605 0 01-.172-1.516z"/>
		<path fill="#1600D0" d="M757.03 441.13h-.553v-.193l.553.121zm2.375.764l.077-.315.542.116-.083.332z"/>
	</g>
	<path fill="#CCD1D9" d="M579.593 204.88h10.443v10.443h-10.443zm10.443 10.438h10.443v10.443h-10.443zM600.474 225.761h10.443v10.443h-10.443zm-10.438 10.443h10.443v10.443h-10.443zm-10.443 10.443h10.443v10.443h-10.443zm31.324-31.329h10.443v10.443h-10.443zm10.443-10.438h10.443v10.443H621.36zm-10.443 31.324h10.443v10.443h-10.443zm10.443 10.443h10.443v10.443H621.36zM450.434 204.88h10.443v10.443h-10.443zm10.443 10.438h10.443v10.443h-10.443zM471.315 225.761h10.443v10.443h-10.443zm-10.438 10.443h10.443v10.443h-10.443zm-10.443 10.443h10.443v10.443h-10.443zm31.324-31.329h10.443v10.443h-10.443zm10.443-10.438h10.443v10.443h-10.443zm-10.443 31.324h10.443v10.443h-10.443zm10.443 10.443h10.443v10.443h-10.443zm-3.775 66.875h10.443v10.443h-10.443zm16.531 0H515.4v10.443h-10.443zm16.536 0h10.443v10.443h-10.443zm16.531 0h10.443v10.443h-10.443zm16.531 0h10.443v10.443h-10.443zm16.53 0h10.443v10.443h-10.443zm16.531 0h10.443v10.443h-10.443z"/>
</svg>
