<svg id="Layer_1" data-name="Layer 1" xmlns="http://www.w3.org/2000/svg" xmlns:xlink="http://www.w3.org/1999/xlink" viewBox="0 0 904 308"><defs><style>.cls-1{fill:url(#linear-gradient);}</style><linearGradient id="linear-gradient" x1="1.58" y1="154" x2="902.42" y2="154" gradientUnits="userSpaceOnUse"><stop offset="0" stop-color="#b40eaa"/><stop offset="1" stop-color="#005cc7"/></linearGradient></defs><path class="cls-1" d="M151.59,4c-82.73,0-150,67.29-150,150s67.28,150,150,150,150-67.29,150-150S234.3,4,151.59,4Zm0,289.66C74.57,293.66,11.92,231,11.92,154S74.57,14.34,151.59,14.34,291.23,77,291.23,154,228.59,293.66,151.59,293.66ZM220.5,83.5,149.93,154l70.57,70.49H206.79l-69.71-68.33v68.33H126.19V83.5h10.89v68.31L205.45,83.5Zm-124.62,5a8.1,8.1,0,0,1-8.11,8.09,8.11,8.11,0,0,1,0-16.21A8.12,8.12,0,0,1,95.88,88.54Zm398.47-5.62-69.7,69.64,69.7,69.64H480.82L412,154.69V222.2H401.2V82.92H412v67.47l67.53-67.47Zm255,36.89h12.1l-44.43,103.7H706.89l-.2-.45L662.45,119.81h12.09l.2.46,37.32,88Zm46.2-20.74a8,8,0,0,1-8,7.93,7.95,7.95,0,1,1,0-15.89A8,8,0,0,1,795.59,99.07Zm106.83,53v71.46H891.75V152.05c0-17.28-7-24.65-23.42-24.65-13.06,0-26.61,8.81-32.85,17.16v78.95H824.81V119.81h10.67V132c7.5-7,20.3-14.65,33.68-14.65C891.54,117.35,902.42,128.7,902.42,152.05ZM601.24,171.56c0-37.45-24.24-54.21-48.25-54.21-27.42,0-48.88,23.8-48.88,54.21,0,31.53,21.42,54.42,50.92,54.42,16,0,28.31-5.35,39.83-17.34l1.49-1.55-6.82-7.2-1.64,1.75c-9,9.61-19.76,14.28-32.86,14.28-21.7,0-37.78-16.44-39.32-40h85.53Zm-85.51-5.75c1.44-18.76,14.76-38.41,37-38.41,23.37,0,36.36,19.2,37.32,38.41ZM626.72,82H637.4V223.51H626.72Zm156.07,37.78h10.67v103.7H782.79Z"/></svg>