<svg id="kv-es-section-thresholds-night"
	xmlns="http://www.w3.org/2000/svg" viewBox="0 0 200 104">
	<g fill="none" fill-rule="evenodd">
		<path fill="#F6F6F6" d="M102.092 20a4.574 4.574 0 0 1 0 9.146h-9.33a4.58 4.58 0 1 0 0 9.151h15.59a4.573 4.573 0 0 1-.001 9.146h53.854a4.58 4.58 0 1 1 0 9.151h-6.578a4.573 4.573 0 0 0 0 9.147h12.384a4.579 4.579 0 1 1 0 9.15h-39.114a4.573 4.573 0 0 1 0 9.147H26.962a4.574 4.574 0 0 1 0-9.146h14.281a4.574 4.574 0 0 1-1.957-.449 4.567 4.567 0 0 0 0-8.254 4.484 4.484 0 0 1 1.957-.448h-1.275a4.573 4.573 0 0 1 0-9.146h17.686a4.58 4.58 0 1 0 0-9.151H4.573a4.575 4.575 0 0 1 0-9.147h54.886a4.578 4.578 0 0 0 0-9.151h.822A4.572 4.572 0 1 1 60.27 20h41.822zm97.139 47.982a4.58 4.58 0 0 1-4.096 6.909h-9.13a4.578 4.578 0 0 1 0-9.15h9.13a4.577 4.577 0 0 1 4.096 2.24z"/>
		<g transform="translate(17 26)">
			<path fill="#FFF" fill-rule="nonzero" d="M16.785.418 157.941 15.03a2 2 0 0 1 1.783 2.196l-3.668 35.435a2 2 0 0 1-2.195 1.784L12.704 39.833a2 2 0 0 1-1.783-2.196l3.668-35.435A2 2 0 0 1 16.784.418z"/>
			<path fill="var(--illustration-color-light-90)" d="m12.453 22.852 145.133 15.024-1.736 16.766L10.717 39.618z"/>
			<path stroke="#CCD1D9" d="M12.461 22.856 157.594 37.87"/>
			<path fill="#CCD1D9" fill-rule="nonzero" d="m20.65 9.6 53.565 5.545-.739 7.14-53.564-5.546zm118.64 9.77 11.588 1.2a2 2 0 0 1 1.784 2.195l-.659 6.362a2 2 0 0 1-2.195 1.783l-11.588-1.2a2 2 0 0 1-1.784-2.195l.659-6.362a2 2 0 0 1 2.195-1.783zM43.756 32.146l12.845 1.33-.485 4.681-12.845-1.33zm-25.168-2.601 12.845 1.33-.485 4.681-12.845-1.33z"/>
			<path stroke="#CCD1D9" d="M16.785.418 157.941 15.03a2 2 0 0 1 1.783 2.196l-3.668 35.435a2 2 0 0 1-2.195 1.784L12.704 39.833a2 2 0 0 1-1.783-2.196l3.668-35.435A2 2 0 0 1 16.784.418z"/>
			<rect width="145.909" height="39.625" y="9.924" fill="#FFF" fill-rule="nonzero" rx="2"/>
			<path fill="var(--illustration-color-light-90)" d="M0 32.687h145.909v16.856H0z"/>
			<path stroke="#CCD1D9" d="M0 32.687h145.909"/>
			<rect width="53.851" height="7.178" x="6.784" y="18.661" fill="#CCD1D9" fill-rule="nonzero" rx="2"/>
			<rect width="15.65" height="10.396" x="123.799" y="16.16" fill="#CCD1D9" fill-rule="nonzero" rx="2"/>
			<rect width="12.914" height="4.707" x="32.082" y="38.712" fill="#CCD1D9" fill-rule="nonzero" rx="1"/>
			<rect width="12.914" height="4.707" x="6.784" y="38.712" fill="#CCD1D9" fill-rule="nonzero" rx="1"/>
			<rect width="145.909" height="39.625" y="9.924" stroke="#CCD1D9" rx="2"/>
		</g>
	</g>
</svg>
