<svg id="kv-es-checkbox-night"
	xmlns="http://www.w3.org/2000/svg" viewBox="0 0 200 74">
	<g fill="none" fill-rule="nonzero">
		<path fill="#F6F6F6" d="M77.57 27.916h64.498a2.897 2.897 0 00.001-5.774H127.18a2.897 2.897 0 010-5.775h4.137a2.892 2.892 0 000-5.774H89.144a2.894 2.894 0 00-2.65 4.384 2.893 2.893 0 002.65 1.39h4.552a2.898 2.898 0 010 5.775H77.57a2.898 2.898 0 000 5.774z"/>
		<path fill="#F6F6F6" d="M31.601 33.685h28.347a3.32 3.32 0 01-2.983-5.012 3.32 3.32 0 012.983-1.618h73.91a3.32 3.32 0 110 6.63h-10.362a3.34 3.34 0 011.423.325 3.314 3.314 0 000 5.985c-.445.212-.93.323-1.423.325h.913a3.32 3.32 0 012.983 5.012 3.317 3.317 0 01-2.983 1.618h-12.813a3.318 3.318 0 000 6.63h26.724a3.32 3.32 0 110 6.63H110.3a3.317 3.317 0 10-.001 6.635h-.588a3.323 3.323 0 010 6.646h-30.32a3.32 3.32 0 110-6.63h6.761a3.318 3.318 0 100-6.635H74.85a3.319 3.319 0 110-6.63H35.811a3.32 3.32 0 110-6.63h4.772a3.317 3.317 0 000-6.63H31.6a3.318 3.318 0 110-6.635v-.016zM139.003 0h-5.775a2.897 2.897 0 00-2.65 2.887 2.896 2.896 0 002.65 2.887h5.775a2.897 2.897 0 000-5.774zM8.488 45.512h5.774a2.9 2.9 0 012.714 4.407 2.898 2.898 0 01-2.714 1.367H8.488a2.898 2.898 0 110-5.774z"/>
		<path fill="#FFF" d="M3.526 35.658l194.867-10.384.905 16.984L4.431 52.642z"/>
		<path fill="#CCD1D9" d="M4.136 52.976l-.94-17.616h.316l195.18-10.426.94 17.617h-.314L4.136 52.976zm-.272-17.018l.86 16.352L198.95 41.953l-.87-16.353L3.864 35.958z"/>
		<path fill="#CCD1D9" d="M21.119 41.41l70.005-3.73.194 3.644-70.005 3.73zM7.35 48.614l-.5-9.244 10.82-.577.493 9.265-10.814.556zm.167-8.666l.425 8.005 9.56-.525-.426-8.005-9.559.525z"/>
		<path fill="#FFF" d="M4.73 15.344l194.851 10.69-.931 16.982L3.799 32.326z"/>
		<path fill="#CCD1D9" d="M198.95 43.339h-.315L3.47 32.625l.966-17.612h.315l195.165 10.709-.966 17.617zM4.131 32.02l194.226 10.64.892-16.351L5.03 15.675l-.9 16.345z"/>
		<path fill="#CCD1D9" d="M21.592 22.964l70 3.84-.2 3.643-70-3.84zM17.948 29.228l-10.82-.593.526-9.26 10.797.573-.503 9.28zM7.795 28.042l9.554.525.441-8.005-9.559-.525-.436 8.005z"/>
		<path fill="#FFF" d="M.315 23.89h195.144v17.008H.315z"/>
		<path fill="#CCD1D9" d="M195.8 41.213H0V23.575h195.8v17.638zM.63 40.583h194.514V24.205H.63v16.378z"/>
		<path fill="#CCD1D9" d="M17.57 30.567h70.105v3.648H17.57zm-3.302 6.462H3.438v-9.276h10.83v9.276zm-10.2-.63h9.58v-8.016h-9.58V36.4z"/>
		<path fill="var(--illustration-success-color)" d="M3.753 28.068h10.199v8.646H3.753z"/>
		<path fill="#FFF" d="M7.78 33.696l-1.402-1.407-.467.472 1.869 1.885 4.015-4.016-.467-.467z"/>
	</g>
</svg>
