<svg id="kv-es-lock-night"
	xmlns="http://www.w3.org/2000/svg" viewBox="0 0 696 200">
	<style>.cls-lock-bg{fill:#f6f6f6;}</style>
	<g fill="none" fill-rule="evenodd">
		<mask id="b" fill="#fff">
			<path d="M0 0h696v200H0z"/>
		</mask>
		<g mask="url(#b)">
			<path class="cls-lock-bg" d="M340.09 101.655h109.515a4.919 4.919 0 000-9.832H424.33a4.913 4.913 0 010-9.826h7.021a4.92 4.92 0 000-9.832h-71.61a4.92 4.92 0 00.001 9.832h7.723a4.913 4.913 0 110 9.826H340.09a4.918 4.918 0 00-4.4 7.424 4.918 4.918 0 004.4 2.408zm-89.019 31.818h42.005a4.911 4.911 0 110-9.825h109.537a4.913 4.913 0 010 9.825h-15.349c.73 0 1.45.165 2.108.482a4.903 4.903 0 000 8.868 4.914 4.914 0 01-2.108.476h1.37a4.92 4.92 0 110 9.832h-19.001a4.913 4.913 0 000 9.826h39.588a4.915 4.915 0 014.573 2.337 4.92 4.92 0 01-4.573 7.472h-41.516a4.913 4.913 0 000 9.826h-.877a4.917 4.917 0 010 9.831h-44.93a4.918 4.918 0 010-9.831h10.022a4.913 4.913 0 100-9.826h-16.777a4.919 4.919 0 010-9.832h-57.835a4.913 4.913 0 010-9.826h7.068a4.919 4.919 0 100-9.832H251.07a4.913 4.913 0 010-9.826v.023zm213.702-77.411h-9.843a4.92 4.92 0 000 9.832h9.843a4.92 4.92 0 000-9.832zm-242.86 77.411h9.832a4.913 4.913 0 010 9.826h-9.832a4.913 4.913 0 110-9.826z"/>
			<path fill="var(--illustration-color)" d="M392.281 62.787h-96.348c-5.934 0-10.744 4.81-10.744 10.744v78.7c0 3.207 2.6 5.807 5.808 5.807h106.215a5.807 5.807 0 005.807-5.807v-78.7c-.003-5.93-4.808-10.737-10.738-10.744z"/>
			<path fill="#FFF" fill-rule="nonzero" d="M339.284 112.875l-6.446 15.174h22.254l-6.266-15.098a12.324 12.324 0 10-9.547-.047l.005-.029z"/>
			<path fill="var(--illustration-color-light-90)" d="M344.11 9c-22.527.026-40.782 18.28-40.808 40.808v12.98h13.938v-13.01c.216-14.677 12.176-26.463 26.855-26.463 14.68 0 26.64 11.786 26.856 26.464v13.008h13.938v-12.98C384.863 27.293 366.626 9.043 344.11 9z"/>
			<path fill="#05070A" fill-rule="nonzero" d="M296.804 152.231v-78.7c0-5.934 4.81-10.744 10.743-10.744h-11.614c-5.934 0-10.744 4.81-10.744 10.744v78.7c0 3.207 2.6 5.807 5.808 5.807h11.613a5.807 5.807 0 01-5.807-5.807zm95.477-89.444h-11.614c5.934 0 10.746 4.81 10.75 10.744v78.7c0 3.207-2.6 5.807-5.808 5.807h11.614c3.208 0 5.808-2.6 5.808-5.807v-78.7c-.003-5.935-4.815-10.744-10.75-10.744z" opacity=".1"/>
			<path fill="#05070A" fill-rule="nonzero" d="M347.792 62.787h20.883l-35.012 95.257h-22.045zm24.524 0h7.294l-35.337 95.257h-7.614z" opacity=".05"/>
			<path fill="#FFF" fill-rule="nonzero" d="M355.092 128.05h-22.254l6.446-15.146a12.312 12.312 0 119.542.047l6.266 15.098zm10.064 10.191h-42.597a2.816 2.816 0 100 5.628h42.597a2.818 2.818 0 100-5.628z"/>
			<path fill="var(--illustration-color-light-80)" fill-rule="nonzero" d="M316.671 56.951h-13.369v5.836h13.949v-5.836zm67.666 0H370.963v5.836H384.918v-5.836z"/>
		</g>
	</g>
</svg>
