<svg id="kv-es-table-search-night"
	xmlns="http://www.w3.org/2000/svg" viewBox="0 0 387 211">
	<g fill="none" fill-rule="evenodd">
		<path d="M0 0h387v211H0z"/>
		<path fill="#BEBEBE" d="M130.347 135.693h111.104a4.986 4.986 0 0 0 4.984-4.99 4.987 4.987 0 0 0-4.984-4.99h-25.636a4.988 4.988 0 0 1-4.464-2.446 5.002 5.002 0 0 1 0-5.095 4.988 4.988 0 0 1 4.464-2.446h7.118a4.987 4.987 0 0 0 4.984-4.99 4.987 4.987 0 0 0-4.984-4.99H150.29a4.986 4.986 0 0 0-4.983 4.989 4.987 4.987 0 0 0 4.983 4.991h7.836a4.994 4.994 0 0 1 4.819 4.993 4.993 4.993 0 0 1-4.819 4.993h-27.779a4.987 4.987 0 0 0-4.984 4.99 4.987 4.987 0 0 0 4.984 4.991zm137.67-9.898h-9.97a4.987 4.987 0 0 0-4.983 4.99 4.987 4.987 0 0 0 4.983 4.99h9.97a4.987 4.987 0 0 0 4.983-4.99 4.987 4.987 0 0 0-4.983-4.99zM119.819 142.89h9.975a4.994 4.994 0 0 1 4.818 4.993 4.993 4.993 0 0 1-4.818 4.993h-9.976a4.993 4.993 0 0 1-4.818-4.993 4.993 4.993 0 0 1 4.819-4.993z" fill-rule="nonzero"/>
		<path fill="#005CC7" d="M158.131 108.56c0-2.354.231-4.701.69-7.009-5.976 13.935-1.794 30.154 10.173 39.451 11.966 9.299 28.697 9.327 40.695.071a34.298 34.298 0 0 0 2.434-2.077 35.518 35.518 0 0 1-35.88.58 35.608 35.608 0 0 1-18.112-31.017z" fill-rule="nonzero" opacity=".6"/>
		<path fill="#005CC7" d="M158.131 108.56a35.609 35.609 0 0 0 18.103 31.016 35.523 35.523 0 0 0 35.877-.568c.27-.253.536-.507.801-.773 12.986-13.002 12.985-34.084-.003-47.086-12.987-13.003-34.043-13.001-47.03.002a31.731 31.731 0 0 0-2.84 3.233 33.005 33.005 0 0 0-4.217 7.167 35.876 35.876 0 0 0-.69 7.008z" fill-rule="nonzero" opacity=".3"/>
		<path fill="#407881" d="M212.464 164.414z" fill-rule="nonzero"/>
		<path fill="#005CC7" d="M249.594 157.507a51.712 51.712 0 0 0-11.348-8.706c2.463-4.666 2.946-8.89.808-11.013-2.14-2.125-6.234-1.67-10.824.714a45.867 45.867 0 0 1-11.094 12.327c-1.259.97-2.57 1.871-3.923 2.702-1.827 3.54-2.504 6.778-1.768 9.055.207.667.57 1.273 1.06 1.77 1.586 1.586 4.342 1.727 7.577.666.254-.083.513-.177.772-.272l.242-.094c.182-.077.371-.147.553-.23l.272-.118.553-.247.264-.13.59-.301.159-.083a51.601 51.601 0 0 0 8.696 11.361l.543.537c.477.466.954.914 1.431 1.35l.06.053a46.294 46.294 0 0 0 12.46 8.318l.312.13.165.07c.319.13.63.248.942.367l.313.105.59.219.365.112h.088l.466.141.364.1.354.089.176.042.366.082c.171.041.347.07.518.106l.348.065.265.035.265.042.306.041c2.894.325 5.303-.241 6.894-1.828 4.82-4.737.26-17.125-10.18-27.577z" />
		<path fill="#DDD" d="M217.118 150.854a45.888 45.888 0 0 0 11.094-12.33c12.33-20.107 7.32-46.31-11.555-60.438-18.875-14.126-45.393-11.522-61.167 6.008-15.774 17.53-15.605 44.206.39 61.533 15.996 17.328 42.544 19.593 61.238 5.228v-.001zM165.862 91.15a33.227 33.227 0 0 1 32.121-8.62 33.278 33.278 0 0 1 23.517 23.542 33.323 33.323 0 0 1-9.407 32.935 32.52 32.52 0 0 1-2.433 2.076c-13.241 10.198-31.983 8.976-43.792-2.853-11.81-11.83-13.02-30.595-2.829-43.847a31.731 31.731 0 0 1 2.84-3.233h-.017z" fill-rule="nonzero"/>
	</g>
</svg>
