<svg xmlns="http://www.w3.org/2000/svg" fill="none" viewBox="0 0 140 140">
	<circle cx="70" cy="70" r="70" fill="var(--illustrations-background-default, var(--color-gray-800, #262626))"/>
	<mask id="a" width="140" height="140" x="0" y="0" maskUnits="userSpaceOnUse" style="mask-type:alpha">
		<circle cx="70" cy="70" r="70" fill="var(--illustrations-background-default, var(--color-gray-800, #262626))"/>
	</mask>
	<g mask="url(#a)">
		<path fill="var(--illustrations-shape-secondary, #404040)" d="M104.09 138.057c-2.573 1.306-5.711.254-6.998-2.319l-11.285-22.435c-1.287-2.573-.254-5.711 2.32-6.998l9.024-4.541c2.573-1.286 5.711-.253 6.997 2.319l11.286 22.435c1.306 2.573.253 5.711-2.319 6.998zm-68.2 0c2.573 1.306 5.71.254 6.997-2.319l11.286-22.435c1.306-2.573.253-5.711-2.32-6.998l-9.024-4.541c-2.573-1.286-5.711-.253-6.998 2.319l-11.266 22.416a5.18 5.18 0 0 0 2.32 6.997l9.024 4.542z"/>
		<path fill="var(--illustrations-shape-tertiary, #1a1a1a)" d="m99.314 139.811 2.261-34.753c0-2.885-2.339-5.205-5.223-5.205H42.224c-2.885 0-5.224 2.339-5.224 5.205l2.261 34.753h60.054"/>
		<path fill="var(--illustrations-shape-primary, #595959)" d="M71.406 113.322h-4.912v26.353h4.912z"/>
		<path fill="var(--illustrations-accent-primary, #7c4dff)" d="M95 127a7 7 0 0 1-7 7c-3.877 0-7-3.123-7-7s3.123-7 7-7 7 3.123 7 7"/>
		<path fill="var(--illustrations-icon-primary, #e5e5e5)" d="m88 123.004 2.193 3.779.002-.002c.27.467.503.972.503 1.55 0 1.426-1.135 2.592-2.562 2.662q-.067.005-.135.004V131q-.07 0-.138-.003c-1.427-.071-2.562-1.235-2.562-2.663 0-.577.232-1.084.503-1.55.91-1.565 2.13-3.668 2.194-3.778V123l.002.003v-.001z"/>
		<path fill="var(--illustrations-shape-primary, #595959)" d="M88 96H51v10h37z"/>
		<path fill="var(--illustrations-shape-strongest, #f2f2f2)" d="M58.066 50h21.868C83.84 50 87 53.053 87 56.828v31.344C87 91.947 83.84 95 79.934 95H58.066C54.16 95 51 91.947 51 88.172V56.828C51 53.053 54.16 50 58.066 50"/>
		<path fill="var(--illustrations-accent-secondary, #6933ff)" d="M90 48.073v22.402c0 1.867-1.017 3.545-2.524 4.356-6.046-7.675-2.768-12.464-2.279-13.124L76.722 67.4l1.921-8.127C74.368 70.362 59.696 73.907 50.882 75.02A5 5 0 0 1 48 70.476V48.073a5.035 5.035 0 0 1 5.029-5.053h31.905a5.04 5.04 0 0 1 5.047 5.053z"/>
		<path fill="var(--illustrations-shape-strongest, #f2f2f2)" d="M77 105.598a2.667 2.667 0 0 1-2.67 2.67H63.67a2.667 2.667 0 0 1-2.67-2.67V93.937a2.666 2.666 0 0 1 2.67-2.67h10.66a2.666 2.666 0 0 1 2.67 2.67z"/>
		<path fill="var(--illustrations-shape-secondary, #404040)" d="M73.92 87.18c.508-.354-1.45-2.912-4.92-2.912s-5.428 2.556-4.92 2.913c.407.432 2.25-.889 4.92-.863 2.67-.026 4.513 1.293 4.92.863"/>
		<g fill="var(--illustrations-shape-secondary, #404040)">
			<path d="m47.862 97.81-3.553 7.57a3.157 3.157 0 0 0 1.516 4.2l17.89 8.4a3.16 3.16 0 0 0 4.201-1.517l3.554-7.569a3.16 3.16 0 0 0-1.517-4.2l-17.89-8.4a3.157 3.157 0 0 0-4.2 1.517"/>
			<path d="m68.894 104.22 18.074-7.949a3.157 3.157 0 0 1 4.162 1.62l3.359 7.636a3.156 3.156 0 0 1-1.62 4.161l-18.074 7.949a3.156 3.156 0 0 1-4.161-1.619l-3.359-7.636a3.157 3.157 0 0 1 1.62-4.162"/>
		</g>
		<path fill="var(--illustrations-accent-primary, #7c4dff)" d="M94.98 54.938c-.06-14.458-11.57-27.163-25.91-27.163S43 40.54 43 55.037v1.313c0 .914.896 1.65 1.812 1.65h48.515c.916 0 1.673-.736 1.673-1.65v-1.412z"/>
		<rect width="14" height="3" x="76" y="49" fill="var(--illustrations-icon-primary, #e5e5e5)" rx="1.5" transform="rotate(-180 76 49)"/>
		<rect width="42" height="3" x="90" y="55" fill="var(--illustrations-accent-tertiary, #a180ff)" rx="1.5" transform="rotate(-180 90 55)"/>
		<rect width="17" height="4.006" x="71.006" y="27" fill="var(--illustrations-accent-tertiary, #a180ff)" rx="2.003" transform="rotate(90 71.006 27)"/>
		<path fill="var(--illustrations-accent-primary, #7c4dff)" d="M69.004 27v17a2.003 2.003 0 0 0 2.003-2.003V29.003A2.003 2.003 0 0 0 69.004 27"/>
		<rect width="17.013" height="4.003" fill="var(--illustrations-accent-tertiary, #a180ff)" rx="2.002" transform="rotate(44.956 -8.624 78.353)skewX(-.088)"/>
		<path fill="var(--illustrations-accent-primary, #7c4dff)" d="m51.424 30.414 12.04 12.02a2.005 2.005 0 0 1-2.834 0l-9.206-9.191a2 2 0 0 1 0-2.829"/>
		<rect width="17.013" height="4.003" fill="var(--illustrations-accent-tertiary, #a180ff)" rx="2.002" transform="matrix(-.70765 .70656 .70765 .70656 85.088 29)"/>
		<path fill="var(--illustrations-accent-primary, #7c4dff)" d="m86.504 30.414-12.04 12.02a2.004 2.004 0 0 0 2.833 0l9.207-9.191a2 2 0 0 0 0-2.829"/>
	</g>
</svg>