	<svg id="kv-feedback-form-night" viewBox="0 0 344 216"
		xmlns="http://www.w3.org/2000/svg">
		<g fill="none">
			<path d="M203.988 6.554C228.804-6.496 260.301.345 277 23.484l-.568.395C259.939 1.027 228.827-5.727 204.317 7.158a56.4 56.4 0 0 0-6.019 3.66c-25.206 17.57-31.167 52.015-13.29 76.786l-.568.396c-18.1-25.078-12.064-59.953 13.455-77.74a57.233 57.233 0 0 1 6.093-3.706z" fill="#E6E6E6" />
			<path d="m335.273 62.986-81.84-6.397c-2.645-.21-4.622-2.53-4.419-5.188l3.548-39.947c.209-2.657 2.52-4.643 5.165-4.44l81.84 6.397c2.645.21 4.622 2.53 4.419 5.188l-3.548 39.947c-.209 2.657-2.52 4.643-5.165 4.44z" fill="#E6E6E6" />
			<path d="M316.39 54c-.623 0-1.248-.024-1.876-.071l-53.042-4.02a8.175 8.175 0 0 1-5.526-2.738 7.76 7.76 0 0 1-1.922-5.743l1.21-15.148c.352-4.343 4.246-7.59 8.705-7.257l68.589 5.2c4.458.342 7.79 4.136 7.448 8.48-.96 12.005-11.227 21.276-23.586 21.297z" fill="#FFF" />
			<path d="m330.853 34.997-66.871-4.968a1.065 1.065 0 0 1-.878-.575.977.977 0 0 1 .083-1.013c.215-.299.58-.466.96-.438l66.871 4.968c.38.028.714.247.878.575a.977.977 0 0 1-.083 1.013c-.215.299-.58.466-.96.438zM302.84 36.996l-39.849-3.542c-.591-.053-1.034-.644-.988-1.32.046-.677.563-1.183 1.155-1.13l39.85 3.542c.383.034.72.299.887.695a1.38 1.38 0 0 1-.084 1.225c-.217.363-.587.565-.97.53zM311.867 41.997l-47.896-3.835a1.053 1.053 0 0 1-.868-.612 1.11 1.11 0 0 1 .082-1.08c.212-.319.574-.497.95-.467l47.895 3.835c.58.047 1.012.567.967 1.163-.045.596-.551 1.042-1.13.996zM330.273 115.986l-81.84-6.397c-2.645-.21-4.622-2.53-4.419-5.188l3.548-39.947c.209-2.657 2.52-4.643 5.165-4.44l81.84 6.397c2.645.21 4.622 2.53 4.419 5.188l-3.548 39.947c-.209 2.657-2.52 4.643-5.165 4.44z" fill="#E6E6E6" />
			<path d="M311.369 107c-.615 0-1.233-.023-1.855-.07l-53.042-4.02a8.175 8.175 0 0 1-5.526-2.738 7.761 7.761 0 0 1-1.922-5.743l1.21-15.148a7.826 7.826 0 0 1 2.81-5.385 8.24 8.24 0 0 1 5.895-1.872l68.589 5.199a8.175 8.175 0 0 1 5.526 2.737 7.761 7.761 0 0 1 1.922 5.743c-.974 12.007-11.246 21.273-23.607 21.297z" fill="#FFF" />
			<path d="m324.853 87.997-66.871-4.968a1.065 1.065 0 0 1-.878-.575.977.977 0 0 1 .083-1.013c.215-.299.58-.466.96-.438l66.871 4.968c.38.028.714.247.878.575a.977.977 0 0 1-.083 1.013c-.215.299-.58.466-.96.438zM297.842 90.996l-39.85-3.542c-.383-.034-.72-.299-.887-.695a1.38 1.38 0 0 1 .084-1.225c.217-.363.587-.565.97-.53l39.85 3.542c.591.053 1.034.644.988 1.32-.046.677-.563 1.183-1.155 1.13zM305.866 94.997l-47.895-3.835c-.58-.046-1.013-.567-.968-1.163.045-.596.551-1.042 1.13-.996l47.896 3.835c.58.046 1.013.567.968 1.163-.045.596-.551 1.042-1.13.996zM122.645 95a19.162 19.162 0 0 1 2.083-19.122 19.36 19.36 0 0 1 17.678-7.766c6.863.741 12.807 5.07 15.594 11.358l-.63.277c-2.688-6.063-8.42-10.238-15.039-10.953a18.669 18.669 0 0 0-17.047 7.489 18.478 18.478 0 0 0-2.009 18.44l-.63.277z" fill="#E6E6E6" />
			<path d="M325.557 204.188c8.194-3.674 14.297-11.065 13.345-19.188-7.35 5.632-17.359 8.777-27.69 8.702-4.024-.03-8.53-.417-11.455 1.72-1.82 1.33-2.64 3.44-2.744 5.544-.104 2.104.435 4.233.971 6.335l-.163.498c9.62.579 19.543.063 27.736-3.61z" fill="#F2F2F2" />
			<path d="M338.577 185.1c-3.163 5.86-8.646 10.744-15.46 13.603a17.017 17.017 0 0 1-4.716 1.316 11.184 11.184 0 0 1-4.904-.61c-1.481-.504-2.941-1.161-4.512-1.361a5.999 5.999 0 0 0-4.363 1.117c-1.451 1.072-2.317 2.555-3.101 4.034-.871 1.643-1.744 3.363-3.45 4.483-.206.135.081.418.288.282 2.967-1.948 3.395-5.47 5.753-7.829 1.124-1.206 2.767-1.859 4.46-1.77 1.603.112 3.11.789 4.605 1.31 1.52.57 3.152.825 4.784.746a16.008 16.008 0 0 0 4.773-1.153 33.258 33.258 0 0 0 9.03-5.336 29.528 29.528 0 0 0 7.218-8.7c.109-.202-.297-.333-.405-.132z" fill="#FFF" />
			<path d="M325.045 197.363c1.68 2.426 4.43 3.282 6.852 2.132.226-.117.041-.523-.185-.406-2.254 1.075-4.817.271-6.371-1.998-.16-.237-.454.036-.296.272zM313.404 198.854c.306-2.251 1.59-4.27 3.528-5.544.197-.133-.077-.407-.274-.275-2.014 1.33-3.345 3.433-3.657 5.777-.027.221.376.262.403.042zM332.965 191.708c-.494-.593-.757-1.544-.694-2.512.02-.23-.242-.273-.262-.044-.066 1.07.222 2.118.764 2.78.05.077.126.09.185.032a.209.209 0 0 0 .042-.125.222.222 0 0 0-.035-.131z" fill="#FFF" />
			<path d="M311.42 167c-.024.146-.049.293-.076.44a32.663 32.663 0 0 1-1.535 5.748c-.05.145-.104.291-.159.434a34.734 34.734 0 0 1-7.73 11.994 35.674 35.674 0 0 1-4.42 3.801c-2.191 1.594-4.72 3.15-6.106 5.298a5.742 5.742 0 0 0-.394.693l6.246 12.99.086.075.225.527.262-.166c.05-.03.1-.065.15-.096.033-.021.067-.043.098-.06a.506.506 0 0 0 .03-.021c.032-.018.059-.038.087-.054.497-.322.991-.647 1.484-.976.003-.001.003-.001.005-.005 3.746-2.518 7.27-5.364 10.165-8.647.087-.1.177-.199.261-.304a32.367 32.367 0 0 0 3.443-4.76 28.15 28.15 0 0 0 1.463-2.85 23.528 23.528 0 0 0 1.948-8.008c.352-5.544-1.248-11.278-5.226-15.716a23.01 23.01 0 0 0-.307-.337z" fill="#F2F2F2" />
			<path d="M311.487 167.234c1.923 6.862 1.26 14.099-1.996 20.256a12.744 12.744 0 0 1-2.756 3.676 9.488 9.488 0 0 1-4.365 2.077c-1.56.344-3.22.542-4.622 1.202-1.394.65-2.37 1.881-2.625 3.313-.343 1.72.091 3.492.588 5.217.552 1.915 1.16 3.9.652 5.797-.062.23.38.326.442.096.886-3.302-1.442-6.64-1.353-9.981.041-1.56.652-3.078 2.208-3.942 1.36-.755 3.072-.96 4.657-1.297a10.346 10.346 0 0 0 4.372-1.892 12.006 12.006 0 0 0 2.925-3.562 26.368 26.368 0 0 0 3.144-9.527c.506-3.86.218-7.773-.849-11.532-.066-.237-.488-.136-.422.1z" fill="#FFF" />
			<path d="M310.168 185.696c2.746.864 5.66-.17 6.812-2.403.113-.22-.28-.417-.393-.197-1.079 2.093-3.775 3.031-6.342 2.224-.27-.085-.346.292-.077.376zM303.984 192.737c-.7-1.92-.937-4.279-.654-6.525.029-.214-.182-.303-.211-.09-.291 2.34-.042 4.793.689 6.789.07.201.246.026.176-.174zM312.836 173.822c-1.011-.058-1.919-.342-2.476-.775-.13-.106-.46-.014-.33.092.619.477 1.619.791 2.735.86.11.006.211-.013.234-.065.012-.053-.06-.102-.163-.112z" fill="#FFF" />
			<path d="m324.854 114.573-4.947-25.968L310.197 76 303 80.64c1.017 5.439 8.71 15.593 8.71 15.593l6.817 20.083c-.027.105-.052.21-.07.318-.3 1.754.694 3.473 2.377 4.114 1.682.64 3.59.026 4.564-1.47a3.707 3.707 0 0 0-.544-4.705z" fill="#FFB8B8" />
			<path d="m303.433 83 8.173-6.528.016-.035c1.528-3.408-1.866-9.253-4.982-13.556-2.135-2.943-6.221-3.755-9.35-1.86-2.259 1.39-3.52 3.922-3.255 6.53l.687 6.513 8.71 8.936z" fill="#3F3D56" />
			<path fill="#FFB8B8" d="M275 210h-4.744L268 190h7z" />
			<path d="M277 210.052h-1.571L269.294 208l-3.288 2.051c-3.87 0-7.006 2.58-7.006 5.761V216l18 .001v-5.948z" fill="#2F2E41" />
			<path fill="#FFB8B8" d="M298 210h-4.744L291 190h7z" />
			<path d="M301 210.052h-1.571L293.294 208l-3.288 2.051c-3.87 0-7.006 2.58-7.006 5.761V216l18 .001v-5.948zM306.875 122.168s.632 7.433-.948 14.556c-1.58 7.123-1.58 27.184-1.58 27.184L300.871 203l-10.429-.93-2.844-65.346-10.113 21.989-2.212 10.84 1.264 31.898-10.745-.31L262 156.236l5.846-30.603.725-2.07L269.9 120l36.974 2.168z" fill="#2F2E41" />
			<path d="m307.474 125 .056-.078c2.988-4.171-1.506-14.194-2.184-15.647l1.907-8.8 3.445-13.185 1.826-7.276c1.4-5.6-.338-11.518-4.548-15.48l-4.221-3.968-5.13-7.566h-8.271l-2.837 5.34c-5.674 1.308-9.6 6.472-9.328 12.272l.643 14.007-2.517 17.44-.001 3.156-5.32 11.568c-.394.518-2.994 3.973-2.994 4.918 0 .142.105.279.33.43 1.772 1.197 11.564 3.635 15.897 1.906 4.616-1.84 22.967.92 23.151.948l.096.015z" fill="#3F3D56" />
			<path d="M237 215.5c0 .275.185.5.414.5h98.17c.23 0 .416-.224.416-.5s-.187-.5-.417-.5h-98.166c-.23 0-.417.222-.417.497v.003z" fill="#CCC" />
			<circle fill="#FFB8B8" cx="294" cy="39" r="11" />
			<path d="M293.43 49.988a29.376 29.376 0 0 0 4.899-.462c1.6-.362 5.131-3.043 6.094-4.626.715-1.177 1.144-2.997 1.378-4.317a12.495 12.495 0 0 0-2.52-9.995 4.062 4.062 0 0 0-1.682-1.338c-.06-.02-.12-.04-.182-.055a5.05 5.05 0 0 1-2.541-1.456 4.113 4.113 0 0 0-.427-.41 6.245 6.245 0 0 0-2.617-1.207c-1.546-.365-3.758.092-6.574 1.359-1.415.636-2.985.459-4.196.233a.398.398 0 0 0-.367.134c-.5.485-1.168.766-1.87.787-.43.03-.866.626-1.391 1.403-.12.176-.259.382-.36.507l-.02-.235-.236.27a3.268 3.268 0 0 0-.671 3.128 3.347 3.347 0 0 0 2.336 2.23c.435.101.88.16 1.328.173.272.017.553.034.822.073a5.066 5.066 0 0 1 3.865 3.145c.15.379.47.667.866.781a1.35 1.35 0 0 0 1.158-.197 2.23 2.23 0 0 1 1.994-.41c.296.153.53.4.663.703.16.335.42.617.744.808 1.104.524 1.244 2.967.906 5.015-.326 1.975-1.035 3.415-1.724 3.503-.53.067-.59.106-.626.199l-.032.084.061.075c.297.097.611.13.922.098z" fill="#2F2E41" />
			<circle fill="var(--illustration-color)" cx="173.5" cy="84.5" r="21.5" />
			<path d="M289 82.437 282.152 78c-4.361 3.056-10.254 13.82-10.254 13.82l-14.916 13.96c-1.718.3-2.976 1.805-2.982 3.571-.006 1.766 1.241 3.28 2.957 3.592 1.716.31 3.404-.672 4.003-2.33l20.787-14.671L289 82.437z" fill="#FFB8B8" />
			<path d="M290.325 84 295 72.466l-1.69-6.374c-.687-2.55-2.722-4.48-5.25-4.976-3.49-.661-6.882 1.57-7.76 5.104-1.281 5.168-2.265 11.885.322 14.544l.026.027L290.325 84z" fill="#3F3D56" />
			<path d="M14.563 209.587C5.426 204.867-1.202 195.747.183 186c8.108 7.047 19.319 11.196 31.017 11.478 4.557.11 9.673-.193 12.902 2.485 2.01 1.666 2.859 4.238 2.897 6.774.037 2.538-.654 5.082-1.34 7.593l.165.606c-10.913.35-22.125-.63-31.261-5.35z" fill="#F2F2F2" />
			<path d="M.487 186.127c3.39 7.13 9.472 13.176 17.151 16.844a18.776 18.776 0 0 0 5.34 1.746c1.894.257 3.822.068 5.63-.553 1.711-.55 3.405-1.285 5.208-1.467a6.627 6.627 0 0 1 4.944 1.494c1.618 1.336 2.551 3.143 3.391 4.943.933 1.998 1.865 4.089 3.772 5.49.23.17-.109.498-.34.329-3.317-2.44-3.672-6.672-6.277-9.582-1.216-1.357-2.93-2.368-5.03-2.28-1.837.076-3.584.832-5.313 1.403-1.76.628-3.634.873-5.497.72a17.621 17.621 0 0 1-5.412-1.552 37.682 37.682 0 0 1-10.118-6.714A35.041 35.041 0 0 1 .019 186.27c-.118-.247.351-.389.468-.144z" fill="#FFF" />
			<path d="M14.944 202.39c-1.905 2.479-5.26 3.317-7.832 1.971-.254-.132-.032-.554.222-.421 2.524 1.228 5.454.484 7.283-1.85.188-.243.514.057.327.3zM26.575 203.826c-.242-2.59-1.52-4.948-3.508-6.477-.201-.158.096-.463.297-.305 2.066 1.596 3.39 4.052 3.635 6.748.022.254-.402.287-.424.034zM5.035 192.7c.483-.576.752-1.525.71-2.509-.014-.234.236-.264.25-.031.044 1.086-.251 2.133-.78 2.777-.05.075-.123.084-.178.022A.226.226 0 0 1 5 192.83a.23.23 0 0 1 .036-.13z" fill="#FFF" />
			<path d="M32.083 166c.023.17.046.34.073.51a37.27 37.27 0 0 0 1.592 6.693c.054.17.111.34.17.507a40.088 40.088 0 0 0 8.631 14.135 41.724 41.724 0 0 0 5.047 4.554c2.51 1.921 5.42 3.814 6.967 6.344.165.26.31.533.437.815l-7.794 14.76c-.036.027-.068.055-.104.082l-.282.6c-.1-.065-.202-.135-.302-.201-.058-.038-.114-.079-.172-.117-.038-.026-.076-.052-.113-.074a.591.591 0 0 1-.034-.025c-.037-.021-.068-.045-.1-.065-.57-.39-1.139-.784-1.705-1.182-.003-.002-.003-.002-.005-.006-4.302-3.048-8.331-6.465-11.607-10.364-.099-.117-.2-.235-.296-.36a37.443 37.443 0 0 1-3.865-5.624 32.352 32.352 0 0 1-1.612-3.344 26.836 26.836 0 0 1-1.994-9.316c-.213-6.414 1.87-12.971 6.695-17.945.124-.127.246-.251.373-.377z" fill="#F2F2F2" />
			<path d="M31.98 166.279c-2.382 7.855-1.923 16.232 1.443 23.451a14.648 14.648 0 0 0 2.906 4.337 10.28 10.28 0 0 0 4.743 2.546c1.712.45 3.538.735 5.06 1.546 1.517.797 2.549 2.252 2.777 3.913.314 1.998-.233 4.028-.847 6.002-.682 2.193-1.429 4.463-.938 6.671.06.268-.433.363-.493.096-.854-3.842 1.844-7.617 1.871-11.477.013-1.8-.604-3.575-2.29-4.625-1.475-.919-3.358-1.214-5.096-1.656a11.168 11.168 0 0 1-4.759-2.333 13.723 13.723 0 0 1-3.097-4.212 31.367 31.367 0 0 1-3.114-11.105 34.464 34.464 0 0 1 1.372-13.283c.082-.272.545-.141.463.129z" fill="#FFF" />
			<path d="M31.824 187.767c-2.803.74-5.714-.333-6.806-2.495-.107-.213.295-.389.403-.175 1.023 2.025 3.717 3 6.337 2.31.276-.073.34.288.066.36zM39.05 196.691c2.027-2.16 2.793-4.855 2.12-7.455-.069-.248.518-.336.588-.089.692 2.708-.114 5.51-2.23 7.756-.206.227-.682.014-.478-.212zM29.223 175.441c1.33-.13 2.543-.974 3.308-2.301.18-.327.604-.021.426.303-.85 1.462-2.187 2.396-3.655 2.555-.144.015-.276-.051-.301-.215-.012-.167.085-.317.222-.342z" fill="#FFF" />
			<path fill="#FFB6B6" d="M59.736 97.49 61.5 105H79l2-14-2.375.022L59 91zM50 209h4.065L56 193h-6z" />
			<path d="m48.863 206.38 6.842-.38v2.724l6.504 4.174c.66.424.946 1.196.708 1.907-.239.71-.947 1.195-1.748 1.195h-8.146l-1.404-2.694-.548 2.694H48l.863-9.62z" fill="#2F2E41" />
			<path fill="#FFB6B6" d="M73 209h4.065L79 193h-6z" />
			<path d="m71.863 206.38 6.842-.38v2.724l6.504 4.174c.66.424.946 1.196.708 1.907-.239.71-.947 1.195-1.748 1.195h-8.146l-1.404-2.694-.548 2.694H71l.863-9.62zM49.118 195.813l1.907-63.409C48.424 115.212 60.818 104 60.818 104h18.566l3.985 13.97c2.636 26.187 2.157 51.705-2.024 76.429l.114.059c.41.144.586.724.393 1.295-.193.571-.682.917-1.093.772l-9.805-.347c-.41-.145-.586-.725-.393-1.296.193-.571.683-.917 1.093-.772l.667.344-1.422-25.047.158-4.575-.325-5.19-1.503-23.345-5.689 28.708-5.81 31.096c.327.303.438.781.278 1.202a1.07 1.07 0 0 1-1 .697h-7.934a1.07 1.07 0 0 1-.93-.546 1.113 1.113 0 0 1 0-1.095c.192-.339.547-.547.93-.546h.044z" fill="#2F2E41" />
			<circle fill="#FFB6B6" cx="63" cy="48" r="10" />
			<path d="M19.511 94.42a32.202 32.202 0 0 1 5.67-8.818 21.723 21.723 0 0 0-3.316 10.555c.724.45 1.481.846 2.265 1.181A21.753 21.753 0 0 0 31.55 99 32.252 32.252 0 0 1 38.5 86.678a21.771 21.771 0 0 0-3.333 12.268 34.36 34.36 0 0 0 8.348-1.784c4.05-1.389 7.982-3.463 10.782-6.69 3.032-3.492 4.526-8.1 5.008-12.695.483-4.59.029-9.224-.428-13.818-.216-2.19 1.613-4.71 1.397-6.899h-.144c-.962-1.313-1.94-2.66-2.412-4.217-.469-1.554-.346-3.388.73-4.612a5.029 5.029 0 0 1 2.207-1.364c.08-.1.166-.197.256-.294a20.52 20.52 0 0 1 5.67-4.228c-1.53 1.152-2.553 2.455-3.028 3.8 1.325-.29 2.65-.58 3.975-.868.442-.468.909-.914 1.397-1.335.709-.614.943-.66 1.789-1.239A5.691 5.691 0 0 0 69.17 44.9c1.703-.427 3.406-1.07 4.292-2.53 1.468-2.416-.278-5.675-2.715-7.118a9.735 9.735 0 0 0-11.279 1.239c-3.524-2.588-8.543-2.545-12.463-.61a18.208 18.208 0 0 0-6.502 5.638c.977-.125 1.96-.193 2.945-.205a9.047 9.047 0 0 0-3.856 1.522c-.508.787-.975 1.6-1.397 2.437-.277.55-.538 1.106-.784 1.67-1.509 3.423-2.492 7.07-3.51 10.674-1.189 4.199-2.463 8.427-4.688 12.185a27.437 27.437 0 0 1-15.138 12.042c-.53 4.748 1.796 9.393 5.436 12.576z" fill="#2F2E41" />
			<path d="m72.5 65.5-1.219-1.53L68.848 60l-8.667.715-2.106 4.256L53 68.881l2.22 11.794L58.666 95l5.445-.687 17.636-2.224-.024-10.784s4.17-8.52-2.567-11.712L72.5 65.5z" fill="var(--illustration-color)" />
			<path d="M107.85 102.759c-.926.37-1.97.312-2.85-.157a3.356 3.356 0 0 1-1.71-2.273L77 84.512 81.805 79l24.332 17.28a3.392 3.392 0 0 1 3.75 2.483 3.368 3.368 0 0 1-2.036 3.996z" fill="#FFB6B6" />
			<path d="M71.235 76.67s-2.226 2.743.765 4.83c2.395 1.671 14.214 9.694 18 11-.097 1.21.488 1.1 1.572 1.5L95 86.027c-.742-1.823-1.93-1.4-2.554-.987l-4.14-3.296L78.139 71l-6.058 4.737-.846.934z" fill="var(--illustration-color)" />
			<path d="M59 36c-3.048 3.525-3.823 7.963-2.096 12" fill="#FD6584" />
			<path d="M7 215.5c0 .133.043.26.122.354a.384.384 0 0 0 .295.146h98.166c.23 0 .417-.224.417-.5s-.187-.5-.417-.5H7.417a.384.384 0 0 0-.295.146.555.555 0 0 0-.122.354z" fill="#CCC" />
			<path d="M45.653 121.857a.975.975 0 0 0-.598 1.241l13.646 39.25a.978.978 0 0 0 1.244.597l79.402-27.802a.975.975 0 0 0 .598-1.241l-13.646-39.25a.978.978 0 0 0-1.245-.597l-79.401 27.802z" fill="#E6E6E6" />
			<path d="M64.887 158c-3.166-.001-5.989-2.027-7.048-5.057l-7.41-21.295c-1.375-3.95.664-8.283 4.552-9.68l39.683-14.245c15.467-5.532 32.425 2.695 37.907 18.392 1.375 3.95-.664 8.283-4.552 9.679l-.058-.166.058.166-60.65 21.772a7.328 7.328 0 0 1-2.482.434z" fill="#FFF" />
			<path d="m119.462 115.901-34.98 13.06c-.493.184-1.104-.307-1.365-1.098-.26-.79-.072-1.58.42-1.764l34.981-13.06c.493-.184 1.104.307 1.365 1.098.26.79.072 1.581-.42 1.764zM121.462 122.901l-34.98 13.06c-.493.184-1.104-.307-1.365-1.098-.26-.79-.072-1.58.42-1.764l34.981-13.06c.493-.184 1.104.307 1.365 1.098.26.79.072 1.58-.42 1.764z" fill="#E6E6E6" />
			<path d="M77.455 131.334a9.46 9.46 0 0 1 .39 4.87 9.502 9.502 0 0 1-15.918 5.156 9.502 9.502 0 0 1 6.84-16.356 9.5 9.5 0 0 1 8.688 6.33z" fill="#E4E4E4" />
			<circle fill="#FD6584" cx="69" cy="135" r="2" />
			<path d="M62 142.677c.464-1.03 1.013-2.6 2.283-2.029.628.26 1.752 1.051 2.209.132l3.574-7.153a1.15 1.15 0 0 1 .679-.57c.297-.095.622-.07.9.066L78 136.302a8.384 8.384 0 0 1-.152 1.469L62.372 143l-.372-.323z" fill="#3F3D56" />
			<path d="M64.237 118.764a3.39 3.39 0 0 1-2.025-2.035 3.216 3.216 0 0 1 .323-2.798L54 84.752 61.488 84l6.035 28.918c1.442.976 1.897 2.835 1.058 4.326-.838 1.492-2.705 2.145-4.344 1.52z" fill="#FFB6B6" />
			<path d="M53 68.5s-1.571.637-.78 4.417c.633 3.025 2.957 22.007 4.775 25.791-.807.834-1.02 2.188-.516 3.292l7.244-3.424C67 97.5 65.5 96.5 64.5 96l-2-7-1.42-18.335L55.5 67 53 68.5zM124.141 147.527l-11.625.471a1.662 1.662 0 0 1-1.317-.557 1.558 1.558 0 0 1-.372-1.329 30.425 30.425 0 0 0-.76-14.323 1.59 1.59 0 0 1 .808-1.874c4.762-2.424 9.223-2.547 13.26-.366.428.228.732.63.83 1.097a49.751 49.751 0 0 1 .748 15.428 1.63 1.63 0 0 1-1.572 1.453z" fill="var(--illustration-color)" />
			<path d="m124.242 139.819-8.418.18c-.283.007-.55-.066-.701-.19-.151-.123-.164-.279-.033-.409.131-.13.386-.213.668-.219l8.419-.18c.282-.007.549.066.7.19.151.123.164.279.033.409-.131.13-.386.213-.668.219zM124.242 136.819l-8.419.18c-.436.01-.804-.166-.822-.392-.018-.226.32-.417.757-.426l8.419-.18c.436-.01.804.166.822.392.018.226-.32.417-.757.426z" fill="#FFF" />
			<path d="m326.391 59.986-11.019-1.45c-.477-.062-.9-.34-1.147-.754a1.55 1.55 0 0 1-.129-1.341 30.447 30.447 0 0 0 1.673-13.93 1.568 1.568 0 0 1 1.072-1.673c4.885-1.556 9.104-.943 12.54 1.82.365.29.584.727.6 1.194a49.807 49.807 0 0 1-1.869 14.991 1.57 1.57 0 0 1-1.721 1.143z" fill="var(--illustration-color)" />
			<path d="m327.1 52.992-8.408-1.228a.814.814 0 0 1-.631-.539.97.97 0 0 1 .103-.878.76.76 0 0 1 .735-.34l8.409 1.229c.435.063.742.508.685.993-.057.485-.456.827-.892.763zM327.1 49.992l-8.407-1.228a.813.813 0 0 1-.632-.538.97.97 0 0 1 .103-.88.76.76 0 0 1 .736-.338l8.407 1.228c.282.04.523.246.632.538a.97.97 0 0 1-.103.88.76.76 0 0 1-.736.338zM179.78 81.78h-3.56v-3.56a3.22 3.22 0 0 0-6.44 0v3.56h-3.56a3.22 3.22 0 0 0 0 6.44h3.56v3.56a3.22 3.22 0 0 0 6.44 0v-3.56h3.56a3.22 3.22 0 0 0 0-6.44z" fill="#FFF" />
			<circle fill="#3F3D56" cx="298.5" cy="10.5" r="3.5" />
			<circle fill="#3F3D56" cx="85.5" cy="109.5" r="3.5" />
		</g>
	</svg>
