<svg id="kv-es-section-cell-night"
	xmlns="http://www.w3.org/2000/svg" viewBox="0 0 200 104">
	<g fill="none" fill-rule="evenodd">
		<path fill="#F6F6F6" d="M71.499 51.63h74.15a3.33 3.33 0 010 6.655h-10.39c.494 0 .981.11 1.427.322a3.322 3.322 0 000 6.007 3.334 3.334 0 01-1.427.323h.928a3.326 3.326 0 110 6.651h-12.863a3.33 3.33 0 000 6.656h26.799a3.326 3.326 0 110 6.651h-28.104a3.33 3.33 0 000 6.656h-.594a3.326 3.326 0 110 6.651H91.01a3.326 3.326 0 110-6.651h6.786a3.33 3.33 0 000-6.656H86.437a3.326 3.326 0 110-6.651h-39.15a3.33 3.33 0 010-6.656h4.784a3.326 3.326 0 100-6.651h-9.007a3.326 3.326 0 110-6.652H71.5a3.33 3.33 0 110-6.656zM29.98 58.284a3.326 3.326 0 110 6.652h-6.655a3.326 3.326 0 110-6.652h6.655zm113.03-25.67a3.326 3.326 0 110 6.65H68.873a3.326 3.326 0 010-6.65zm10.65-13.249a3.326 3.326 0 010 6.652h-6.652a3.326 3.326 0 110-6.652zM123.579 6a3.326 3.326 0 110 6.652h-4.962a3.33 3.33 0 10.213 6.655h17.105a3.326 3.326 0 110 6.652H61.8a3.326 3.326 0 010-6.652h18.536a3.33 3.33 0 000-6.655h-5.228a3.326 3.326 0 010-6.652z"/>
		<g fill-rule="nonzero">
			<path fill="#FFF" stroke="#CCD1D9" d="M4.498 46.827l173.99-23.71a2 2 0 012.252 1.712l3.344 24.538a2 2 0 01-1.712 2.251L8.382 75.328a2 2 0 01-2.252-1.711L2.786 49.079a2 2 0 011.712-2.252z"/>
			<path fill="#CCD1D9" d="M15.164 54.089l7.438-1.014a2 2 0 012.251 1.712l1.014 7.437a2 2 0 01-1.712 2.252l-7.437 1.013a2 2 0 01-2.252-1.711l-1.013-7.438a2 2 0 011.711-2.251zm19.006-2.595l133.793-18.232a2 2 0 012.252 1.711l1.013 7.438a2 2 0 01-1.711 2.251L35.723 62.895a2 2 0 01-2.252-1.712l-1.014-7.437a2 2 0 011.712-2.252z"/>
			<path fill="#FFF" stroke="#CCD1D9" d="M23.312 19.557l173.737 25.5a2 2 0 011.688 2.27l-3.596 24.502a2 2 0 01-2.27 1.688l-173.736-25.5a2 2 0 01-1.689-2.27l3.597-24.502a2 2 0 012.269-1.688z"/>
			<path fill="#CCD1D9" d="M31.545 29.492l7.426 1.09a2 2 0 011.689 2.269l-1.09 7.426a2 2 0 01-2.27 1.689l-7.426-1.09a2 2 0 01-1.688-2.27l1.09-7.426a2 2 0 012.269-1.688zm18.8 3.023L184.03 52.771a2 2 0 011.678 2.277l-1.127 7.436a2 2 0 01-2.277 1.678L48.62 43.906a2 2 0 01-1.678-2.277l1.127-7.436a2 2 0 012.277-1.678z"/>
			<g transform="translate(12.195 44.61)">
				<rect width="179.598" height="28.765" fill="#FFF" stroke="#CCD1D9" rx="2"/>
				<rect width="11.506" height="11.506" x="9.588" y="8.629" fill="#CCD1D9" rx="2"/>
				<rect width="139.03" height="11.506" x="28.765" y="8.629" fill="#CCD1D9" rx="2"/>
			</g>
		</g>
	</g>
</svg>
