<svg id="kv-es-metadata-night"
	xmlns="http://www.w3.org/2000/svg" viewBox="0 0 408 138">
	<style>.cls-metadata-bg{fill:#f6f6f6;}</style>
	<g fill="none" fill-rule="evenodd">
		<path d="M0 0h408v138H0z"/>
		<path class="cls-metadata-bg" fill-rule="nonzero" d="M108.36 60.47h55.16a6.45 6.45 0 01.001-12.901h143.738a6.45 6.45 0 110 12.9c-9.577-.535-15.371-.325-17.382.631a6.444 6.444 0 00-3.68 5.822c0 1.66 1.377 3.712 4.133 6.158 3.562 0 5.033 3.178 5.033 6.74a6.449 6.449 0 01-6.449 6.45h-24.941a6.457 6.457 0 000 12.907h74.852a6.45 6.45 0 01-.001 12.9h-77.38a6.451 6.451 0 000 12.901h-1.155a6.451 6.451 0 010 12.901h-58.973a6.45 6.45 0 010-12.9h13.157a6.45 6.45 0 000-12.901h-21.967a6.45 6.45 0 010-12.9H116.55a6.457 6.457 0 010-12.907h9.277a6.45 6.45 0 000-12.901h-17.46a6.45 6.45 0 110-12.9h-.006zm-37.983-.492H83.13c3.522 0 6.377 2.932 6.377 6.549 0 3.617-2.855 6.55-6.377 6.55H70.377c-3.522 0-6.377-2.933-6.377-6.55s2.855-6.55 6.377-6.55z"/>
		<path fill="#FFF" fill-rule="nonzero" d="M229.102.69h-50.22l-32.154 32.002V112.7a4.493 4.493 0 004.489 4.497h77.885c2.48 0 4.49-2.013 4.49-4.497V5.186a4.494 4.494 0 00-4.49-4.497z"/>
		<path fill="var(--illustration-color-light-90)" fill-rule="nonzero" d="M179.13 27.945V.69h-.057l-32.345 31.713h27.885c2.494 0 4.516-1.996 4.516-4.457zm89.268-17.604h-14.512v106.976a4.497 4.497 0 01-4.49 4.504h-63.373v.524a4.497 4.497 0 004.49 4.504h77.885c2.48 0 4.49-2.017 4.49-4.504v-107.5a4.497 4.497 0 00-4.49-4.504z"/>
		<path fill="var(--illustration-color-light-80)" fill-rule="nonzero" d="M253.584 117.488V10.028a4.508 4.508 0 00-4.503-4.513h-15.395v107.173a4.508 4.508 0 01-4.504 4.512h-63.151v.31a4.508 4.508 0 004.503 4.513h78.547a4.495 4.495 0 003.192-1.33 4.515 4.515 0 001.311-3.205z"/>
		<path fill="#CCD1D9" fill-rule="nonzero" d="M229.504 117.197h-78a4.785 4.785 0 01-4.776-4.783V32.2L179.093 0h50.411a4.786 4.786 0 014.777 4.783v107.631a4.79 4.79 0 01-4.777 4.783zm-82.214-84.76v79.977a4.222 4.222 0 004.215 4.22h77.999a4.227 4.227 0 004.215-4.22V4.784a4.223 4.223 0 00-4.215-4.221h-50.175l-32.04 31.874z"/>
		<path fill="#CCD1D9" fill-rule="nonzero" d="M249.482 122.023h-78.66c-2.645-.003-4.788-2.138-4.791-4.772v-.309h.563v.309a4.225 4.225 0 004.228 4.21h78.66a4.224 4.224 0 004.228-4.21V10.288a4.23 4.23 0 00-4.228-4.211h-15.417v-.562h15.417c2.644.006 4.785 2.14 4.792 4.773V117.25c-.004 2.634-2.147 4.77-4.792 4.772z"/>
		<path fill="#CCD1D9" fill-rule="nonzero" d="M268.11 126.849h-78c-2.636-.003-4.773-2.147-4.776-4.792v-.524h.562v.524a4.221 4.221 0 004.215 4.228h78a4.226 4.226 0 004.214-4.228V14.444a4.227 4.227 0 00-4.215-4.229h-14.533v-.563h14.533a4.79 4.79 0 014.777 4.792v107.613a4.79 4.79 0 01-4.777 4.792zm-93.738-94.447h-27.644v-.565h27.644c2.318 0 4.198-1.894 4.198-4.231V0h.56v27.606c-.004 2.647-2.132 4.793-4.758 4.796z"/>
		<path fill="#CCD1D9" fill-rule="nonzero" d="M177.061 92.259l16.63-16.425 4.052 4.067-12.25 12.358 12.25 12.364-4.375 4.302zm48.947.24l-16.624 16.426-4.058-4.068 12.25-12.358-12.25-12.358 4.375-4.307z"/>
		<path fill="var(--illustration-color-light-90)" fill-rule="nonzero" d="M154.311 99.273h16.546v6.205h-16.546z"/>
		<path fill="#CCD1D9" fill-rule="nonzero" d="M154.311 86.175h16.546v6.205h-16.546z"/>
		<path fill="var(--illustration-color-light-90)" fill-rule="nonzero" d="M154.311 73.765h28.955v6.205h-28.955zm0-13.098h27.576v6.205h-27.576z"/>
		<path fill="#CCD1D9" fill-rule="nonzero" d="M154.311 47.568h20.682v6.205h-20.682z"/>
		<path fill="var(--illustration-color-light-90)" fill-rule="nonzero" d="M154.311 35.159h30.333v6.205h-30.333zm34.47 0h37.227v6.205h-37.227zm-9.652 12.409h46.879v6.205h-46.879z"/>
		<path fill="#CCD1D9" fill-rule="nonzero" d="M186.023 60.667h28.265v6.205h-28.265zm-1.379-38.606h41.364v6.205h-41.364z"/>
	</g>
</svg>
