<svg id="kv-no-results-found-dark" xmlns="http://www.w3.org/2000/svg" fill="none" viewBox="0 0 100 87">
  <mask id="a" width="100" height="83" x="0" y="2" maskUnits="userSpaceOnUse" style="mask-type:alpha">
    <path fill="#D9D9D9" d="M0 2.63h100v82H0z"/>
  </mask>
  <g mask="url(#a)">
    <circle cx="58.768" cy="42.63" r="40" fill="#2A2A2A"/>
    <mask id="b" width="81" height="81" x="18" y="2" maskUnits="userSpaceOnUse" style="mask-type:alpha">
      <circle cx="58.768" cy="42.63" r="40" fill="#202020"/>
    </mask>
    <g mask="url(#b)">
      <path fill="#202020" d="M85.396 86.686h3.663L77.788 34.981h-4.344L62.173 86.686h3.663l1.526-6.892H83.87l1.526 6.892Zm-5.025-22.604h-9.534l1.832-8.284h5.847l1.832 8.284h.023Zm-2.653-11.997h-4.204l2.09-9.446 2.09 9.445h.024Zm-9.534 24.019 1.832-8.285h11.177l1.832 8.285H68.16h.024Z"/>
      <path stroke="#202020" stroke-width="4" d="m53.382 22.309 51.961 30"/>
      <path fill="#3F3F3F" d="M75.673 38.63c1.93 0 3.5-1.57 3.5-3.5s-1.57-3.5-3.5-3.5-3.5 1.57-3.5 3.5 1.57 3.5 3.5 3.5ZM49.173 58.63h-1a1 1 0 0 0-1 1v5a1 1 0 0 0 1 1h1a1 1 0 0 0 1-1v-5a1 1 0 0 0-1-1Z"/>
      <path fill="#3F3F3F" d="M49.173 34.63h-1v28h1v-28Z"/>
      <rect width="24" height="6" x="45.173" y="34.415" fill="#707070" rx="3" transform="rotate(-60 45.173 34.415)"/>
    </g>
    <path fill="#BEBEBE" d="m27.463 66.688 1.296-1.544 6.945 5.828-1.296 1.543z"/>
    <rect width="20.148" height="6.044" x="44.688" y="83.772" fill="#8358FE" rx="3" transform="rotate(-140 44.688 83.772)"/>
    <path fill="#714ED3" d="M46.63 81.457 31.198 68.506c1.065-1.27 2.971-1.452 4.24-.387l10.838 9.094c1.27 1.065 1.42 2.974.356 4.244Z"/>
    <path fill="#BEBEBE" fill-rule="evenodd" d="M27.995 65.83c4.96-5.91 4.189-14.722-1.722-19.68-5.91-4.96-14.72-4.189-19.68 1.721-4.959 5.91-4.188 14.721 1.722 19.68 5.91 4.96 14.721 4.188 19.68-1.722Zm1.647 1.38c5.722-6.818 4.832-16.985-1.987-22.707-6.82-5.722-16.986-4.833-22.708 1.987C-.775 53.309.115 63.475 6.934 69.198c6.82 5.721 16.986 4.832 22.708-1.987Z" clip-rule="evenodd"/>
    <path fill="#E5E5E5" fill-rule="evenodd" d="M26.349 64.449c4.196-5.001 3.544-12.456-1.457-16.653-5-4.196-12.456-3.544-16.652 1.457-4.196 5.001-3.544 12.456 1.457 16.653 5 4.196 12.456 3.543 16.652-1.457Zm1.646 1.381c4.96-5.91 4.188-14.72-1.722-19.68-5.91-4.959-14.72-4.188-19.68 1.722-4.959 5.91-4.188 14.72 1.722 19.68 5.91 4.959 14.721 4.188 19.68-1.722Z" clip-rule="evenodd"/>
  </g>
</svg>
