<svg id="kv-es-component-placeholder-night"
	xmlns="http://www.w3.org/2000/svg" viewBox="0 0 92 90">
	<g fill="none" fill-rule="evenodd">
		<g transform="rotate(11 6.151 96.62)">
			<rect fill="#C4C4C4" width="74" height="72" rx="3" />
			<rect fill="#FFF" x="3.932" y="3.91" width="66" height="53" rx="3" />
		</g>
		<g transform="rotate(-18 72.569 8.431)">
			<rect fill="#D8D8D8" width="72" height="70" rx="3" />
			<rect fill="#FFF" x="4" y="4" width="64" height="51" rx="3" />
			<g opacity=".696">
				<path d="M18.36 11.887h35v35h-35z" />
				<path d="M35.86 15.387c7.728 0 14 6.272 14 14s-6.272 14-14 14-14-6.272-14-14 6.272-14 14-14zm.594 6.72c-4.342 0-7.874 3.451-7.874 7.694 0 4.252 3.532 7.711 7.874 7.711a8.003 8.003 0 005.268-1.987l1.17-1.024-2.321-2.155-.951.84a4.77 4.77 0 01-3.166 1.182c-2.608 0-4.73-2.05-4.73-4.568 0-2.508 2.122-4.549 4.73-4.549 1.192 0 2.316.414 3.166 1.164l.987.872 2.224-2.225-1.127-.986a7.97 7.97 0 00-5.25-1.97z" fill="#C4C4C4" />
			</g>
		</g>
	</g>
</svg>
