<svg xmlns="http://www.w3.org/2000/svg" fill="none" viewBox="0 0 100 86">
	<circle cx="58.768" cy="42" r="40" fill="var(--illustrations-background, var(--color-gray-800, #262626))"/>
	<mask id="b" width="81" height="80" x="18" y="2" maskUnits="userSpaceOnUse" style="mask-type:alpha">
		<circle cx="58.768" cy="42" r="40" fill="var(--illustrations-background, var(--color-gray-800, #262626))"/>
	</mask>
	<g mask="url(#b)">
		<path fill="var(--illustrations-shape-tertiary, #1a1a1a)" d="M85.396 86.11h3.663L77.788 34.403h-4.344L62.173 86.11h3.663l1.526-6.892H83.87zm-5.025-22.604h-9.534l1.832-8.285h5.847l1.832 8.285zm-2.653-11.998h-4.204l2.09-9.446 2.09 9.446zm-9.534 24.019 1.832-8.285h11.177l1.832 8.285H68.16z"/>
		<path fill="var(--illustrations-shape-tertiary, #1a1a1a)" d="m106.343 50-2 3.464-51.961-30 2-3.464z"/>
		<path fill="var(--illustrations-shape-secondary, #404040)" d="M75.673 38c1.93 0 3.5-1.57 3.5-3.5s-1.57-3.5-3.5-3.5-3.5 1.57-3.5 3.5 1.57 3.5 3.5 3.5m-26.5 20h-1a1 1 0 0 0-1 1v5a1 1 0 0 0 1 1h1a1 1 0 0 0 1-1v-5a1 1 0 0 0-1-1"/>
		<path fill="var(--illustrations-shape-secondary, #404040)" d="M49.173 34h-1v28h1z"/>
		<rect width="24" height="6" x="45.173" y="33.785" fill="var(--illustrations-shape-primary, #595959)" rx="3" transform="rotate(-60 45.173 33.785)"/>
	</g>
	<path fill="var(--illustrations-icon-secondary, #bfbfbf)" d="m27.463 66.058 1.295-1.544 6.945 5.828-1.295 1.543z"/>
	<rect width="20.148" height="6.044" x="44.687" y="83.142" fill="var(--illustrations-accent-primary, #7c4dff)" rx="3" transform="rotate(-140 44.687 83.142)"/>
	<path fill="var(--illustrations-accent-secondary, #6933ff)" d="m46.63 80.827-15.433-12.95c1.065-1.27 2.971-1.453 4.24-.388l10.838 9.094c1.27 1.065 1.42 2.975.356 4.244"/>
	<g fill-rule="evenodd" clip-rule="evenodd">
		<path fill="var(--illustrations-icon-secondary, #bfbfbf)" d="M27.995 65.2c4.96-5.91 4.188-14.721-1.722-19.68-5.91-4.96-14.72-4.188-19.68 1.721-4.959 5.91-4.188 14.721 1.722 19.68 5.91 4.96 14.721 4.189 19.68-1.721m1.646 1.381c5.723-6.819 4.833-16.986-1.986-22.708-6.82-5.721-16.986-4.832-22.708 1.987C-.775 52.68.115 62.846 6.934 68.568S23.92 73.4 29.642 66.58"/>
		<path fill="var(--illustrations-icon-primary, #e5e5e5)" d="M26.349 63.819c4.196-5 3.543-12.456-1.457-16.653s-12.456-3.543-16.653 1.457C4.043 53.624 4.696 61.08 9.696 65.276c5.001 4.196 12.457 3.544 16.653-1.457m1.646 1.381c4.959-5.91 4.188-14.72-1.722-19.68s-14.72-4.188-19.68 1.722-4.188 14.72 1.722 19.68 14.72 4.188 19.68-1.722"/>
	</g>
</svg>
