<svg id="kv-es-part-placeholder-night"
	xmlns="http://www.w3.org/2000/svg" viewBox="0 0 92 90">
	<g fill="none" fill-rule="evenodd">
		<g transform="rotate(11 6.151 96.62)">
			<rect fill="#C4C4C4" width="74" height="72" rx="3" />
			<rect fill="#FFF" x="3.932" y="3.91" width="66" height="53" rx="3" />
		</g>
		<g transform="rotate(-18 72.569 8.431)">
			<rect fill="#D8D8D8" width="72" height="70" rx="3" />
			<rect fill="#FFF" x="4" y="4" width="64" height="51" rx="3" />
			<g opacity=".696">
				<path d="M18.36 11.887h35v35h-35z" />
				<path d="M35.86 15.387c7.728 0 14 6.272 14 14s-6.272 14-14 14-14-6.272-14-14 6.272-14 14-14zm-.259 7H30.61v15.4h3.11v-5.81h2.026c1.408 0 2.483-.075 3.226-.22.548-.12 1.084-.364 1.614-.73.528-.368.962-.875 1.305-1.52.345-.645.516-1.437.516-2.384 0-1.225-.297-2.224-.892-3-.597-.773-1.334-1.276-2.216-1.507-.575-.153-1.807-.23-3.698-.23zm-.378 2.603c1.12 0 1.865.036 2.238.105.504.092.92.32 1.25.684.328.363.493.827.493 1.387 0 .453-.117.853-.353 1.197a2.024 2.024 0 01-.973.756c-.41.162-1.228.243-2.456.243h-1.703V24.99z" fill="#C4C4C4" />
			</g>
		</g>
	</g>
</svg>
