<svg id="kv-soft-agree" viewBox="0 0 40 40"
	xmlns="http://www.w3.org/2000/svg">
	<g>
		<path d="M20 40C31.0457 40 40 31.0457 40 20C40 8.9543 31.0457 0 20 0C8.9543 0 0 8.9543 0 20C0 31.0457 8.9543 40 20 40Z" fill="#3F3F3F"/>
		<path fill-rule="evenodd" d="M31.8078 19.9996C31.8078 26.52 26.522 31.8059 20.0016 31.8059C13.4812 31.8059 8.19531 26.52 8.19531 19.9996C8.19531 13.4792 13.4812 8.19336 20.0016 8.19336C26.522 8.19336 31.8078 13.4792 31.8078 19.9996ZM25.8984 15.8535C25.8984 16.82 25.1149 17.6035 24.1484 17.6035C23.1819 17.6035 22.3984 16.82 22.3984 15.8535C22.3984 14.887 23.1819 14.1035 24.1484 14.1035C25.1149 14.1035 25.8984 14.887 25.8984 15.8535ZM15.7891 17.6035C16.7556 17.6035 17.5391 16.82 17.5391 15.8535C17.5391 14.887 16.7556 14.1035 15.7891 14.1035C14.8226 14.1035 14.0391 14.887 14.0391 15.8535C14.0391 16.82 14.8226 17.6035 15.7891 17.6035ZM22.6834 22.5857L21.0459 24.2232L22.6834 25.8607C22.9717 26.1498 22.9717 26.6178 22.6834 26.9061C22.3943 27.1943 21.9264 27.1943 21.6381 26.9061L20.0006 25.2686L18.3631 26.9061C18.074 27.1943 17.6061 27.1943 17.3178 26.9061C17.0295 26.617 17.0295 26.149 17.3178 25.8607L18.9553 24.2232L17.3178 22.5857C17.0295 22.2967 17.0295 21.8287 17.3178 21.5404C17.6068 21.2521 18.0748 21.2521 18.3631 21.5404L20.0006 23.1779L21.6381 21.5404C21.9271 21.2521 22.3951 21.2521 22.6834 21.5404C22.9717 21.8295 22.9717 22.2975 22.6834 22.5857Z" fill="#FFC043"/>
	</g>
</svg>
