<svg id="kv-box-build-night"
	xmlns="http://www.w3.org/2000/svg" viewBox="0 0 109 133">
	<linearGradient id="kv-box-build-grad" x1="-.001%" x2="100.131%" y1="49.998%" y2="49.998%">
		<stop offset="0" stop-color="#b40eaa"/>
		<stop offset="1" stop-color="var(--illustration-color)"/>
	</linearGradient>

	<g fill="none" fill-rule="evenodd">
		<g fill-rule="nonzero">
			<path d="m109.2 24-74.4.3-34.6 30.7h78.2z" fill="#cecece"/>
			<path d="m109.2 24-16 16v-16z" fill="#b6b6b7"/>
			<path d="m39.1 0h57.1l-3 14h-58z" fill="var(--illustration-color-light-80)"/>
		</g>
		<path d="m.2 25.5 16.5 6.5 18.5-17.9-14.7-7.1z" fill="var(--illustration-color-light-80)"/>
		<g fill-rule="nonzero">
			<path d="m76.4 32c-20.1-.3-39.6.3-59.7 0l18.1-18h58.4z" fill="var(--illustration-color-dark-55)"/>
			<path d="m45.6 29h-20.8c-1.5 0-2.6-1.1-2.6-2.6v-16.8c0-1.5 1.1-2.6 2.6-2.6h20.8c1.5 0 2.6 1.1 2.6 2.6v16.7c0 1.6-1.1 2.7-2.6 2.7z" fill="#fcfcfc"/>
			<path d="m24.8 15.2h20.8v1.8h-20.8z" fill="#f5f5f5"/>
			<path d="m24.8 17.8h20.8v1.8h-20.8zm.1 2.1h20.7v1.8h-20.7zm-.1-7.9h20.8v1.8h-20.8zm.1-2.6h20.7v1.8h-20.7zm0 13.6h20.7v1.8h-20.7zm0 2.7h20.7v1.8h-20.7z" fill="#e0e0e0"/>
			<path d="m68.2 5.2v10.6c0 1.8-1.6 3.2-3.7 3.2h-10.6c-2.1 0-3.7-1.4-3.7-3.2v-10.6c0-1.8 1.6-3.2 3.7-3.2h10.6c2.1 0 3.7 1.4 3.7 3.2z" fill="#fff"/>
		</g>
		<g stroke="#1b77aa">
			<path d="m54.2 7.4s-.7 4.9 5.6 4.4" stroke-width=".242"/>
			<path d="m63 5.6c1.5 2.7-1.1 2.7-1.2 2.7-1.9.2-1.6 1.7-1.6 1.7" stroke-width=".216"/>
			<path d="m60 12.4s1.3 3.6-1.9 2.9" stroke-width=".199"/>
		</g>
		<g fill-rule="nonzero">
			<path d="m61.4 12.6h-2.4c-.5 0-1-.4-1-1.1v-.5c0-.5.4-1.1 1-1.1h2.4c.5 0 1 .4 1 1.1v.5c0 .6-.4 1.1-1 1.1zm-3.9 4.2h-2.4c-.5 0-1-.4-1-1.1v-.5c0-.5.4-1.1 1-1.1h2.4c.5 0 1 .4 1 1.1v.5c0 .6-.5 1.1-1 1.1zm6.3-10.7h-2.4c-.5 0-1-.4-1-1.1v-.5c0-.5.4-1.1 1-1.1h2.4c.5 0 1 .4 1 1.1v.5c.1.6-.4 1.1-1 1.1zm-8.3 3.1h-2.4c-.5 0-1-.4-1-1.1v-.5c0-.5.4-1.1 1-1.1h2.4c.5 0 1 .4 1 1.1v.5c.1.6-.4 1.1-1 1.1z" fill="#c4c4c4"/>
			<path d="m87.6 20h-8.8c-1.5 0-2.6-1.1-2.6-2.5v-8c0-1.4 1.1-2.5 2.6-2.5h8.9c1.4 0 2.5 1.1 2.5 2.5v7.9c0 1.5-1.1 2.6-2.6 2.6z" fill="#f9f9f9"/>
			<path d="m78.1 9.2h10.2v1.9h-10.2z" fill="var(--illustration-color)"/>
			<path d="m78.1 11.8h9.7v1.1h-9.7z" fill="#f5f5f5"/>
			<path d="m78.1 13.4h6.9v1h-6.9zm0 1.2h4.3v1h-4.3zm0 1.9h2.4v1h-2.4z" fill="#e0e0e0"/>
			<path d="m56.6 32h-13.8c-1.5 0-2.6-1.1-2.6-2.6v-7.8c0-1.5 1.1-2.6 2.6-2.6h13.8c1.5 0 2.6 1.1 2.6 2.6v7.8c0 1.5-1.1 2.6-2.6 2.6z" fill="#000" opacity=".06"/>
			<path d="m56.3 31.7h-13c-1.5 0-2.6-1.1-2.6-2.6v-6.6c0-1.5 1.1-2.6 2.6-2.6h13c1.5 0 2.6 1.1 2.6 2.6v6.6c0 1.4-1.1 2.6-2.6 2.6z" fill="#fff"/>
			<path d="m43.5 21.9h13.3v1.7h-13.3z" fill="var(--illustration-color)"/>
			<path d="m43.5 24.3h12.6v1h-12.6z" fill="#f5f5f5"/>
			<path d="m43.5 25.8h9v1h-9zm.1 1.1h5.4v1h-5.4zm0 1.7h3.1v1h-3.1z" fill="#e0e0e0"/>
			<path d="m59.6 11h14.4c2.4 0 4.4 2 4.4 4.5v13.1c0 2.5-2 4.5-4.4 4.5h-14.4c-2.4 0-4.4-2-4.4-4.5v-13.1c0-2.5 2-4.5 4.4-4.5z" fill="#000" opacity=".04"/>
			<path d="m60.489 11.885h14.4c2.4 0 4.4 2 4.4 4.5v13.1c0 2.5-2 4.5-4.4 4.5h-14.4c-2.4 0-4.4-2-4.4-4.5v-13.1c0-2.5 2-4.5 4.4-4.5z" fill="#fff"/>
			<path d="m64 19.7h-3.4c-.5 0-1-.4-1-1v-1.3c0-.5.4-1 1-1h3.4c.5 0 1 .4 1 1v1.3c0 .5-.5 1-1 1z" fill="#6525c1"/>
		</g>
		<path d="m62.1 19.7s-.6 5.8 4.7 5.2m7-5.7c2.3 2.2-1.8 2.2-1.8 2.2-2.8.2-2.6 1.5-2.6 1.5m-.2 3s1.5 4.4-2.3 3.7" stroke="#1b77aa" stroke-width=".241"/>
		<path d="m71.1 26.2h-3.4c-.5 0-1-.4-1-1v-1.3c0-.5.4-1 1-1h3.4c.5 0 1 .4 1 1v1.3c0 .6-.4 1-1 1zm-4.7 5.2h-3.4c-.5 0-1-.4-1-1v-1.3c0-.5.4-1 1-1h3.4c.5 0 1 .4 1 1v1.3c0 .6-.5 1-1 1zm8.9-11h-3.4c-.5 0-1-.4-1-1v-1.3c0-.5.4-1 1-1h3.4c.5 0 1 .4 1 1v1.3c0 .5-.5 1-1 1z" fill="#6525c1" fill-rule="nonzero"/>
		<path d="m76.2 32v59h-59v-59z" fill="var(--illustration-color)"/>
		<path d="m7.2 46h60.8l8.2-14h-59.1z" fill="var(--illustration-color-light-80)" fill-rule="nonzero"/>
		<path d="m76.2 91v-59l17-17.9 1 63.5v.1" fill="var(--illustration-color-dark-35)"/>
		<path d="m76.2 32 17-18 12.7 5-16.3 18.2z" fill="var(--illustration-color-light-80)"/>
		<g fill-rule="nonzero">
			<path d="m77.1 54.6h1.9v77.2h-1.9z" fill="#e6e9ed"/>
			<path d="m78.4 54.8v78.2l30.8-30.8v-78.2z" fill="#ccd1d9"/>
			<path d="m73.8 54.6h-73.8v78.5h78.5v-78.5z" fill="#e6e9ed"/>
			<g transform="translate(14.51 69.049)">
				<ellipse cx="24.7" cy="24.9" fill="url(#kv-box-build-grad)" rx="24.7" ry="24.9"/>
				<g fill="white">
					<path d="m24.73 5.918c-10.4 0-18.9 8.5-18.9 18.9s8.5 18.9 18.9 18.9 18.9-8.5 18.9-18.9c.2-10.4-8.3-18.9-18.9-18.9zm0 36.6c-9.7 0-17.7-7.9-17.7-17.7s8-17.7 17.7-17.7 17.7 7.9 17.7 17.7c.1 9.7-7.8 17.7-17.7 17.7z"/>
					<path d="m31.63 16.018-8.7 8.6v-8.6h-1.3v17.7h1.3v-8.6l8.9 8.6h1.6l-8.8-8.8 8.8-8.9zm-14.9-.5c-.6 0-1 .4-1 1.1 0 .4.4 1 1 1s1.1-.4 1.1-1-.5-1.1-1.1-1.1z"/>
				</g>
			</g>
		</g>
	</g>
</svg>
