<svg id="kv-error-state" fill="none" viewBox="0 0 100 86">
	<circle cx="56" cy="42.9985" r="40" fill="#2A2A2A"/>
	<mask id="a" width="38" height="36" x="3" y="44" maskUnits="userSpaceOnUse" style="mask-type:alpha">
		<path fill="#D9D9D9" d="M3 44.9995h38v35H3z"/>
	</mask>
	<g mask="url(#a)">
		<path fill="transparent" stroke="#E5E5E5" stroke-width="4.1037" d="M18.4461 49.2588c1.5795-2.7358 5.5283-2.7358 7.1078 0l12.721 22.0333c1.5795 2.7358-.3949 6.1556-3.5539 6.1556H9.27903c-3.15903 0-5.13342-3.4198-3.55391-6.1556L18.4461 49.2588Z"/>
		<path fill="transparent" stroke="#BEBEBE" stroke-width="2.05185" d="M17.5576 48.7458c1.9744-3.4198 6.9104-3.4198 8.8848 0l12.721 22.0334c1.9743 3.4197-.4936 7.6944-4.4424 7.6944H9.27903c-3.94878 0-6.41677-4.2747-4.44238-7.6944L17.5576 48.7458Z"/>
	</g>
	<path fill="#8358FE" d="M22 66.9995c.8686 0 1.6129-.6212 1.7683-1.4758l1.1056-6.0806c.326-1.793-1.0515-3.4435-2.8739-3.4435-1.8224 0-3.1999 1.6505-2.8739 3.4435l1.1056 6.0806c.1554.8546.8997 1.4758 1.7683 1.4758Z"/>
	<path fill="#714ED3" d="M22 66.9995V55.9996c-1.8224 0-3.1999 1.6505-2.8739 3.4435l1.1056 6.0806c.1554.8546.8997 1.4758 1.7683 1.4758Z"/>
	<path fill="#8358FE" d="M22 71.9995c1.1046 0 2-.8954 2-2s-.8954-2-2-2-2 .8954-2 2 .8954 2 2 2Z"/>
	<path fill="#714ED3" d="M22 71.9995v-4c-1.1046 0-2 .8954-2 2s.8954 2 2 2Z"/>
	<path fill="#707070" d="M67 64.4985c0-.8284-.6716-1.5-1.5-1.5h-17c-.8284 0-1.5.6716-1.5 1.5 0 .8285.6716 1.5 1.5 1.5h17c.8284 0 1.5-.6715 1.5-1.5Z"/>
	<path fill="#3F3F3F" d="M42.5 46.453c0-8.0307 14.5-27.4545 14.5-27.4545S71.5 38.4223 71.5 46.453c0 8.0306-6.4945 14.5455-14.5 14.5455 6.0057 0 10.875-4.8846 10.875-10.9091 0-6.0246-11.375-20.0909-11.375-20.0909l.4969-.4942c.2126.2853 10.8718 14.6204 10.8718 20.5849 0 6.0246-4.8694 10.9092-10.875 10.9092 3.7392 0 6.7738-3.0441 6.7738-6.7951 0-3.7511-6.7738-12.8261-6.7738-12.8261s-6.7739 9.075-6.7739 12.8261c0 3.751 3.0346 6.7951 6.7739 6.7951-.0744 0-.1486-.0007-.2226-.0022.0761.0015.1524.0023.2289.0023-8.0055 0-14.5-6.5149-14.5-14.5455Z"/>
</svg>
	