<svg xmlns="http://www.w3.org/2000/svg" fill="none" viewBox="0 0 100 86">
	<circle cx="57" cy="43" r="40" fill="var(--illustrations-background-default, #262626)"/>
	<path stroke="var(--illustrations-icon-primary, #e5e5e5)" stroke-width="4.104" d="M18.446 49.258c1.58-2.735 5.528-2.735 7.108 0l12.72 22.035c1.58 2.735-.394 6.155-3.553 6.155H9.279c-3.159 0-5.133-3.42-3.553-6.155z"/>
	<path stroke="var(--illustrations-icon-secondary, #bfbfbf)" stroke-width="2.052" d="M17.558 48.746c1.974-3.42 6.91-3.42 8.884 0l12.721 22.033c1.975 3.42-.493 7.694-4.442 7.694H9.279c-3.948 0-6.416-4.274-4.442-7.694z"/>
	<path fill="var(--illustrations-accent-primary, #7c4dff)" d="M22 67c.869 0 1.613-.622 1.768-1.476l1.106-6.08a2.921 2.921 0 1 0-5.748 0l1.106 6.08c.155.854.9 1.475 1.768 1.475"/>
	<path fill="var(--illustrations-accent-secondary, #6933ff)" d="M22 67V56a2.92 2.92 0 0 0-2.874 3.443l1.106 6.08c.155.855.9 1.477 1.768 1.477"/>
	<path fill="var(--illustrations-accent-primary, #7c4dff)" d="M22 72a2 2 0 1 0 0-4 2 2 0 0 0 0 4"/>
	<path fill="var(--illustrations-accent-secondary, #6933ff)" d="M22 72v-4a2 2 0 1 0 0 4"/>
	<path fill="var(--illustrations-shape-primary, #595959)" d="M67 63.5a1.5 1.5 0 0 0-1.5-1.5h-17a1.5 1.5 0 0 0 0 3h17a1.5 1.5 0 0 0 1.5-1.5M42.5 46.453c0-8.03 14.5-27.455 14.5-27.455s14.5 19.424 14.5 27.455S65.005 60.998 57 60.998c6.006 0 10.875-4.884 10.875-10.909C67.875 44.065 56.5 30 56.5 30l.497-.495c.212.286 10.872 14.62 10.872 20.585 0 6.025-4.87 10.91-10.875 10.91 3.739 0 6.773-3.045 6.773-6.796 0-3.75-6.773-12.826-6.773-12.826s-6.774 9.075-6.774 12.826 3.034 6.795 6.774 6.795H57c-8.005 0-14.5-6.514-14.5-14.545"/>
</svg>
