<svg id="kv-es-table-empty-night"
	xmlns="http://www.w3.org/2000/svg" viewBox="0 0 372 203">
	<g fill="none" fill-rule="evenodd">
		<path d="M0 0h372v203H0z"/>
		<path d="M169.75 115h22.5c2.071 0 3.75-1.567 3.75-3.5s-1.679-3.5-3.75-3.5h-22.5c-2.071 0-3.75 1.567-3.75 3.5s1.679 3.5 3.75 3.5z"/>
		<path fill="#F6F6F6" d="M250.218 136.998c2.045.057 3.96-.978 5.001-2.703a5.4 5.4 0 0 0 .002-5.59c-1.04-1.726-2.957-2.76-5.003-2.703H238v10.996h12.218zM240 153.007c0-1.53-.727-2.985-2-4.007v8c1.27-1.017 1.997-2.469 2-3.993zM257.503 169.997H213.22a5.48 5.48 0 0 1-4.5-2.337 5.49 5.49 0 0 1-.66-5.032h-80.443a4.623 4.623 0 0 1-4.619-4.623v-21.002H80.663a5.495 5.495 0 0 0-4.899 2.7 5.506 5.506 0 0 0 0 5.597 5.495 5.495 0 0 0 4.9 2.7H95.54a5.499 5.499 0 0 1 5.344 5.5 5.499 5.499 0 0 1-5.344 5.5h-7.902a5.498 5.498 0 0 0-5.358 5.498 5.498 5.498 0 0 0 5.358 5.499h64.69a5.499 5.499 0 0 0-5.497 5.502 5.499 5.499 0 0 0 5.497 5.501h18.728a5.499 5.499 0 0 1 5.344 5.5 5.499 5.499 0 0 1-5.344 5.499h-11.21a5.496 5.496 0 0 0-4.92 2.692 5.507 5.507 0 0 0 0 5.613 5.496 5.496 0 0 0 4.92 2.693h50.234a5.492 5.492 0 0 0 4.893-2.702A5.503 5.503 0 0 0 210.08 192h.988a5.497 5.497 0 0 1-4.891-2.704 5.508 5.508 0 0 1-.002-5.592 5.496 5.496 0 0 1 4.893-2.703h46.436a5.499 5.499 0 0 0 5.496-5.501 5.499 5.499 0 0 0-5.496-5.502h-.001z" fill-rule="nonzero"/>
		<path fill="#FFF" d="M217.916 103 238 118.44v39.918c0 .392-.052.782-.152 1.16a4.619 4.619 0 0 1-4.461 3.482H127.613c-2.547 0-4.613-2.079-4.613-4.642V118.44L143.597 103h74.32-.001z" fill-rule="nonzero"/>
		<path fill="#005CC7" fill-opacity=".1" fill-rule="nonzero" d="M218 140v-37h-75v37z"/>
		<path fill="#C6DAFF" d="M143.596 103 123 118h20.596v-15zM238 118l-20.084-15h-.051v15H238z" fill-rule="nonzero"/>
		<path fill="#005CC7" d="M217.864 118H123v40.312c0 2.589 2.066 4.687 4.613 4.688h105.774c2.101-.003 3.935-1.449 4.46-3.516.1-.383.153-.776.153-1.172v-40.311h-20.136V118zm-23.37 20h-27.988a5.503 5.503 0 0 1-5.506-5.5c0-3.038 2.465-5.5 5.506-5.5h27.988a5.503 5.503 0 0 1 5.506 5.5c0 3.038-2.465 5.5-5.506 5.5z" fill-rule="nonzero"/>
		<path d="M164 114c5.325-2.473 10.59-5.21 14.663-9.394 2.153-2.206 3.99-4.942 4.184-8.015.333-5.136-4.904-9.854-9.994-9.001a3.546 3.546 0 0 0-2.17 1.036c-.873 1.031-.587 2.69.3 3.713.887 1.023 2.203 1.548 3.491 1.967a38.582 38.582 0 0 0 35.154-6.242 38.349 38.349 0 0 0 14.275-32.648c-.38-4.722-1.709-9.445-4.263-13.416" stroke="#BEBEBE" stroke-dasharray="4"/>
		<path d="M219 41a14.475 14.475 0 0 0-1-1" stroke="#05070A"/>
		<path fill="#DDD" d="m212.835 39.112 2.62.83c.293.093.615.074.894-.053.279-.126.491-.35.59-.622.203-.562-.12-1.17-.725-1.366l-.085-.026-2.043-.648-.497-.156c-.4-.141-.852-.069-1.178.188a1.033 1.033 0 0 0-.386 1.044c.089.388.4.699.81.813v-.004zM218.262 35.056l-2.21 1.02-1.65.78-.402.194h.074l.489.184 2.01.766.36-.21 1.135-.663c.62-.272.998-.97.922-1.704a.568.568 0 0 0-.287-.37.48.48 0 0 0-.44.002h-.001z" fill-rule="nonzero"/>
		<path fill="#979797" d="M214.353 34.122c-.389.465-.465 1.173-.187 1.734.225.581.36.927.45 1.144l1.384-.69-.979-2.049a.452.452 0 0 0-.306-.253.395.395 0 0 0-.362.114z" fill-rule="nonzero"/>
	</g>
</svg>
