<svg id="kv-es-asset-placeholder-night"
	xmlns="http://www.w3.org/2000/svg" viewBox="0 0 92 90">
	<g fill="none" fill-rule="evenodd">
		<g transform="rotate(11 10.844 90.927)">
			<rect fill="#C4C4C4" width="74" height="72" rx="3"/>
			<rect fill="#FFF" x="3.932" y="3.91" width="66" height="53" rx="3"/>
		</g>
		<g transform="rotate(-18 68.912 11.088)">
			<rect fill="#D8D8D8" width="72" height="70" rx="3"/>
			<rect fill="#FFF" x="4" y="4" width="64" height="51" rx="3"/>
			<g opacity=".696">
				<path d="M18.36 11.887h35v35h-35z"/>
				<path fill="#C4C4C4" d="M35.86 15.387c7.728 0 14 6.272 14 14s-6.272 14-14 14-14-6.272-14-14 6.272-14 14-14zm1.372 5.6h-2.758l-5.782 15.4h2.66l1.4-3.934h6.23l1.372 3.934h2.66l-5.782-15.4zm-1.316 2.856l2.24 6.37H33.55l2.24-6.37h.126z"/>
			</g>
		</g>
	</g>
</svg>
